<?xml version="1.0" standalone="no"?>
<!DOCTYPE svg PUBLIC "-//W3C//DTD SVG 20010904//EN"
 "http://www.w3.org/TR/2001/REC-SVG-20010904/DTD/svg10.dtd">
<svg version="1.0" xmlns="http://www.w3.org/2000/svg"
 width="1280.000000pt" height="1014.000000pt" viewBox="0 0 1280.000000 1014.000000"
 preserveAspectRatio="xMidYMid meet">
<metadata>
Created by potrace 1.15, written by Peter Selinger 2001-2017
</metadata>
<g transform="translate(0.000000,1014.000000) scale(0.100000,-0.100000)"
fill="#000000" stroke="none">
<path d="M5600 10131 c-8 -5 -156 -64 -327 -132 l-313 -123 0 -178 0 -178 34
-16 33 -16 6 -101 c4 -56 3 -104 -1 -108 -4 -3 -151 -57 -327 -119 -176 -61
-340 -123 -365 -136 -73 -40 -234 -165 -367 -286 -144 -130 -320 -321 -595
-643 l-196 -231 5 -71 c7 -89 18 -101 98 -105 l59 -3 23 -74 c26 -87 42 -107
92 -116 65 -11 66 -12 52 -112 -17 -120 -31 -430 -24 -525 7 -87 -2 -97 -37
-48 -12 17 -30 30 -41 30 -15 0 -19 7 -19 34 0 30 -4 34 -31 40 -51 10 -52 9
-165 -79 -79 -61 -110 -92 -114 -111 -4 -21 -17 -32 -57 -50 l-53 -23 0 45 c0
49 -8 56 -65 58 -27 1 -54 -15 -144 -84 -105 -81 -111 -87 -111 -121 0 -34 -3
-38 -47 -55 -27 -11 -51 -20 -55 -22 -5 -2 -8 19 -8 47 0 56 -7 63 -65 65 -27
1 -54 -15 -144 -84 -110 -84 -111 -86 -111 -126 0 -41 0 -42 -62 -69 -35 -15
-69 -29 -75 -32 -10 -4 -13 9 -13 45 l0 51 -45 7 c-43 6 -48 4 -113 -46 -37
-29 -88 -69 -114 -88 -42 -32 -48 -41 -48 -73 0 -37 -1 -37 -76 -69 -41 -17
-82 -34 -90 -37 -11 -4 -14 6 -14 50 0 62 0 62 -51 72 -33 6 -42 1 -152 -85
l-117 -91 3 -45 2 -45 -80 -34 c-80 -33 -80 -33 -87 -12 -3 12 -6 38 -7 58 -1
36 -2 37 -46 44 -45 6 -46 6 -160 -82 l-115 -88 5 -46 5 -46 -94 -40 c-105
-45 -106 -45 -106 34 0 29 -4 33 -40 43 l-41 11 -114 -88 c-112 -87 -114 -89
-117 -133 l-3 -45 -94 -40 c-64 -28 -96 -47 -102 -62 -4 -12 -9 -58 -10 -103
-2 -77 0 -85 26 -117 27 -34 29 -35 79 -28 62 8 53 -6 -20 -29 -54 -17 -97
-55 -109 -95 -4 -13 -4 -51 0 -85 l7 -61 79 -60 c44 -33 78 -66 77 -73 -2 -8
-31 -25 -66 -37 -105 -38 -129 -74 -118 -178 l7 -64 86 -63 85 -63 -6 -91 -6
-91 99 -73 c94 -69 103 -73 165 -79 l66 -6 0 48 c0 41 2 46 15 35 11 -9 15
-34 15 -96 l0 -83 98 -74 c95 -73 100 -75 162 -78 l65 -4 0 38 c0 20 2 37 5
37 21 0 30 -32 30 -107 l0 -82 98 -75 c96 -72 100 -74 163 -77 l64 -4 0 38 c0
20 2 37 4 37 2 0 26 -17 53 -38 l49 -37 -2 -83 -3 -84 99 -74 c74 -56 106 -74
130 -74 18 0 46 -3 63 -6 30 -6 31 -5 34 35 l3 42 63 -48 63 -48 -3 -79 -3
-79 96 -74 c91 -70 98 -74 161 -80 l67 -6 3 36 3 36 53 -40 52 -40 0 -77 0
-77 91 -69 c97 -72 128 -86 195 -86 40 0 40 1 36 32 -6 38 5 36 77 -19 l50
-38 1 -85 1 -85 97 -71 c89 -66 102 -72 160 -77 l62 -7 0 35 c0 19 3 35 6 35
4 0 44 -28 90 -62 l84 -62 0 -86 0 -85 97 -74 c93 -70 101 -74 160 -79 l62 -5
3 42 3 41 75 -58 75 -58 3 -86 3 -87 94 -71 c90 -69 97 -72 160 -77 l65 -6 0
42 0 41 85 -62 85 -63 -3 -80 -2 -79 96 -73 c92 -70 99 -74 162 -80 l67 -6 0
37 0 36 50 -36 50 -36 0 -89 0 -88 100 -76 c98 -74 100 -75 159 -75 l60 0 3
41 3 41 78 -57 78 -57 -6 -87 -7 -86 104 -77 103 -78 63 0 64 0 -4 40 c-2 22
-2 40 1 40 2 0 28 -18 58 -40 l53 -41 0 -72 1 -72 86 -65 c107 -81 96 -76 171
-84 62 -7 62 -7 62 19 0 14 2 25 5 25 3 0 39 -25 79 -55 l74 -56 67 18 67 18
-7 125 c-4 69 -11 130 -16 136 -5 6 -68 56 -139 110 -81 61 -130 105 -130 116
0 10 3 18 8 18 4 0 43 -29 87 -63 l80 -63 65 16 65 16 -3 115 c-1 63 -5 123
-7 134 -3 11 -71 69 -150 129 l-145 108 0 63 0 63 -124 106 c-69 58 -129 106
-134 106 -10 0 -27 -32 -38 -77 l-9 -32 -67 52 c-67 51 -68 53 -68 98 l0 47
-127 107 -127 107 -17 -24 c-10 -12 -19 -31 -21 -40 -2 -14 -21 -4 -88 47 -83
64 -85 67 -90 114 -5 47 -6 49 -130 154 -116 97 -126 104 -142 90 -10 -9 -18
-27 -18 -40 0 -12 -3 -23 -6 -23 -3 0 -35 21 -70 47 l-64 47 -1 55 0 56 -125
104 c-113 94 -127 103 -141 89 -8 -9 -18 -30 -22 -47 l-6 -31 -92 71 -93 71 0
47 0 47 -101 84 c-56 47 -115 96 -130 108 l-29 24 -20 -24 c-11 -12 -19 -31
-20 -41 0 -15 -9 -12 -50 20 -27 21 -49 41 -50 44 0 3 427 217 950 475 917
453 950 470 955 499 2 17 12 77 21 135 23 136 22 296 -1 375 -23 81 -33 135
-42 230 l-8 80 -45 8 c-42 8 -48 13 -83 71 -32 55 -43 64 -73 69 -25 4 -48 20
-83 56 -39 43 -53 51 -82 51 -32 0 -40 6 -75 55 -37 52 -41 55 -82 55 -36 0
-51 7 -93 42 -27 24 -63 48 -81 54 -31 10 -54 47 -91 149 -2 6 -26 0 -55 -14
l-51 -24 -37 33 c-21 18 -58 42 -83 53 -26 10 -66 38 -91 62 -25 23 -61 48
-80 54 -28 9 -42 23 -68 69 -51 91 -44 86 -90 63 l-41 -21 -31 55 -31 55 -54
0 c-50 0 -54 2 -88 44 -30 36 -44 45 -82 50 -38 6 -51 15 -86 57 -36 42 -47
49 -78 49 -32 0 -41 6 -79 55 -41 52 -46 55 -87 55 -40 0 -46 3 -80 50 -34 46
-40 50 -78 50 -40 1 -44 4 -85 62 -44 60 -44 60 -86 55 -41 -6 -42 -5 -70 39
-16 25 -27 46 -25 48 7 7 81 36 90 36 5 0 9 -21 9 -47 0 -46 2 -49 39 -64 l39
-17 127 52 127 51 -4 88 -4 89 37 19 c21 10 41 19 44 19 3 0 5 -39 5 -88 l0
-87 133 -96 c259 -188 539 -366 912 -581 243 -140 533 -303 566 -318 22 -10
45 -2 202 74 l178 85 47 -30 c53 -33 150 -65 232 -74 114 -13 255 57 390 194
80 81 120 145 155 248 l21 64 220 104 c120 58 222 105 227 105 4 0 7 -33 7
-74 l0 -75 106 -55 107 -56 434 203 435 202 -4 87 -3 87 -70 65 -70 64 162 78
162 77 3 74 3 75 82 -63 82 -62 -5 -91 -5 -91 98 -72 c94 -68 100 -71 162 -75
l64 -3 0 43 c-1 47 -1 47 27 30 17 -11 18 -20 13 -93 l-6 -80 99 -75 c93 -71
101 -75 161 -80 l63 -5 0 37 c0 42 9 47 31 21 23 -28 13 -142 -14 -177 -22
-27 -22 -27 -61 -11 l-40 17 -41 -47 -41 -48 -31 17 c-18 9 -36 16 -42 16 -5
0 -27 -22 -48 -49 l-39 -48 -38 21 -38 21 -16 -25 c-9 -13 -26 -35 -38 -48
l-20 -24 -40 20 -39 20 -41 -33 -40 -33 -41 18 -41 18 -36 -30 -36 -30 -47 41
-48 40 -29 -77 c-16 -42 -30 -78 -32 -80 -1 -2 -20 8 -43 22 l-40 26 -37 -60
c-36 -59 -38 -60 -82 -60 -36 0 -52 -6 -73 -26 l-27 -26 -42 31 c-24 17 -46
31 -50 31 -4 0 -22 -34 -40 -75 -18 -41 -35 -75 -38 -75 -3 0 -19 12 -36 28
l-29 27 29 -37 c16 -21 32 -38 36 -38 4 0 24 32 43 70 19 39 39 70 43 70 4 0
22 -9 40 -20 41 -25 45 -25 90 5 23 15 51 25 73 25 32 0 41 6 75 49 l37 50 40
-20 c21 -11 40 -19 41 -17 1 2 12 26 25 53 12 28 29 59 37 69 14 19 15 19 49
-14 l34 -33 41 27 41 27 43 -20 44 -19 36 37 37 36 36 -21 37 -21 44 48 43 48
32 -19 c18 -11 35 -20 38 -20 4 0 21 23 39 50 18 28 36 50 41 50 5 0 27 -7 49
-16 40 -16 41 -16 59 7 61 78 52 73 95 53 42 -21 39 -23 95 54 19 27 20 27 49
10 l29 -18 38 63 c21 34 39 64 41 65 1 2 19 -14 39 -37 29 -32 44 -41 77 -43
38 -3 41 -6 57 -48 l17 -45 54 0 c55 0 55 0 80 -46 22 -40 28 -44 50 -38 59
17 66 13 85 -51 10 -33 20 -60 23 -60 2 0 28 14 57 30 l53 30 6 -37 c3 -21 8
-60 12 -86 7 -52 12 -53 76 -21 27 14 27 13 38 -23 5 -21 13 -55 16 -76 l7
-38 50 2 51 3 19 -58 19 -58 43 6 42 7 23 -60 c22 -55 27 -60 64 -68 39 -8 42
-11 64 -73 13 -36 27 -69 31 -73 5 -5 25 3 46 17 21 14 41 26 46 26 4 0 16
-24 27 -52 l20 -53 49 3 49 4 19 -62 19 -61 47 6 47 7 19 -59 20 -58 48 0 48
0 20 -57 21 -58 47 0 46 0 19 -52 c17 -47 22 -53 44 -49 69 12 72 10 94 -57
l20 -63 43 7 c38 6 44 4 52 -17 5 -13 15 -40 24 -60 l15 -36 50 7 50 6 15 -54
15 -54 -29 6 c-16 3 -42 9 -58 12 -26 6 -30 3 -41 -32 -7 -22 -15 -42 -19 -46
-3 -4 -29 11 -56 32 -28 22 -53 40 -56 40 -4 0 -12 -27 -19 -60 -7 -33 -17
-63 -21 -66 -5 -3 -22 2 -38 11 -44 22 -48 20 -68 -36 -15 -42 -21 -49 -38
-44 -64 18 -69 17 -93 -21 l-24 -36 -49 48 -48 48 -27 -58 -26 -58 -40 6 c-39
6 -39 6 -59 -39 -11 -25 -23 -45 -27 -45 -3 0 -27 20 -52 45 l-46 46 -24 -52
c-20 -42 -33 -55 -67 -70 -24 -10 -43 -22 -43 -26 -1 -4 -11 -21 -24 -37 l-24
-29 -37 23 -36 23 -33 -32 c-38 -37 -40 -37 -73 -11 -14 11 -29 20 -32 20 -4
0 -17 -20 -31 -45 -23 -42 -27 -45 -66 -45 -39 0 -44 -3 -69 -46 l-26 -45 -31
43 c-17 24 -34 47 -39 52 -4 5 -22 -37 -40 -93 l-32 -101 -34 20 c-43 25 -51
25 -79 -1 l-22 -20 -35 57 -35 57 -27 -61 c-15 -34 -32 -62 -37 -62 -5 0 -23
7 -39 16 -17 8 -32 14 -33 12 -2 -2 -15 -23 -29 -48 l-26 -44 -44 93 c-24 52
-46 90 -49 85 -3 -5 -20 -72 -39 -149 l-32 -140 -29 63 -28 64 -34 -21 c-18
-12 -36 -21 -38 -21 -3 0 -20 40 -38 90 -18 49 -36 90 -41 90 -4 0 -17 -13
-29 -30 -12 -16 -25 -30 -29 -30 -4 0 -19 25 -35 57 l-27 56 -35 -49 c-19 -27
-38 -50 -42 -52 -5 -1 -16 40 -27 92 -10 52 -21 100 -25 106 -5 8 -20 6 -49
-9 -23 -12 -46 -19 -50 -16 -5 2 -22 41 -37 85 -16 44 -31 80 -35 80 -3 0 -16
-11 -29 -25 -13 -14 -28 -25 -34 -25 -6 0 -28 28 -48 63 -21 34 -42 68 -46 75
-7 10 -17 9 -46 -9 -20 -12 -38 -20 -39 -18 -1 2 -17 35 -35 72 -35 74 -29 71
-99 51 -20 -6 -27 1 -54 60 l-31 66 -28 -15 c-16 -8 -33 -15 -37 -15 -5 0 -23
27 -41 60 -18 33 -38 62 -44 66 -5 4 -20 -3 -31 -15 l-21 -21 24 0 c19 0 35
-15 65 -56 22 -31 44 -58 48 -61 5 -3 19 4 31 16 l22 21 34 -70 c19 -39 35
-70 36 -70 1 0 20 7 43 15 l41 14 35 -69 c33 -66 36 -69 61 -60 47 18 59 12
97 -55 39 -68 49 -74 81 -50 34 25 43 17 72 -61 24 -66 30 -75 48 -70 12 2 32
8 46 11 25 6 27 3 61 -107 l35 -113 27 52 c15 28 31 54 36 58 6 3 27 -17 48
-45 35 -46 39 -49 50 -33 39 58 36 60 72 -36 32 -87 34 -90 58 -80 47 18 62
11 87 -40 24 -46 25 -61 32 -278 7 -240 5 -268 -38 -401 -11 -35 -24 -62 -28
-60 -5 2 -75 60 -157 129 -309 262 -660 532 -1378 1060 -671 494 -778 577
-798 614 -50 98 -58 231 -29 491 l17 151 69 -16 69 -16 25 -73 24 -74 48 47
48 47 24 -103 c14 -59 30 -103 36 -102 6 2 28 5 50 9 l39 6 29 -66 c31 -71 28
-70 95 -50 12 3 29 -15 59 -61 23 -36 45 -65 49 -65 4 0 16 7 27 15 10 8 22
15 25 15 4 0 21 -34 39 -75 29 -66 50 -94 50 -66 0 9 -69 163 -76 170 -2 3
-17 -8 -33 -23 l-30 -28 -41 82 -41 81 -35 -20 c-20 -12 -39 -19 -42 -17 -4 2
-23 36 -41 74 l-34 70 -40 -14 c-22 -8 -42 -14 -46 -14 -3 0 -17 50 -31 110
-14 60 -28 110 -32 110 -4 0 -21 -20 -38 -44 -16 -25 -34 -48 -39 -51 -6 -3
-20 26 -32 64 -24 75 -22 74 -111 86 -27 4 -48 10 -48 14 0 4 16 22 35 41 l34
33 42 -28 42 -27 33 38 32 39 35 -34 35 -33 42 76 42 76 32 -25 33 -25 38 55
c20 30 40 55 44 55 3 0 26 -12 50 -25 49 -28 48 -29 91 48 30 52 11 46 -23 -8
l-29 -45 -38 20 c-54 28 -64 26 -102 -21 l-35 -41 -32 16 c-17 9 -35 15 -39
12 -4 -2 -23 -36 -42 -75 l-34 -71 -25 23 c-57 51 -56 51 -85 7 l-27 -40 -37
25 c-20 14 -41 25 -47 25 -6 0 -32 -21 -57 -47 l-46 -48 -21 -210 c-24 -237
-25 -302 -10 -395 20 -125 23 -131 107 -180 176 -102 534 -354 882 -619 138
-105 879 -685 1301 -1019 l116 -91 99 25 c207 52 363 128 707 343 123 76 264
159 313 184 49 25 234 94 414 155 425 144 603 213 778 301 49 25 60 35 66 62
11 55 7 191 -9 279 -8 47 -15 89 -15 93 0 4 23 5 50 1 l50 -7 0 32 c0 17 2 31
5 31 3 0 40 -26 82 -57 l76 -57 -6 -73 -5 -73 98 -75 c73 -55 107 -75 130 -75
16 0 30 -3 30 -7 0 -5 -26 -27 -58 -50 -49 -35 -57 -46 -57 -73 0 -29 -5 -34
-49 -51 -27 -11 -51 -18 -53 -15 -3 2 -7 23 -10 45 -5 38 -9 42 -45 52 -39 10
-42 9 -97 -34 -31 -24 -83 -64 -115 -90 -53 -41 -60 -50 -60 -83 -1 -36 -2
-37 -76 -65 -41 -16 -76 -29 -77 -29 -2 0 -3 20 -3 44 0 43 0 43 -41 50 -45 7
-37 12 -189 -107 -59 -46 -76 -65 -80 -90 -5 -28 -13 -34 -90 -68 -51 -22 -86
-32 -87 -25 -1 6 -4 28 -8 48 -5 33 -10 39 -45 48 l-40 11 -112 -89 c-103 -80
-113 -92 -118 -126 -5 -37 -7 -39 -85 -71 l-80 -34 -3 45 c-3 38 -6 45 -30 50
-15 3 -35 8 -45 11 -11 3 -58 -27 -132 -84 -107 -82 -114 -90 -115 -123 0 -37
-5 -40 -181 -108 -4 -2 -9 14 -11 34 -3 35 -6 39 -44 50 l-40 12 -117 -91
c-97 -75 -117 -95 -117 -117 0 -24 -8 -30 -93 -63 -51 -20 -96 -37 -100 -37
-4 0 -7 20 -7 45 0 43 -1 44 -41 55 -24 7 -45 8 -52 2 -213 -161 -223 -171
-219 -205 4 -35 3 -35 -145 -94 -9 -4 -13 7 -13 37 0 56 -13 76 -55 84 -33 6
-43 1 -149 -81 l-115 -88 0 -46 -1 -46 -97 -40 -98 -41 -7 -88 c-9 -104 -6
-119 27 -158 25 -28 27 -28 88 -18 34 5 70 13 80 17 13 5 17 2 17 -12 0 -15
-19 -27 -84 -53 l-83 -34 -7 -65 c-11 -116 -8 -137 21 -171 26 -32 28 -32 96
-27 54 3 77 0 107 -14 l39 -19 118 46 c65 26 122 51 128 56 5 4 8 25 6 47 -2
38 -2 38 61 65 35 16 69 30 76 33 7 3 12 -3 12 -14 0 -12 13 -26 36 -37 l37
-17 129 52 130 52 -4 54 -3 55 90 38 90 39 3 -28 c2 -20 12 -32 38 -44 19 -10
40 -17 47 -17 7 0 67 22 133 48 l119 48 0 69 0 68 78 33 c44 19 83 34 88 34 5
0 9 -11 9 -23 0 -19 9 -28 41 -40 l41 -16 121 48 122 49 3 64 3 65 79 36 80
36 0 -29 c0 -24 6 -31 43 -44 l42 -17 120 49 120 48 5 68 5 67 78 35 c43 19
80 34 82 34 3 0 5 -17 5 -38 0 -36 3 -40 41 -55 l40 -16 125 51 124 51 0 77 0
77 63 27 c34 14 65 26 70 26 4 0 7 -15 7 -33 0 -30 5 -36 38 -51 l38 -17 125
49 124 50 1 73 1 73 42 20 c47 23 61 15 61 -35 0 -20 8 -30 38 -43 l38 -17
125 49 124 50 0 81 0 80 48 20 47 20 0 -49 c0 -48 1 -50 41 -70 l41 -21 128
51 129 52 -6 89 -6 89 65 29 c36 16 79 32 96 36 36 8 35 -2 22 153 -9 107 -11
115 -37 135 -72 57 -76 62 -65 84 8 14 30 24 72 33 l61 13 -6 76 c-3 42 -8
102 -11 133 l-6 56 -149 113 -149 113 0 66 0 65 -96 80 c-170 141 -152 130
-174 110 -13 -12 -20 -31 -20 -57 l0 -39 -100 76 -100 77 0 57 0 56 -77 65
c-43 35 -100 82 -126 104 l-49 41 -19 -24 c-10 -13 -19 -34 -19 -47 0 -13 -3
-24 -6 -24 -3 0 -43 30 -90 66 l-84 66 0 53 0 54 -126 106 c-121 101 -127 105
-145 89 -11 -9 -19 -30 -19 -46 0 -15 -2 -28 -5 -28 -3 0 -51 34 -105 75
l-100 76 0 57 -1 57 -127 107 c-126 106 -127 107 -144 86 -10 -11 -18 -31 -18
-44 0 -13 -5 -24 -10 -24 -6 0 -42 24 -80 52 l-70 52 0 58 0 57 -124 105 c-68
58 -127 106 -131 106 -15 0 -34 -36 -35 -62 0 -16 -3 -28 -7 -28 -3 0 -37 23
-75 52 l-68 52 0 51 0 50 -77 65 c-43 35 -99 82 -125 104 -46 38 -49 38 -67
22 -11 -10 -21 -29 -23 -43 -3 -24 -6 -23 -80 36 -76 60 -78 63 -78 105 0 44
0 44 -126 150 l-126 106 -18 -23 c-10 -12 -19 -30 -21 -39 -3 -13 -17 -6 -66
33 -60 47 -63 52 -63 93 0 43 0 43 -127 149 -127 106 -128 107 -145 86 -10
-12 -18 -30 -18 -41 0 -17 -3 -17 -35 8 -30 23 -35 32 -35 69 0 42 -1 43 -122
144 -68 55 -127 102 -133 104 -5 1 -17 -13 -26 -31 l-17 -33 -31 27 c-22 19
-31 34 -31 57 0 29 -14 43 -126 136 -121 100 -126 103 -144 86 -11 -10 -20
-26 -20 -35 0 -12 -19 -24 -62 -40 -33 -12 -71 -32 -83 -44 l-22 -22 -6 125
c-8 145 -28 271 -63 394 -4 13 1 17 19 17 42 0 67 30 88 105 10 38 26 76 34
84 8 9 48 31 88 51 l72 35 25 75 c27 80 29 82 138 128 18 8 32 19 32 26 0 18
-480 490 -701 689 -317 284 -660 564 -1011 824 l-136 101 -194 -68 c-106 -38
-200 -71 -208 -74 -13 -5 -16 2 -15 45 l0 51 -308 169 c-169 93 -311 169 -315
169 -4 0 -14 -4 -22 -9z m273 -176 c130 -71 233 -132 229 -135 -11 -10 -522
-203 -536 -203 -19 0 -497 255 -490 262 14 14 521 209 540 208 11 -1 127 -60
257 -132z m-584 -250 l261 -140 -2 -54 -3 -54 -100 -35 -100 -35 -167 73 -168
73 0 159 c0 88 4 158 9 156 4 -1 126 -66 270 -143z m1509 3 c540 -390 1053
-835 1425 -1236 224 -241 230 -249 215 -258 -7 -5 -31 -18 -53 -29 -36 -18
-42 -27 -65 -95 l-25 -75 -85 -45 c-85 -45 -85 -45 -121 -120 -41 -85 -61 -99
-149 -100 -30 0 -73 -8 -95 -16 -22 -8 -72 -26 -111 -38 -94 -30 -111 -43
-159 -123 -53 -88 -82 -103 -195 -103 l-85 0 -60 -65 c-34 -36 -69 -65 -79
-65 -9 0 -30 7 -47 15 -37 20 -47 14 -107 -60 l-49 -60 -56 2 c-55 2 -57 1
-117 -53 l-62 -55 -55 7 -55 7 -56 -56 c-66 -63 -78 -69 -112 -52 -61 30 -65
29 -140 -40 -39 -36 -76 -65 -81 -65 -5 0 -21 18 -35 40 -15 22 -32 40 -38 40
-6 0 -42 -30 -80 -66 l-68 -66 -57 2 c-31 1 -63 2 -72 1 -9 0 -37 -28 -62 -61
-52 -67 -66 -71 -127 -40 -64 33 -81 27 -133 -40 -26 -33 -53 -60 -59 -60 -7
0 -41 10 -76 22 l-64 23 -16 -21 c-9 -12 -29 -42 -44 -68 -30 -50 -49 -56
-118 -36 -30 8 -43 6 -98 -20 -35 -17 -71 -30 -80 -30 -9 0 -35 18 -57 40 -41
40 -44 41 -140 51 -114 12 -132 19 -150 63 -20 47 -33 54 -110 62 -39 4 -76
11 -83 17 -7 5 -21 29 -31 52 -23 53 -44 65 -113 65 -67 0 -102 17 -106 52 -5
39 -30 55 -105 66 -78 12 -91 20 -118 73 -22 44 -35 52 -125 80 -65 20 -65 20
-93 82 -35 79 -50 91 -99 83 -51 -8 -76 11 -92 71 -6 26 -16 60 -22 74 -9 26
-44 49 -73 49 -29 0 -64 23 -74 49 -5 14 -15 50 -21 79 -14 63 -31 74 -89 61
-64 -14 -74 -2 -65 85 l7 71 173 206 c441 526 679 756 934 902 25 14 439 164
920 332 481 169 988 347 1125 395 138 49 258 89 268 89 9 1 75 -40 145 -91z
m-590 25 l-3 -46 -95 -33 c-52 -17 -191 -66 -308 -107 l-213 -74 3 50 3 50
295 103 c162 56 301 103 308 103 9 1 12 -12 10 -46z m-1020 -314 c56 -24 102
-46 102 -49 0 -5 -168 -65 -217 -78 -10 -3 -13 20 -13 88 0 70 3 91 13 87 6
-2 58 -24 115 -48z m2786 -1716 c17 -86 37 -226 52 -363 19 -172 25 -589 10
-754 l-8 -98 -165 -79 c-91 -44 -169 -77 -174 -73 -5 3 -41 -13 -80 -35 -39
-23 -72 -41 -73 -41 -2 0 -6 78 -10 173 -15 400 -37 882 -41 885 -4 4 -614
-249 -619 -257 -1 -3 7 -220 20 -481 13 -261 23 -509 23 -550 l1 -75 -266
-125 c-146 -69 -268 -126 -272 -128 -4 -1 -6 49 -4 111 3 93 0 128 -17 191
-55 201 -149 294 -322 317 -190 26 -259 -2 -415 -164 -160 -166 -200 -243
-224 -428 -15 -122 12 -313 56 -402 13 -27 24 -50 24 -51 0 -5 -291 -139 -294
-135 -2 2 -7 327 -12 723 l-7 718 42 -7 c44 -7 55 1 132 97 l27 33 54 -23 c79
-33 90 -30 149 38 57 66 76 72 124 40 49 -32 67 -26 133 46 54 59 64 66 89 60
94 -21 85 -24 162 55 l72 74 38 -44 38 -45 28 18 c16 10 47 35 69 56 59 54 76
61 106 44 40 -22 54 -17 125 41 66 55 67 55 119 49 52 -6 53 -6 111 45 56 49
60 51 117 51 64 0 67 2 145 93 35 41 56 45 107 20 34 -16 37 -16 57 3 12 10
34 38 51 61 39 58 59 67 165 73 106 6 124 17 175 107 38 68 75 98 138 113 28
7 72 20 98 31 26 10 68 18 94 19 43 0 47 -2 52 -27z m-4381 -378 c12 -3 45 -6
72 -7 l50 -3 20 -61 c26 -79 36 -90 98 -104 94 -22 116 -36 137 -83 27 -60 39
-68 112 -74 83 -7 98 -16 98 -57 0 -40 4 -42 109 -51 44 -4 85 -13 89 -19 11
-13 33 -78 29 -82 -2 -2 -151 73 -332 166 -312 160 -330 168 -336 147 -4 -12
-14 -157 -23 -322 -19 -343 -23 -382 -39 -366 -6 6 -15 11 -19 11 -4 0 -8 -58
-8 -129 l0 -129 446 -241 c246 -133 448 -240 451 -237 3 2 15 53 28 113 20 92
21 109 9 116 -8 4 -26 18 -40 30 l-26 23 31 354 c17 195 31 358 31 362 0 4
-31 24 -70 43 -38 19 -70 37 -70 38 0 2 33 -1 73 -5 57 -8 77 -14 95 -34 12
-14 22 -32 22 -39 0 -25 42 -43 125 -55 111 -16 136 -25 175 -65 39 -41 51
-42 127 -15 32 11 59 20 62 20 2 0 1 -93 -3 -207 -3 -115 -6 -434 -6 -710 -1
-281 -5 -503 -9 -503 -5 0 -40 17 -78 39 -37 21 -203 111 -368 201 -369 200
-491 270 -666 381 -148 93 -341 229 -401 282 l-38 32 -1 115 c0 63 0 129 0
145 1 17 -4 107 -10 200 -10 166 -5 666 8 790 6 56 7 58 15 28 6 -22 16 -34
31 -38z m4808 -87 c107 -96 80 -104 -36 -12 -59 47 -82 70 -73 76 21 13 23 11
109 -64z m2069 -1683 c1218 -928 2222 -1694 2230 -1701 10 -10 11 -17 4 -24
-7 -7 -718 525 -2240 1676 -1226 927 -2238 1692 -2248 1700 -19 13 -19 14 -1
34 11 12 22 17 29 11 6 -4 1008 -768 2226 -1696z m-3017 1538 c4 -87 9 -295
12 -463 3 -168 8 -326 11 -352 4 -40 2 -49 -17 -58 -11 -7 -22 -10 -25 -8 -2
2 -19 203 -38 447 -19 244 -36 445 -38 447 -3 2 -86 -33 -187 -79 l-182 -82 5
-90 c4 -49 11 -207 16 -350 5 -143 13 -312 16 -375 l6 -116 -27 -12 c-15 -7
-29 -11 -30 -10 -2 2 -10 210 -19 463 -9 253 -18 485 -21 515 l-4 55 252 112
c139 61 255 112 258 112 3 1 9 -70 12 -156z m2957 -1611 l2244 -1707 -3 -55
c-1 -30 -4 -57 -7 -59 -2 -2 -22 8 -44 23 -34 22 -40 31 -40 61 0 21 -6 38
-14 41 -14 5 -66 7 -101 2 -13 -1 -739 545 -2171 1635 l-2151 1637 15 65 c9
36 18 65 21 64 3 0 1016 -768 2251 -1707z m-3056 1163 c14 -231 28 -430 29
-441 3 -19 -17 -31 -154 -97 l-157 -74 -6 71 c-15 183 -38 830 -30 833 5 2 72
32 149 67 77 35 141 63 142 62 1 0 13 -190 27 -421z m-3202 224 c205 -105 377
-195 382 -199 8 -8 -40 -614 -52 -658 -6 -19 -10 -21 -23 -10 -15 12 -14 39 2
313 10 165 18 317 18 337 l1 37 -327 161 c-179 88 -328 158 -331 156 -2 -3
-10 -150 -18 -328 -7 -178 -13 -324 -14 -325 0 -2 -11 3 -25 9 -29 13 -29 4
-15 293 13 272 21 405 26 405 2 0 171 -86 376 -191z m4609 111 c113 -102 87
-111 -36 -13 -63 51 -81 71 -73 80 6 7 13 13 15 13 3 0 45 -36 94 -80z m-521
-96 c0 -7 -28 -22 -62 -33 -34 -12 -72 -31 -85 -43 l-23 -21 0 40 c0 22 3 74
6 115 l7 75 78 -60 c44 -33 79 -66 79 -73z m-4199 -47 l67 -37 -4 -42 c-12
-147 -17 -179 -23 -176 -4 2 -56 26 -114 53 l-107 50 0 40 c0 22 3 77 7 122
l6 83 51 -29 c28 -15 81 -44 117 -64z m-714 48 c4 -14 -159 -135 -182 -135
-27 0 -15 13 70 83 76 63 104 75 112 52z m53 -33 c0 -25 -7 -31 -77 -60 -42
-17 -78 -30 -80 -28 -3 2 148 115 155 116 1 0 2 -13 2 -28z m4978 -46 c35 -27
61 -50 58 -53 -6 -6 -145 99 -145 111 -1 5 5 4 12 -1 6 -5 40 -31 75 -57z
m498 42 l19 -21 -27 18 c-29 18 -34 25 -20 25 5 0 17 -10 28 -22z m1430 -1582
c1380 -1053 2051 -1571 2043 -1577 -7 -4 -18 -5 -24 -1 -13 8 -4107 3101
-4119 3113 -12 11 13 41 30 37 8 -2 939 -709 2070 -1572z m-1165 1444 c112
-100 88 -109 -34 -13 -67 52 -84 70 -75 80 6 7 13 13 15 13 3 0 45 -36 94 -80z
m-4929 48 l40 -23 -7 -111 c-9 -139 -4 -147 105 -198 l80 -38 0 -49 c0 -27 -3
-49 -7 -49 -5 0 -45 20 -89 43 -97 51 -124 48 -124 -12 0 -20 -3 -66 -6 -103
l-7 -67 -38 20 -39 19 7 103 c8 135 3 142 -139 213 l-108 54 0 40 c0 22 2 40
5 40 2 0 53 -23 112 -50 81 -38 114 -49 135 -45 l28 7 0 114 c0 63 3 114 6
114 4 0 24 -10 46 -22z m-793 -2 c9 -10 8 -15 -1 -19 -7 -3 -323 -139 -703
-302 -379 -163 -1075 -463 -1545 -665 -470 -202 -881 -379 -913 -393 l-57 -26
-15 29 c-15 29 -15 30 17 43 18 8 379 161 803 340 424 179 1132 479 1575 666
443 187 810 341 816 341 6 0 17 -6 23 -14z m5504 -557 c413 -315 756 -576 762
-581 6 -5 -1 -18 -20 -33 -17 -13 -32 -24 -35 -25 -3 0 -13 28 -23 61 l-18 61
-44 -6 c-42 -7 -44 -5 -76 34 -29 36 -37 40 -76 40 -44 0 -44 1 -69 55 -26 56
-35 62 -77 46 -21 -8 -30 -4 -68 35 -39 40 -45 43 -56 28 -9 -12 -16 -14 -25
-7 -7 6 -211 160 -453 343 -242 183 -459 348 -481 367 l-42 33 16 60 c9 33 20
60 24 60 4 0 347 -257 761 -571z m-6003 531 c13 -9 13 -11 0 -19 -8 -5 -51
-36 -94 -69 -69 -52 -107 -67 -106 -43 1 7 170 141 179 141 3 0 13 -5 21 -10z
m5589 -21 c13 -11 21 -23 17 -26 -4 -4 -19 5 -34 20 -31 31 -19 36 17 6z
m-5024 -31 c-9 -34 -20 -47 -50 -61 -21 -10 -410 -183 -864 -384 -454 -201
-1073 -474 -1376 -608 -302 -134 -647 -286 -765 -339 -189 -83 -217 -93 -235
-82 -11 7 -21 22 -23 32 -6 43 40 70 348 202 168 72 904 390 1635 706 732 317
1333 576 1336 576 4 0 1 -19 -6 -42z m-515 -2 c0 -33 -2 -34 -90 -71 -50 -21
-93 -35 -96 -32 -3 3 24 27 62 54 37 26 76 56 88 65 30 25 36 22 36 -16z
m1400 -3 l70 -38 0 -102 c0 -61 -4 -103 -10 -103 -5 0 -43 17 -84 37 -67 33
-74 39 -71 62 2 14 7 61 11 104 3 42 8 77 10 77 3 0 36 -17 74 -37z m4229 -34
c13 -11 21 -22 19 -25 -3 -3 -19 6 -34 20 -34 30 -20 35 15 5z m-5079 -110 l0
-82 -21 27 c-16 21 -24 24 -39 16 -28 -15 -30 -13 -30 34 0 41 3 46 38 64 20
11 40 20 45 21 4 0 7 -36 7 -80z m5280 -51 c0 -7 -4 -7 -12 -1 -7 5 -41 31
-75 57 -35 26 -63 52 -63 57 0 5 34 -16 75 -47 41 -31 75 -61 75 -66z m435
102 c10 -11 14 -20 8 -20 -5 0 -18 9 -28 20 -10 11 -14 20 -8 20 5 0 18 -9 28
-20z m-6745 -20 c13 -9 13 -11 0 -19 -8 -5 -51 -36 -94 -69 -69 -52 -107 -67
-106 -43 1 7 170 141 179 141 3 0 13 -5 21 -10z m910 -49 l0 -48 -87 -37 c-49
-20 -90 -36 -93 -36 -3 0 -4 19 -4 42 l1 42 89 42 c49 23 90 43 92 43 1 1 2
-21 2 -48z m-867 -51 c-21 -19 -174 -77 -179 -68 -8 13 0 20 99 93 l82 61 3
-39 c2 -22 0 -43 -5 -47z m187 80 c0 -5 -4 -10 -10 -10 -5 0 -10 5 -10 10 0 6
5 10 10 10 6 0 10 -4 10 -10z m1267 -77 l102 -48 1 -41 c0 -23 -3 -69 -6 -102
l-7 -61 -40 21 c-23 11 -68 31 -101 43 l-61 23 -3 106 c-1 58 1 106 5 106 4 0
54 -21 110 -47z m5636 -125 c29 -25 30 -27 10 -28 -21 0 -183 123 -183 140 0
24 31 12 83 -34 32 -28 73 -63 90 -78z m-750 94 c29 -25 19 -34 -13 -10 -16
12 -30 26 -30 30 0 10 16 2 43 -20z m-5693 -22 c0 -29 -5 -42 -19 -50 -11 -5
-22 -10 -25 -10 -12 0 -6 88 7 93 30 13 37 6 37 -33z m5186 -21 l64 -51 0 -69
c0 -38 -3 -69 -6 -69 -3 0 -34 24 -69 53 l-64 52 0 68 c-1 37 2 67 5 67 3 0
35 -23 70 -51z m-4907 7 c-2 -2 -139 -63 -304 -134 -263 -114 -301 -128 -312
-115 -11 14 -14 12 -24 -10 -9 -19 -38 -37 -119 -72 -70 -30 -116 -45 -129
-40 -14 4 -23 0 -30 -13 -6 -11 -23 -25 -38 -30 -16 -6 -131 -56 -258 -111
-207 -90 -231 -98 -246 -85 -15 14 -19 12 -35 -15 -16 -28 -75 -61 -114 -65
-8 -1 -26 -9 -40 -18 -14 -9 -45 -24 -70 -33 -25 -9 -54 -21 -65 -27 -41 -23
-339 -148 -352 -148 -7 0 -17 9 -23 20 -10 18 -7 22 22 35 18 7 501 212 1073
454 903 382 1042 438 1054 426 8 -8 13 -16 10 -19z m-351 -17 c-3 -39 -6 -43
-50 -60 -41 -16 -47 -16 -52 -3 -15 40 -6 60 37 81 62 32 69 30 65 -18z m5872
-31 c0 -12 -8 -10 -35 8 -36 23 -31 39 5 17 17 -9 30 -21 30 -25z m511 25 c13
-16 12 -17 -3 -4 -10 7 -18 15 -18 17 0 8 8 3 21 -13z m-7196 1 c13 -5 14 -8
3 -15 -19 -13 -28 -11 -28 6 0 17 2 18 25 9z m668 -94 c-8 -7 -159 -70 -168
-70 -3 0 -5 17 -5 38 l0 38 88 40 87 40 3 -39 c2 -22 0 -43 -5 -47z m567 83
c0 -5 -4 -24 -10 -43 -9 -35 -13 -37 -290 -158 -154 -67 -289 -122 -299 -122
-16 0 -59 47 -49 54 12 9 625 275 636 275 6 1 12 -2 12 -6z m-1505 -13 c7 -12
-164 -140 -187 -140 -10 0 -18 3 -18 8 1 11 171 142 186 142 7 0 16 -4 19 -10z
m7506 -7 c13 -16 12 -17 -3 -4 -10 7 -18 15 -18 17 0 8 8 3 21 -13z m-7468
-83 c-4 -4 -45 -23 -90 -43 -56 -23 -83 -31 -83 -22 0 7 39 42 88 78 l87 66 3
-36 c2 -20 0 -39 -5 -43z m2355 -5 c5 -5 2 -218 -3 -223 -2 -2 -40 17 -84 43
-91 52 -86 41 -75 178 l7 75 75 -34 c42 -19 78 -37 80 -39z m5157 55 c10 -11
16 -20 13 -20 -3 0 -13 9 -23 20 -10 11 -16 20 -13 20 3 0 13 -9 23 -20z
m-482 -45 c36 -27 66 -56 67 -62 0 -14 -142 92 -149 109 -6 16 11 7 82 -47z
m-4943 -175 c442 -239 421 -223 388 -296 l-13 -31 -405 208 c-222 114 -406
212 -408 218 -5 15 18 121 26 121 4 0 189 -99 412 -220z m4350 198 c26 -19 30
-28 30 -71 0 -46 -1 -49 -22 -43 -13 3 -29 6 -35 6 -9 0 -13 20 -13 65 0 36 2
65 5 65 3 0 19 -10 35 -22z m-2665 -20 c-91 -49 -221 -184 -267 -279 -63 -128
-83 -215 -82 -359 0 -108 4 -135 26 -198 57 -159 148 -250 270 -268 23 -4 50
-11 58 -15 9 -6 -3 -6 -30 -3 -177 25 -297 137 -347 324 -21 82 -24 291 -4
370 40 161 203 364 346 431 82 39 105 36 30 -3z m286 11 c118 -30 212 -164
239 -343 20 -135 -8 -283 -85 -442 -36 -74 -57 -103 -118 -161 -178 -169 -372
-190 -507 -54 -163 163 -181 428 -50 709 70 149 227 278 366 301 50 9 91 6
155 -10z m3549 -31 c0 -12 -14 -10 -28 4 -19 19 -14 29 8 16 11 -7 20 -16 20
-20z m-6936 -65 c-9 -7 -20 -10 -24 -8 -12 7 2 70 19 83 14 12 16 9 19 -25 3
-26 -2 -41 -14 -50z m5013 44 l32 -42 -53 -27 c-30 -15 -204 -98 -386 -184
l-333 -156 -63 29 c-35 15 -64 30 -64 33 0 6 812 390 825 390 6 -1 24 -20 42
-43z m-5067 -28 c0 -38 -2 -41 -46 -60 -25 -12 -47 -19 -50 -17 -2 3 -6 18
-10 34 -5 27 -2 31 48 56 29 15 54 27 56 27 1 1 2 -17 2 -40z m728 -75 l-3
-67 -85 -38 c-47 -21 -88 -38 -92 -38 -5 -1 -8 29 -8 67 l0 67 83 37 c45 20
88 37 95 37 10 1 12 -16 10 -65z m-858 18 l0 -39 -95 -40 -95 -41 0 37 0 38
93 41 c50 22 93 41 95 41 1 1 2 -16 2 -37z m6681 19 c13 -11 20 -23 16 -27 -4
-4 -20 4 -35 19 -30 31 -16 37 19 8z m-7711 -1 c18 -11 21 -7 -85 -85 -50 -36
-94 -61 -102 -58 -8 3 -11 9 -6 14 21 20 169 139 173 139 3 0 12 -4 20 -10z
m305 0 c3 -5 -1 -10 -9 -10 -9 0 -16 5 -16 10 0 6 4 10 9 10 6 0 13 -4 16 -10z
m6896 -41 l69 -51 0 -65 c0 -74 8 -75 -87 5 -50 42 -51 44 -55 102 -1 33 -1
60 1 60 2 0 34 -23 72 -51z m-7141 -23 l0 -43 -82 -38 c-46 -20 -89 -39 -95
-42 -8 -3 -13 3 -13 18 0 19 21 38 88 86 48 34 90 62 95 63 4 0 7 -20 7 -44z
m6255 10 c4 -19 5 -41 3 -50 -2 -11 -144 -84 -396 -203 -216 -102 -395 -184
-397 -181 -2 2 -5 27 -7 56 l-3 52 390 180 c215 99 393 180 397 180 4 0 10
-15 13 -34z m2242 -124 c-14 -3 -103 59 -171 119 -5 5 -4 14 3 23 11 13 25 5
99 -62 64 -57 82 -78 69 -80z m-7196 73 c31 -51 36 -55 72 -55 39 0 61 -15
103 -74 20 -27 22 -28 58 -16 21 6 39 10 40 8 2 -1 21 -31 44 -64 l41 -61 42
7 41 8 37 -60 c34 -56 37 -59 69 -53 18 3 39 8 47 11 8 4 26 -18 50 -60 37
-66 37 -66 81 -66 41 0 46 -3 80 -50 34 -48 38 -50 82 -50 46 0 48 -1 82 -55
23 -35 40 -53 50 -50 8 2 32 7 53 11 l37 6 27 -58 c14 -33 27 -61 29 -62 1 -2
24 6 50 17 26 12 48 20 50 18 2 -1 16 -34 33 -72 29 -68 30 -70 77 -82 27 -7
53 -18 59 -26 47 -62 57 -70 102 -78 38 -7 55 -18 83 -50 l36 -42 53 28 c36
18 56 23 60 16 4 -6 15 -43 25 -82 l19 -70 39 3 c41 2 44 0 112 -94 11 -16 17
-16 59 -3 l46 14 36 -65 c27 -47 41 -64 53 -60 71 19 68 20 105 -47 l35 -62
45 3 c43 4 44 3 77 -48 19 -29 51 -65 71 -80 l38 -27 -32 -18 c-18 -9 -49 -42
-70 -71 l-38 -55 -35 22 -36 22 -37 -37 c-28 -27 -45 -36 -72 -36 -27 0 -43
-8 -70 -36 -30 -31 -38 -35 -70 -30 -31 5 -40 1 -70 -30 l-34 -35 -40 46 -41
46 -33 -80 -33 -81 -39 0 c-32 0 -45 -7 -73 -37 l-35 -38 -38 37 -39 38 -38
-70 c-35 -66 -39 -70 -73 -70 -24 0 -47 -9 -73 -30 -25 -20 -49 -30 -72 -30
-26 0 -43 -9 -72 -39 -38 -39 -40 -40 -68 -25 -33 17 -57 12 -83 -16 -25 -27
-37 -25 -60 10 -11 16 -23 30 -27 30 -3 0 -25 -29 -47 -65 -39 -62 -43 -65
-80 -65 -35 0 -45 -7 -110 -75 -68 -72 -73 -75 -106 -69 -31 5 -41 1 -81 -31
-25 -20 -46 -36 -48 -34 -2 2 -15 24 -30 47 -15 24 -29 42 -31 40 -2 -1 -17
-40 -35 -86 l-32 -83 -35 7 c-30 6 -39 2 -67 -25 l-32 -31 -34 70 c-19 38 -37
70 -41 70 -4 0 -25 -20 -47 -45 l-40 -45 -32 41 c-32 39 -34 40 -79 34 l-47
-6 -34 50 c-22 33 -42 51 -55 51 -53 1 -63 11 -91 88 -15 43 -28 78 -29 80 -2
1 -26 -6 -54 -18 -28 -11 -55 -20 -60 -20 -4 0 -18 23 -31 50 -23 50 -24 50
-71 50 -47 0 -47 1 -78 54 -28 51 -33 54 -78 61 -45 6 -51 10 -76 54 l-26 48
-47 -7 -46 -7 -30 62 c-28 57 -35 64 -77 77 -46 14 -46 14 -75 96 l-28 81 -50
-25 c-27 -14 -51 -24 -52 -22 -1 2 -13 19 -26 38 -31 45 -35 47 -92 55 l-48 7
-21 70 c-21 67 -23 70 -48 64 -92 -21 -85 -24 -101 41 -16 62 -21 65 -82 49
-23 -7 -30 -2 -63 42 -32 42 -46 52 -95 67 -51 15 -60 22 -76 56 -15 34 -23
41 -75 55 -54 15 -59 19 -78 64 -21 49 -40 59 -110 60 -21 1 -30 9 -46 43 -18
37 -26 43 -70 54 -37 9 -58 22 -82 50 -39 46 -41 55 -8 47 21 -5 27 -1 41 30
21 42 36 48 87 37 37 -9 38 -8 58 30 20 40 20 40 68 33 47 -6 48 -6 71 31 23
37 24 37 74 32 49 -6 50 -6 18 6 l-33 13 34 12 c42 15 50 15 42 0 -4 -7 0 -4
9 6 8 10 17 24 19 30 2 7 17 7 49 0 l46 -11 28 74 27 75 42 -42 43 -42 28 36
c27 34 31 36 72 30 38 -6 47 -3 72 21 17 16 43 29 67 32 33 4 44 12 67 49 31
49 33 50 80 30 l32 -13 28 48 c15 27 29 49 30 49 2 0 20 -7 39 -15 20 -8 38
-15 41 -15 2 0 18 25 35 55 l31 55 37 -24 36 -25 38 29 c24 20 48 30 71 30 26
0 42 8 69 36 29 30 39 35 69 31 29 -3 42 2 73 29 26 24 47 34 71 34 29 0 37 6
67 55 l34 55 35 -24 35 -24 33 29 c22 20 43 29 67 29 30 0 40 7 72 50 20 27
40 47 43 45 4 -3 22 -29 41 -60z m6491 -1 c15 -10 28 -25 28 -32 0 -7 -27 8
-60 34 -62 48 -86 86 -27 42 17 -13 44 -33 59 -44z m-6192 -5 c0 -36 -2 -40
-22 -37 -30 4 -37 47 -12 65 28 21 34 16 34 -28z m-872 -50 c-25 -16 -38 -9
-38 20 0 20 8 35 23 46 22 15 22 15 25 -21 2 -23 -2 -40 -10 -45z m7737 -47
c-6 -7 -155 107 -155 119 0 5 36 -19 80 -53 44 -34 78 -63 75 -66z m-7795 55
c0 -32 -4 -36 -62 -61 -35 -14 -66 -26 -70 -26 -5 0 -8 15 -8 33 0 30 4 34 63
59 34 14 65 27 70 27 4 1 7 -14 7 -32z m6613 8 c20 -18 27 -33 27 -60 0 -33
-2 -35 -35 -35 l-35 0 0 60 c0 33 3 60 8 60 4 0 19 -12 35 -25z m653 -71 c65
-50 87 -74 69 -74 -11 0 -155 113 -155 121 0 16 12 10 86 -47z m-8166 16 c0
-7 -24 -20 -36 -20 -2 0 -4 9 -4 19 0 14 5 18 20 14 11 -3 20 -9 20 -13z
m-314 -15 c5 -13 -165 -135 -188 -135 -10 0 -18 2 -18 5 0 2 39 36 88 75 81
66 111 79 118 55z m1044 -14 c0 -16 -6 -31 -12 -34 -7 -3 -50 -21 -95 -41
l-83 -35 0 32 c0 31 4 34 83 69 45 20 88 37 95 37 7 1 12 -11 12 -28z m-997
-91 c-4 -4 -47 -23 -95 -43 -87 -36 -88 -36 -88 -14 0 17 23 40 93 90 l92 67
3 -46 c2 -26 0 -50 -5 -54z m9025 88 c7 -7 12 -18 12 -25 0 -11 -4 -11 -20 -1
-11 7 -20 18 -20 25 0 16 12 17 28 1z m-1061 -56 c28 -24 30 -29 17 -46 -12
-16 -18 -18 -39 -8 -20 9 -25 19 -25 47 0 42 5 43 47 7z m-7209 -73 c-22 -14
-28 -10 -28 21 0 17 7 33 18 39 14 8 17 5 20 -21 2 -18 -2 -34 -10 -39z m7827
30 c4 -6 4 -13 1 -16 -7 -7 -46 26 -46 39 0 10 36 -8 45 -23z m-2685 -74 c6
-22 13 -48 16 -57 5 -16 -2 -15 -61 7 -36 14 -67 25 -68 25 -3 0 4 93 8 107 3
9 18 4 50 -15 35 -21 47 -35 55 -67z m-5200 45 c0 -16 -2 -30 -4 -30 -2 0 -41
-16 -86 -35 l-81 -35 3 31 c3 29 10 35 78 65 41 18 78 34 83 34 4 0 7 -13 7
-30z m8665 -60 c88 -77 102 -96 60 -80 -37 14 -176 130 -169 141 11 18 32 7
109 -61z m-660 -1 c36 -28 65 -55 65 -60 0 -12 -11 -6 -83 50 -50 38 -69 61
-52 61 3 0 35 -23 70 -51z m-8925 11 c0 -11 -39 -24 -47 -16 -3 3 -3 12 0 20
6 15 47 11 47 -4z m713 -61 c-7 -6 -169 -79 -178 -79 -1 0 0 14 4 31 5 27 16
35 91 68 l85 38 3 -25 c2 -13 0 -28 -5 -33z m8841 4 c37 -27 65 -56 66 -66 0
-13 -20 -2 -80 44 -44 34 -80 66 -80 72 0 14 24 2 94 -50z m-9884 27 c0 -17
-178 -140 -194 -134 -11 4 9 25 75 79 80 65 119 83 119 55z m50 -52 l0 -43
-89 -37 c-101 -43 -101 -43 -101 -24 0 13 164 143 183 145 4 1 7 -18 7 -41z
m9378 -59 c64 -48 93 -79 74 -79 -13 0 -152 110 -152 121 0 15 8 11 78 -42z
m-8610 4 c-4 -36 -38 -45 -38 -10 0 27 7 37 27 37 10 0 13 -9 11 -27z m9188
-1 c12 -8 26 -52 16 -52 -16 1 -42 28 -42 44 0 17 8 20 26 8z m-9251 -23 c4
-11 5 -22 3 -24 -7 -6 -150 -65 -159 -65 -5 0 -9 10 -9 23 0 18 14 28 73 54
88 38 84 38 92 12z m8521 -63 l45 -35 -30 -15 c-42 -22 -48 -20 -54 17 -3 17
-8 40 -12 50 -10 25 1 21 51 -17z m-8169 18 c-3 -3 -12 -4 -19 -1 -8 3 -5 6 6
6 11 1 17 -2 13 -5z m-1293 -13 c3 -5 -3 -11 -14 -14 -13 -3 -20 0 -20 9 0 15
26 19 34 5z m739 -51 c-7 -7 -141 -65 -167 -72 -5 -2 -10 7 -12 18 -3 18 10
27 89 62 88 39 92 40 95 20 2 -11 0 -24 -5 -28z m9012 24 c14 -9 25 -23 25
-31 0 -11 -7 -9 -30 7 -46 33 -41 54 5 24z m-8836 -31 c-9 -29 -32 -40 -342
-173 -183 -78 -352 -152 -377 -163 -132 -59 -123 -57 -154 -32 l-28 22 134 56
c539 228 773 325 775 323 2 -2 -2 -16 -8 -33z m261 22 c-7 -8 -18 -15 -24 -15
-6 0 -2 7 8 15 25 19 32 19 16 0z m8423 -74 c34 -26 571 -434 1192 -906 622
-471 1134 -861 1139 -866 6 -6 6 -13 -2 -21 -7 -7 -12 -20 -12 -30 0 -10 -14
-25 -31 -33 -28 -15 -33 -15 -55 0 -13 8 -24 24 -24 34 0 19 -18 31 -49 31 -9
0 -171 118 -360 263 l-344 262 -21 58 c-17 50 -23 57 -41 52 -68 -19 -68 -19
-99 39 -27 53 -30 56 -67 56 -36 0 -40 3 -71 60 -32 58 -34 59 -68 54 -33 -5
-36 -3 -63 44 -24 44 -32 51 -67 57 -35 6 -43 13 -70 61 -29 50 -34 54 -69 54
-36 0 -38 2 -66 61 l-30 61 -37 -6 c-38 -6 -38 -6 -65 49 -23 46 -31 55 -54
55 -45 0 -59 10 -86 64 -14 28 -27 53 -29 55 -2 2 -19 -8 -38 -23 -19 -14 -41
-23 -49 -20 -8 3 -25 33 -39 67 -21 55 -29 64 -69 83 -35 17 -49 31 -61 63
-14 36 -21 41 -56 47 -34 5 -42 12 -60 49 -18 37 -28 45 -68 57 -42 12 -48 17
-65 63 -10 28 -19 51 -19 53 0 8 17 -3 73 -47z m961 -35 c104 -94 76 -101 -39
-10 -67 53 -82 70 -74 80 14 17 17 15 113 -70z m-683 23 c32 -23 59 -48 59
-55 0 -8 -1 -14 -3 -14 -9 0 -113 83 -120 95 -13 24 1 18 64 -26z m-8841 27
c0 -3 -4 -8 -10 -11 -5 -3 -10 -1 -10 4 0 6 5 11 10 11 6 0 10 -2 10 -4z
m-537 -63 c-16 -13 -18 -12 -21 8 -3 14 4 28 15 36 16 13 18 12 21 -8 3 -14
-4 -28 -15 -36z m10020 -27 c37 -28 67 -56 67 -64 0 -10 -11 -6 -37 13 -79 59
-123 97 -123 106 0 12 10 7 93 -55z m-10075 19 c-3 -14 -145 -85 -170 -85 -4
0 -8 8 -8 18 0 14 23 30 88 59 85 39 97 40 90 8z m436 0 c-7 -17 -20 -20 -28
-6 -4 5 0 12 6 14 23 9 28 7 22 -8z m-1055 -14 c12 -8 12 -15 -3 -45 -13 -27
-15 -48 -10 -82 6 -45 6 -46 -17 -39 -49 14 -59 49 -37 130 12 46 33 57 67 36z
m10268 -104 c29 -19 44 -47 27 -47 -15 0 -144 106 -144 118 0 9 16 2 43 -18
23 -18 57 -42 74 -53z m-9857 34 c0 -17 -46 -42 -166 -88 -9 -3 -14 2 -14 14
0 14 21 28 83 55 97 43 97 43 97 19z m10420 -42 c0 -17 -3 -18 -20 -9 -11 6
-20 20 -20 31 0 17 3 18 20 9 11 -6 20 -20 20 -31z m-10047 0 c-6 -6 -19 -9
-29 -6 -17 3 -16 5 6 14 28 12 39 8 23 -8z m-593 -54 c0 -21 -28 -31 -43 -16
-9 9 -8 14 3 21 22 14 40 12 40 -5z m454 0 c-4 -8 -16 -15 -28 -15 -21 1 -21
1 -2 15 25 19 37 19 30 0z m9726 -20 c13 -14 21 -28 18 -31 -9 -9 -58 27 -58
42 0 21 14 17 40 -11z m-10171 -65 c92 -81 104 -95 70 -85 -22 7 -72 42 -153
108 -27 22 -30 47 -5 47 5 0 45 -32 88 -70z m301 20 c-11 -20 -40 -28 -40 -12
0 7 32 27 48 31 1 1 -2 -8 -8 -19z m-452 -48 l-3 -30 -24 19 c-23 19 -23 20
-6 39 23 25 38 13 33 -28z m10450 -2 c35 -26 62 -53 62 -63 0 -14 -16 -6 -69
35 -39 29 -70 59 -70 66 -1 18 5 15 77 -38z m-10330 -20 l61 -45 0 -135 c0
-201 -17 -801 -22 -807 -3 -2 -35 19 -71 49 l-66 53 0 321 c0 408 9 626 25
616 6 -4 39 -27 73 -52z m285 -14 c27 -52 31 -55 85 -68 50 -12 60 -19 79 -53
21 -39 24 -40 85 -45 l62 -5 16 -55 16 -54 56 -14 c51 -12 58 -18 79 -57 21
-40 27 -44 80 -55 52 -11 60 -17 95 -65 l38 -53 40 14 c46 17 49 14 68 -59
l12 -48 56 6 55 6 25 -63 c24 -59 28 -63 75 -81 28 -10 54 -25 58 -33 4 -8 18
-26 30 -40 l22 -25 48 21 c27 12 52 19 55 15 4 -3 16 -38 27 -78 l20 -71 48
-14 c44 -12 50 -18 77 -73 l30 -59 48 0 c44 0 50 -3 78 -39 29 -40 49 -51 91
-51 15 0 35 -17 63 -55 32 -43 47 -55 68 -55 51 0 68 -11 95 -61 16 -27 30
-49 31 -49 2 0 25 12 50 26 26 15 48 25 50 23 2 -2 15 -39 31 -81 16 -46 34
-79 44 -82 9 -2 28 -7 44 -10 17 -4 40 -24 63 -55 33 -47 36 -49 67 -40 48 14
50 13 85 -51 18 -33 36 -60 40 -60 4 0 23 28 42 61 l35 61 37 -79 c30 -62 39
-98 48 -175 11 -105 14 -238 4 -238 -3 0 -45 30 -94 68 l-89 67 -1 50 0 50
-124 103 c-69 56 -128 102 -132 102 -13 0 -33 -35 -34 -58 0 -20 -7 -17 -80
35 l-79 58 -1 52 0 52 -126 106 c-121 103 -126 106 -145 89 -10 -9 -19 -30
-19 -46 l0 -29 -72 54 -72 53 2 44 3 45 -126 105 c-70 58 -131 105 -136 105
-8 0 -31 -32 -45 -63 -1 -2 -34 20 -73 49 -69 50 -71 53 -71 95 0 43 0 43
-126 149 -69 58 -130 105 -135 105 -4 0 -16 -12 -26 -27 -9 -16 -18 -29 -19
-31 -1 -2 -30 18 -63 44 -57 44 -61 50 -61 88 0 41 -2 43 -124 145 -68 57
-127 104 -132 103 -4 0 -15 -13 -24 -30 l-17 -30 -31 20 c-28 17 -32 26 -32
62 0 41 -2 43 -116 136 -63 52 -129 99 -145 103 -29 7 -29 9 -29 77 0 39 3 70
8 70 4 0 20 -24 35 -54z m-75 -8 c-2 -41 -7 -54 -20 -56 -12 -2 -18 3 -18 13
0 10 -12 27 -27 38 l-26 21 39 17 c21 10 43 18 47 18 4 1 7 -23 5 -51z m10856
-27 c47 -41 84 -76 82 -78 -9 -10 -66 23 -133 78 -55 45 -71 64 -61 70 18 12
17 13 112 -70z m-11194 -93 l0 -79 -59 46 -59 46 15 52 c8 29 16 58 19 65 3
10 16 4 44 -18 l40 -32 0 -80z m11147 57 c40 -31 73 -60 73 -66 0 -12 -9 -7
-93 55 -60 45 -80 66 -60 66 3 0 39 -25 80 -55z m-468 -64 c19 -15 32 -33 30
-39 -6 -17 -149 90 -149 111 0 16 6 14 43 -13 23 -17 57 -43 76 -59z m-10409
-407 l0 -465 -32 3 c-28 2 -33 7 -33 28 0 144 17 854 21 882 5 34 8 37 25 28
18 -10 19 -28 19 -476z m318 268 c-10 -2 -52 24 -95 59 -43 35 -80 64 -82 66
-2 1 2 9 9 17 10 13 24 4 98 -62 63 -55 82 -78 70 -80z m10699 98 c7 -14 10
-26 8 -29 -8 -7 -45 31 -45 46 0 21 23 10 37 -17z m-10947 -2 c21 -15 30 -30
30 -50 0 -33 -3 -34 -41 -7 -21 14 -29 29 -29 50 0 35 2 35 40 7z m204 -493
c-3 -209 -9 -422 -13 -473 l-6 -93 -67 56 -68 55 0 369 c0 202 3 415 6 473 l7
105 74 -56 74 -56 -7 -380z m10233 463 c35 -33 30 -54 -7 -28 -16 12 -30 28
-30 36 0 20 10 18 37 -8z m151 -114 c48 -36 90 -74 94 -85 4 -10 5 -19 2 -19
-14 0 -194 145 -194 156 0 8 2 14 5 14 3 0 45 -30 93 -66z m-10593 20 c23 -15
25 -22 25 -96 l0 -79 -30 21 c-29 20 -30 25 -30 96 0 41 2 74 5 74 3 0 17 -7
30 -16z m283 -26 c9 -9 12 -128 12 -473 l0 -461 -36 4 -36 4 6 67 c3 36 8 247
12 469 7 406 9 423 42 390z m11052 -68 c100 -93 78 -101 -35 -12 -92 72 -88
69 -81 81 13 21 31 10 116 -69z m-11672 22 c4 -36 -3 -39 -36 -16 -22 15 -22
17 -6 35 23 26 38 19 42 -19z m11627 -58 c69 -52 89 -74 66 -74 -13 0 -144
103 -149 118 -6 21 6 14 83 -44z m-10744 -34 c113 -101 87 -111 -36 -13 -63
51 -81 71 -73 80 6 7 12 13 15 13 2 0 45 -36 94 -80z m-927 26 l41 -33 -3 -77
-4 -76 -60 46 c-59 46 -60 48 -54 85 7 46 23 89 32 89 4 0 25 -15 48 -34z
m774 -60 c4 -31 -7 -33 -42 -5 -18 14 -26 30 -26 51 l0 31 33 -25 c19 -15 33
-36 35 -52z m10420 11 c34 -27 62 -55 62 -63 0 -21 -6 -18 -80 39 -40 30 -69
60 -70 70 0 22 4 20 88 -46z m-10244 -432 c-4 -198 -9 -411 -13 -473 l-6 -113
-67 56 -68 55 0 414 c0 227 3 440 6 473 l7 60 74 -56 74 -56 -7 -360z m10854
403 c13 -13 16 -48 4 -48 -14 0 -32 23 -32 42 0 21 11 23 28 6z m-11398 -38
c0 -5 -4 -10 -10 -10 -5 0 -10 5 -10 10 0 6 5 10 10 10 6 0 10 -4 10 -10z
m335 -16 c23 -15 25 -22 25 -96 l0 -79 -30 18 c-29 17 -30 19 -30 95 0 43 2
78 5 78 3 0 17 -7 30 -16z m10582 -16 c22 -21 31 -48 16 -48 -16 1 -53 39 -53
54 0 22 9 20 37 -6z m-10289 -480 l2 -464 -36 4 -37 4 6 92 c4 50 10 263 13
474 l7 382 21 -13 c21 -14 21 -19 24 -479z m-630 423 c4 -34 -3 -38 -30 -17
-11 8 -18 26 -18 46 0 31 1 32 23 18 13 -9 23 -28 25 -47z m11070 -59 c39 -30
72 -61 72 -68 0 -8 -3 -14 -6 -14 -15 0 -164 124 -164 137 0 17 4 15 98 -55z
m732 -52 c100 -93 78 -101 -35 -12 -92 72 -88 69 -81 81 13 21 31 10 116 -69z
m-6926 -67 c11 -76 22 -183 25 -238 9 -135 -3 -335 -22 -371 -13 -25 -150 -95
-967 -491 -787 -383 -955 -461 -971 -453 -15 8 -19 22 -19 59 l0 49 -127 107
c-126 106 -127 107 -144 86 -10 -12 -19 -21 -22 -21 -2 0 -4 76 -3 169 1 165
2 170 25 195 17 18 35 26 58 26 31 0 35 4 71 76 l38 76 29 -39 c16 -21 30 -40
32 -42 2 -3 21 12 42 33 34 33 42 37 72 31 32 -6 38 -2 109 69 67 68 79 76
113 76 33 0 41 5 70 46 60 87 54 83 87 44 l30 -34 34 33 c33 32 35 33 70 20
35 -13 37 -12 75 25 35 34 44 38 72 32 29 -5 38 -1 71 31 31 30 47 38 75 38
34 0 39 4 78 68 l43 67 32 -36 32 -37 42 42 c36 36 46 40 73 35 29 -6 32 -3
63 53 58 102 53 99 84 52 l28 -41 37 36 c30 29 44 36 77 36 33 0 46 6 74 35
28 29 41 35 75 35 31 0 47 6 65 25 30 32 37 31 76 -6 18 -17 36 -29 41 -26 5
3 22 37 37 75 28 68 41 80 96 91 3 1 14 -61 24 -136z m-4143 75 c46 -34 58
-49 59 -70 0 -16 -3 -28 -6 -28 -3 0 -32 21 -65 46 -43 33 -59 52 -59 70 0 13
3 24 6 24 4 0 33 -19 65 -42z m247 -70 c83 -75 31 -61 -68 18 -66 53 -79 68
-69 80 12 15 17 12 137 -98z m-988 2 c0 -78 -1 -80 -20 -68 -17 11 -20 24 -20
91 0 75 1 77 20 67 17 -9 20 -21 20 -90z m11760 28 c51 -38 70 -59 70 -75 0
-22 -6 -19 -75 33 -47 35 -75 64 -75 75 0 11 2 19 5 19 3 0 37 -24 75 -52z
m-10774 -181 c-5 -80 -15 -502 -17 -739 -1 -65 -4 -118 -7 -118 -2 0 -36 25
-73 55 l-69 56 0 143 c0 78 3 292 7 474 l6 330 79 -60 79 -60 -5 -81z m-636
163 c14 -10 21 -22 17 -26 -4 -4 -20 4 -35 19 -31 31 -19 36 18 7z m10912 -35
c38 -29 67 -58 68 -68 0 -21 -2 -20 -88 43 -36 26 -62 53 -62 63 0 23 1 23 82
-38z m-10522 -32 c58 -45 60 -47 59 -92 -1 -25 -4 -58 -8 -73 l-6 -27 -57 42
-57 42 -1 78 c0 42 2 77 5 77 3 0 32 -21 65 -47z m-395 1 c28 -18 36 -74 11
-74 -19 0 -33 20 -38 58 -5 37 -5 37 27 16z m11546 -4 c11 -6 19 -21 19 -35 0
-41 -34 -27 -42 18 -6 30 -5 31 23 17z m-10828 -503 c3 -253 4 -464 2 -467 -2
-4 -18 -5 -36 -2 l-32 5 7 341 c3 187 9 400 12 473 6 121 8 131 24 121 15 -10
17 -50 23 -471z m9726 454 c22 -6 27 -16 36 -71 7 -36 24 -109 38 -163 34
-127 43 -211 27 -276 -11 -46 -17 -54 -68 -86 -142 -90 -346 -176 -692 -290
-455 -151 -450 -148 -838 -383 -196 -119 -329 -187 -487 -250 -95 -38 -227
-82 -246 -82 -4 0 4 25 18 56 41 90 48 183 33 424 l-13 211 34 124 c19 69 36
125 39 125 3 0 20 -36 39 -80 19 -44 37 -80 40 -80 3 0 19 23 34 50 16 28 32
50 36 50 4 0 18 -11 31 -25 13 -14 26 -25 29 -25 3 0 19 27 36 60 l29 60 37
-36 c36 -35 37 -36 67 -20 30 15 32 15 62 -11 37 -30 40 -28 66 52 10 28 24
66 32 85 l14 35 29 -58 c16 -31 31 -57 33 -57 3 0 19 27 38 60 30 56 35 60 68
60 31 0 39 6 63 45 16 25 31 45 34 45 3 0 22 -14 43 -30 l39 -31 27 46 26 46
36 -27 35 -27 41 46 c22 26 54 49 69 53 21 5 35 20 55 61 l28 54 43 -51 43
-51 34 50 c30 44 39 51 68 51 29 0 35 5 56 50 13 28 27 50 31 50 4 0 25 -20
46 -45 l37 -45 36 35 c31 30 40 34 72 29 34 -6 38 -4 57 32 37 70 35 69 76 44
20 -12 37 -21 39 -19 1 2 11 32 21 66 l18 63 43 -35 c23 -19 47 -35 53 -35 6
0 20 18 31 40 21 42 40 48 99 31z m631 -53 c0 -19 -2 -19 -22 -6 -13 9 -24 25
-26 37 -4 22 -3 22 22 6 14 -10 26 -26 26 -37z m-11060 -108 c0 -44 -4 -80 -8
-80 -23 0 -32 30 -32 102 0 76 1 78 20 68 17 -9 20 -21 20 -90z m10563 75 c18
-16 27 -34 27 -55 0 -28 -3 -30 -35 -30 l-35 0 0 55 c0 30 3 55 8 55 4 0 19
-12 35 -25z m628 -51 c49 -36 89 -73 89 -81 0 -21 -18 -12 -104 52 -41 31 -76
65 -79 75 -3 11 -3 20 0 20 3 0 46 -30 94 -66z m-10373 -20 c55 -42 72 -61 72
-80 0 -29 -7 -27 -90 36 -38 28 -57 50 -61 70 -4 17 -3 30 1 30 3 0 39 -25 78
-56z m232 -45 c99 -94 78 -100 -35 -11 -92 73 -88 69 -81 81 13 21 31 10 116
-70z m-667 23 c41 -30 59 -52 41 -52 -10 0 -114 85 -114 93 0 10 9 5 73 -41z
m623 -59 c66 -49 74 -59 70 -82 -3 -14 -8 -206 -12 -426 -3 -220 -9 -419 -13
-443 l-6 -45 -67 54 -67 54 -1 231 c0 247 11 714 17 714 2 0 37 -25 79 -57z
m-629 -9 c43 -30 53 -42 53 -65 0 -16 -3 -29 -7 -29 -5 0 -30 17 -57 38 -36
28 -50 45 -50 65 -1 15 1 27 4 27 2 0 28 -16 57 -36z m440 -30 c78 -60 78 -59
67 -151 l-7 -51 -68 49 -67 50 -4 79 c-2 44 -1 80 1 80 3 0 38 -25 78 -56z
m10574 -9 c45 -37 69 -63 69 -77 0 -15 -3 -18 -12 -11 -7 5 -41 31 -75 57 -39
29 -63 54 -63 67 0 10 2 19 6 19 3 0 36 -25 75 -55z m-491 -57 c72 -54 74 -57
62 -121 l-7 -39 -67 54 -67 53 0 53 c-1 28 1 52 4 52 3 0 37 -24 75 -52z
m-9750 -362 c0 -205 3 -414 6 -464 l7 -92 -38 0 -38 0 7 368 c3 202 9 415 13
474 5 101 7 107 24 97 18 -9 19 -29 19 -383z m10700 289 c0 -92 -1 -95 -22
-95 -22 0 -23 3 -23 95 0 92 1 95 23 95 21 0 22 -3 22 -95z m-11480 49 l50
-36 0 -79 0 -80 -51 39 -52 39 -1 77 c0 42 0 76 1 76 2 0 25 -16 53 -36z
m11220 26 c18 -11 19 -10 -88 -88 -50 -37 -89 -59 -98 -55 -8 3 -12 8 -9 11
17 17 171 141 175 142 3 0 12 -5 20 -10z m59 -496 l1 -341 -86 -37 c-47 -21
-89 -35 -92 -32 -3 3 -7 176 -9 383 l-5 378 89 64 88 63 6 -68 c4 -38 7 -222
8 -410z m-581 337 c-3 -22 -8 -26 -35 -26 -18 0 -33 3 -33 8 0 4 0 27 0 53 l0
45 36 -27 c27 -21 34 -33 32 -53z m-9804 9 c51 -39 66 -56 66 -76 0 -30 1 -31
-77 26 -44 33 -62 53 -65 73 -3 15 -1 27 2 27 4 0 37 -23 74 -50z m220 -29
c47 -41 84 -76 82 -78 -9 -9 -64 22 -126 73 -69 56 -76 64 -63 78 10 10 16 6
107 -73z m-610 -33 c6 -4 8 -10 4 -13 -8 -8 -138 93 -138 106 0 6 28 -11 62
-38 34 -26 66 -51 72 -55z m564 -4 l75 -57 -7 -276 c-3 -152 -9 -365 -12 -473
l-7 -197 -68 57 -69 56 0 473 c0 260 3 473 7 473 3 0 40 -25 81 -56z m9699 29
c6 -17 -145 -125 -162 -115 -12 6 -4 16 34 45 26 20 58 37 70 37 14 0 21 6 21
18 0 31 28 42 37 15z m590 -38 c-8 -22 -22 -42 -35 -46 -20 -8 -22 -5 -22 30
0 32 4 39 33 53 38 19 41 14 24 -37z m-10874 -38 c22 -17 28 -29 25 -51 l-3
-28 -67 51 c-58 44 -68 56 -68 82 l0 30 43 -30 c23 -17 55 -41 70 -54z m10551
67 c14 -5 16 -45 16 -345 0 -332 0 -339 -20 -339 -19 0 -20 7 -20 233 0 127
-3 283 -7 345 -6 114 -5 120 31 106z m-207 -32 c21 -17 22 -21 24 -389 2 -232
0 -376 -6 -381 -15 -13 -165 -76 -169 -71 -2 2 -7 173 -11 380 l-7 377 68 51
c38 27 71 50 74 50 3 0 15 -7 27 -17z m-9941 -39 l64 -47 0 -79 c0 -87 5 -86
-77 -24 l-52 38 -3 80 c-2 43 -1 79 1 79 2 0 32 -21 67 -47z m10090 0 c-2 -10
-23 -28 -47 -40 -56 -28 -59 -28 -59 0 0 16 10 27 38 39 50 22 71 22 68 1z
m-9773 -37 c16 -12 17 -47 17 -475 l0 -461 -36 0 -37 0 7 118 c3 64 9 278 12
475 4 196 9 357 13 357 3 0 14 -7 24 -14z m10196 -17 c17 -14 21 -23 14 -30
-8 -8 -20 -4 -42 12 -17 12 -31 26 -31 31 0 15 35 7 59 -13z m-10951 -42 l52
-39 0 -80 0 -80 -32 24 c-18 13 -48 35 -65 48 -32 23 -33 25 -33 102 0 89 -5
87 78 25z m9922 23 c0 -4 -40 -38 -90 -75 -64 -47 -94 -64 -104 -58 -12 6 6
25 75 80 80 64 119 81 119 53z m610 -38 c0 -35 -3 -40 -45 -60 -62 -30 -67
-29 -63 19 3 39 6 43 48 60 61 24 60 24 60 -19z m-558 -374 c3 -273 1 -406 -7
-414 -12 -13 -164 -79 -169 -73 -2 2 -6 174 -10 381 l-6 377 87 65 c49 36 91
65 95 66 3 0 8 -181 10 -402z m198 54 l5 -342 -22 0 -23 0 0 346 c0 324 1 345
18 342 16 -3 17 -30 22 -346z m713 314 c16 -12 16 -14 1 -20 -26 -10 -34 -7
-34 14 0 23 8 25 33 6z m127 -107 c0 -55 -4 -98 -8 -95 -5 3 -7 19 -4 36 3 19
-1 37 -11 48 -8 9 -18 38 -21 65 -7 46 -6 47 18 47 l26 0 0 -101z m-910 47 c0
-23 -4 -26 -97 -63 -8 -3 -13 4 -13 20 0 20 9 28 48 45 61 26 62 26 62 -2z
m-9215 -42 c58 -43 75 -62 75 -81 0 -30 2 -31 -88 37 -52 40 -72 61 -72 77 0
13 2 23 5 23 3 0 39 -25 80 -56z m245 -53 c91 -84 52 -80 -56 6 -66 52 -81 69
-73 79 13 16 31 5 129 -85z m-668 21 c35 -25 47 -42 31 -42 -13 0 -123 91
-123 102 0 5 12 0 28 -11 15 -12 44 -34 64 -49z m10056 36 c7 -7 12 -25 12
-40 0 -25 -7 -32 -46 -48 -25 -11 -48 -20 -50 -20 -2 0 -4 19 -4 43 0 39 3 45
33 60 40 20 40 20 55 5z m361 -2 c9 -10 8 -15 -4 -20 -10 -4 -15 1 -15 14 0
24 4 25 19 6z m-9806 -81 c65 -49 66 -51 67 -98 0 -92 -22 -892 -25 -895 -2
-2 -36 22 -75 55 l-71 58 6 44 c3 24 5 237 5 473 0 359 2 428 14 421 7 -4 43
-30 79 -58z m-583 -78 l0 -28 -60 47 c-49 38 -60 52 -60 76 l0 29 60 -48 c48
-38 60 -54 60 -76z m9248 111 c9 -9 12 -99 12 -345 l0 -333 -25 0 -25 0 0 345
c0 355 2 369 38 333z m362 -28 c0 -39 -2 -42 -46 -60 -25 -11 -50 -20 -55 -20
-6 0 -9 19 -7 41 3 39 6 43 48 60 61 24 60 24 60 -21z m847 -4 c-8 -35 -16
-47 -39 -57 -34 -14 -34 -14 -43 32 -6 34 -5 36 32 51 59 25 62 24 50 -26z
m-1500 17 c2 -6 -37 -41 -88 -78 -65 -48 -94 -64 -102 -56 -6 6 -9 12 -6 14
180 144 187 149 196 120z m-8497 -186 c0 -62 -3 -77 -12 -70 -7 5 -41 31 -75
57 l-63 47 0 80 0 80 75 -58 75 -57 0 -79z m8556 -633 c-4 -11 -175 -89 -181
-82 -1 2 -5 173 -9 380 l-6 377 92 70 93 70 7 -402 c4 -221 6 -407 4 -413z
m164 742 c0 -18 -9 -27 -37 -39 -21 -9 -55 -23 -76 -32 l-38 -16 3 28 c3 23
13 32 68 55 80 34 80 34 80 4z m860 1 c0 -30 -87 -77 -96 -52 -10 25 0 37 46
56 25 10 46 18 48 18 1 1 2 -9 2 -22z m-9310 -503 l0 -463 -32 6 c-18 3 -34 7
-36 8 -1 1 2 161 8 356 5 195 10 407 10 472 l0 117 25 -16 25 -16 0 -464z
m-777 427 l47 -34 0 -79 c0 -43 -2 -78 -5 -78 -3 0 -30 19 -60 43 l-55 42 0
78 c0 87 -5 85 73 28z m9667 10 c0 -36 -2 -39 -47 -57 -27 -11 -51 -20 -55
-22 -5 -2 -8 15 -8 38 0 38 2 42 43 60 61 27 67 25 67 -19z m430 -45 c0 -26
-5 -46 -12 -49 -7 -3 -30 -12 -50 -21 l-38 -16 0 44 c0 42 1 44 48 64 26 11
48 21 50 21 1 1 2 -19 2 -43z m-870 -9 l0 -43 -70 -31 -69 -31 -7 33 c-3 19
-4 39 -2 46 4 11 120 68 141 69 4 0 7 -19 7 -43z m-716 -6 c-23 -20 -167 -123
-179 -127 -7 -3 -16 -1 -19 4 -3 6 33 42 81 80 72 58 91 68 107 60 10 -5 14
-13 10 -17z m310 13 c14 -5 16 -45 16 -345 l0 -339 -25 0 -25 0 0 345 c0 203
4 345 9 345 5 0 16 -3 25 -6z m-255 -505 l1 -327 -84 -36 c-47 -20 -86 -36
-89 -36 -8 0 -17 239 -19 503 l-2 258 90 64 89 64 7 -82 c3 -45 6 -229 7 -408z
m-7553 316 c3 -8 4 -21 2 -29 -2 -10 -33 8 -105 62 -88 65 -103 80 -103 105 0
27 2 26 101 -48 55 -42 103 -83 105 -90z m-576 93 c65 -49 82 -68 61 -68 -13
0 -141 100 -141 110 0 16 7 12 80 -42z m9230 30 c0 -18 -12 -28 -50 -45 l-50
-22 0 28 c0 23 7 31 38 44 52 21 62 20 62 -5z m-910 -13 c0 -22 -10 -30 -67
-56 -117 -53 -113 -52 -113 -21 0 25 8 31 83 64 45 20 85 36 90 37 4 1 7 -10
7 -24z m-7612 -72 c35 -32 76 -68 91 -81 l26 -23 -29 6 c-27 6 -176 120 -176
135 0 8 11 20 18 20 3 0 34 -26 70 -57z m8092 13 c0 -31 -4 -34 -65 -59 -36
-15 -70 -27 -75 -27 -6 0 -10 15 -10 34 0 31 4 35 68 63 37 17 70 28 75 26 4
-2 7 -19 7 -37z m-8797 -36 c40 -32 57 -52 57 -68 0 -29 -4 -28 -79 30 -46 37
-61 54 -61 73 0 30 2 29 83 -35z m9227 -5 c0 -43 -1 -45 -46 -65 -26 -11 -48
-20 -50 -20 -2 0 -4 20 -4 44 0 42 1 44 48 64 26 11 48 21 50 21 1 1 2 -19 2
-44z m-8755 -46 l95 -71 0 -80 c0 -63 -3 -78 -12 -71 -7 5 -52 40 -100 77
l-88 68 0 74 c0 41 2 74 5 74 3 0 48 -32 100 -71z m212 15 l75 -56 -7 -331
c-4 -183 -10 -396 -14 -474 l-6 -142 -70 58 -70 58 3 472 c1 259 5 471 9 471
3 0 40 -25 80 -56z m7635 -36 c-4 -4 -44 -23 -89 -42 l-83 -35 0 47 0 48 83
35 82 35 7 -40 c4 -22 4 -44 0 -48z m-438 56 c14 -5 16 -45 16 -345 0 -323 -1
-339 -18 -339 -17 0 -19 14 -25 167 -10 241 -9 523 2 523 5 0 16 -3 25 -6z
m-306 -17 c14 -16 -174 -155 -190 -139 -7 7 18 33 78 81 49 39 92 71 95 71 4
0 11 -6 17 -13z m55 -249 c4 -128 7 -312 7 -408 l0 -176 -77 -33 c-43 -18 -83
-35 -89 -38 -18 -7 -23 76 -26 430 l-3 329 85 63 c47 35 88 64 91 64 3 1 9
-104 12 -231z m1167 210 c0 -19 -13 -28 -67 -50 -51 -21 -69 -24 -75 -15 -16
25 -7 34 55 59 78 33 87 33 87 6z m-8804 -45 l64 -48 0 -77 c0 -43 -2 -78 -5
-78 -3 0 -35 23 -70 52 l-65 52 0 73 c0 40 3 73 7 73 3 0 35 -21 69 -47z
m7826 2 c5 -22 -1 -27 -69 -55 -41 -17 -81 -34 -90 -37 -11 -4 -14 1 -11 23 3
25 12 32 78 61 41 17 78 32 81 32 4 1 9 -10 11 -24z m-7000 -12 c17 -15 18
-43 18 -475 l0 -458 -36 0 -37 0 6 128 c4 70 10 283 13 475 4 191 9 347 12
347 3 0 14 -7 24 -17z m7508 -27 c0 -33 -2 -35 -84 -70 -47 -20 -87 -36 -90
-36 -3 0 -6 14 -6 31 0 28 6 33 83 69 45 21 85 39 90 39 4 1 7 -14 7 -33z
m470 -31 l0 -46 -66 -29 c-36 -17 -68 -30 -70 -30 -3 0 -4 21 -2 46 l3 46 65
28 c36 16 66 29 68 29 1 1 2 -19 2 -44z m-970 -54 c0 -44 -3 -50 -27 -59 -16
-6 -54 -22 -85 -36 l-58 -26 0 53 0 52 78 32 c42 17 80 31 85 32 4 1 7 -21 7
-48z m-7400 -8 c31 -23 46 -41 40 -47 -10 -10 -100 57 -100 75 0 15 8 11 60
-28z m6964 21 c14 -5 16 -45 16 -345 0 -323 -1 -339 -18 -339 -17 0 -20 13
-25 137 -10 202 -8 553 2 553 5 0 16 -3 25 -6z m-6344 -162 c0 -28 1 -28 -102
50 -60 46 -78 65 -78 84 0 23 6 20 90 -43 68 -51 90 -73 90 -91z m7278 121
c-3 -22 -14 -31 -83 -60 -44 -18 -81 -33 -82 -33 -2 0 -3 13 -3 28 0 27 6 31
78 60 42 17 81 31 85 31 5 1 7 -11 5 -26z m-1254 8 c7 -11 -166 -141 -188
-141 -28 0 -17 13 67 82 78 64 109 79 121 59z m53 -565 l-2 -269 -85 -37 -85
-37 -6 146 c-4 80 -7 253 -8 383 l-1 236 88 65 87 64 7 -141 c5 -78 7 -262 5
-410z m-6650 467 c92 -71 97 -77 86 -97 -6 -12 -28 0 -101 55 -73 56 -92 75
-92 95 0 30 -1 31 107 -53z m733 -4 c99 -94 78 -100 -35 -11 -92 73 -88 69
-81 81 13 21 31 10 116 -70z m6120 42 c0 -27 -6 -31 -90 -65 -50 -20 -92 -36
-95 -36 -3 0 -5 13 -5 29 0 27 6 31 88 64 48 19 90 35 95 36 4 1 7 -12 7 -28z
m-6786 -12 c14 -11 26 -27 26 -36 0 -12 -7 -10 -32 9 -33 25 -47 48 -30 48 5
0 21 -9 36 -21z m622 -66 l76 -57 -6 -70 c-6 -73 -22 -844 -17 -860 4 -16 -31
4 -90 52 l-58 47 0 135 c-1 187 11 810 16 810 2 0 38 -26 79 -57z m6664 28 c0
-27 -6 -32 -74 -60 -90 -38 -96 -38 -96 -5 0 22 10 30 73 59 90 42 97 42 97 6z
m500 -63 c-5 -6 -155 -68 -165 -68 -3 0 -5 20 -5 44 l0 43 83 35 82 35 5 -41
c3 -23 3 -44 0 -48z m-7352 2 l72 -54 0 -73 c0 -45 -4 -73 -11 -73 -5 0 -46
27 -90 60 l-79 61 0 80 c0 75 1 79 18 67 9 -7 50 -38 90 -68z m-495 -55 l77
-59 0 -79 c0 -62 -3 -76 -13 -70 -7 4 -50 35 -95 68 l-82 60 0 83 c0 78 1 82
18 70 10 -7 53 -40 95 -73z m6857 25 c0 -36 -1 -36 -87 -73 -49 -21 -91 -37
-95 -37 -5 0 -8 22 -8 49 l0 49 88 35 c95 38 102 37 102 -23z m-796 14 c9 -3
16 -10 16 -14 0 -4 -41 -37 -91 -74 -59 -44 -95 -64 -104 -59 -10 6 11 28 73
80 101 84 87 74 106 67z m347 -4 c5 0 9 -142 9 -345 0 -338 0 -345 -20 -345
-19 0 -20 7 -20 163 0 89 -3 247 -7 351 -6 178 -5 189 11 183 10 -4 22 -7 27
-7z m932 -50 c-11 -9 -132 -60 -144 -60 -6 0 -9 12 -7 27 3 22 14 31 78 58
l75 31 3 -24 c2 -14 0 -28 -5 -32z m-6513 -229 c0 -131 3 -340 7 -464 l6 -227
-38 0 -38 0 7 318 c3 174 9 388 12 474 6 149 8 157 25 147 18 -9 19 -26 19
-248z m5300 -141 c0 -220 1 -403 2 -407 1 -9 -170 -89 -176 -82 -2 2 -6 174
-10 381 l-7 377 88 65 c48 36 91 66 96 66 4 0 7 -180 7 -400z m208 338 c-3
-30 -9 -34 -92 -70 -50 -21 -91 -38 -93 -38 -2 0 -3 15 -3 33 0 31 3 33 88 69
48 20 91 37 95 38 5 0 7 -14 5 -32z m520 -44 c-3 -22 -15 -31 -83 -59 -95 -40
-105 -42 -105 -15 0 16 19 30 83 60 100 47 109 48 105 14z m502 -21 l0 -48
-77 -33 c-41 -18 -78 -30 -81 -28 -2 3 -6 24 -9 48 l-5 43 79 32 c43 18 81 32
86 33 4 0 7 -21 7 -47z m-6848 -72 c26 -20 47 -44 48 -54 0 -24 -163 100 -169
128 -4 20 -6 22 121 -74z m548 -89 c0 -29 3 -31 -102 48 -71 53 -87 70 -88 92
0 26 3 25 95 -45 72 -55 95 -78 95 -95z m5290 98 l0 -51 -92 -43 c-103 -47
-105 -47 -107 30 -1 29 3 32 92 71 50 23 95 42 100 42 4 1 7 -22 7 -49z m-752
28 c8 -8 -4 -22 -51 -57 -108 -81 -122 -90 -136 -82 -9 6 13 29 75 80 49 39
91 71 94 71 3 0 11 -5 18 -12z m-4383 -84 c47 -42 85 -78 85 -81 0 -12 -50 13
-95 48 -97 74 -108 86 -101 97 12 20 23 14 111 -64z m4685 -272 l5 -342 -22 0
-23 0 0 346 c0 324 1 345 18 342 16 -3 17 -30 22 -346z m-241 -153 l1 -326
-87 -37 c-47 -20 -88 -34 -91 -31 -3 3 -8 174 -11 381 l-6 377 90 64 90 64 7
-83 c3 -46 6 -230 7 -409z m1201 462 c0 -30 8 -26 -173 -100 -5 -2 -7 11 -5
29 3 29 9 34 78 65 94 42 100 42 100 6z m-6352 -66 c37 -28 52 -46 52 -63 0
-27 1 -28 -97 46 -57 42 -73 60 -73 79 l0 25 33 -24 c17 -14 56 -42 85 -63z
m670 -15 l61 -45 0 -155 c0 -223 -16 -780 -22 -786 -3 -3 -35 18 -71 48 l-66
53 0 276 c0 396 10 670 25 661 6 -4 39 -27 73 -52z m-126 -168 l-3 -80 -89 66
-89 67 0 83 -1 82 93 -69 92 -70 -3 -79z m4778 188 c0 -28 -6 -33 -76 -65 -42
-19 -78 -35 -80 -35 -2 0 -4 15 -4 33 0 33 2 35 78 65 42 17 78 31 80 31 1 1
2 -13 2 -29z m520 -46 c0 -22 -10 -30 -72 -58 -111 -50 -118 -52 -118 -23 0
20 13 29 93 64 50 23 93 42 95 42 1 1 2 -11 2 -25z m514 10 c3 -9 6 -30 6 -48
0 -30 -4 -33 -87 -69 -48 -20 -87 -36 -89 -34 -1 1 -4 23 -6 49 l-5 46 81 35
c96 42 92 41 100 21z m-6356 -91 l42 -34 0 -79 0 -79 -80 61 -80 61 0 80 0 79
38 -27 c20 -16 56 -44 80 -62z m4906 41 c14 -5 16 -45 16 -345 0 -323 -1 -339
-18 -339 -17 0 -20 13 -25 137 -10 202 -8 553 2 553 5 0 16 -3 25 -6z m-4094
-479 c0 -250 0 -458 0 -462 0 -5 -15 -8 -32 -8 -23 0 -33 5 -33 15 2 216 17
822 21 867 6 57 8 62 25 52 18 -9 19 -29 19 -464z m4510 421 l0 -53 -62 -28
c-35 -15 -69 -29 -76 -32 -10 -4 -12 8 -10 52 l3 57 70 29 c39 15 71 28 73 28
1 1 2 -23 2 -53z m529 -17 c1 -10 -28 -27 -91 -52 -50 -20 -93 -36 -94 -34 -1
1 -4 15 -6 30 -3 27 1 30 87 66 94 38 102 38 104 -10z m-1009 -34 c0 -14 0
-28 -1 -32 -1 -5 -17 -14 -36 -22 -33 -13 -37 -13 -49 4 -22 30 -17 40 29 57
56 22 57 22 57 -7z m-4301 -158 c1 -13 -23 1 -89 50 -53 40 -90 75 -90 85 0
24 179 -110 179 -135z m379 80 c37 -28 52 -46 52 -63 0 -23 -3 -22 -65 23 -46
35 -64 55 -65 71 0 27 1 26 78 -31z m216 -41 c104 -94 76 -101 -39 -10 -67 53
-82 70 -74 80 14 17 17 15 113 -70z m4714 33 l-3 -52 -89 -38 c-49 -22 -91
-39 -93 -39 -2 0 -3 24 -3 53 l0 52 88 37 c48 20 91 37 95 37 4 1 7 -22 5 -50z
m-1098 2 c0 -4 -6 -13 -12 -19 -7 -7 -15 -42 -18 -77 l-5 -64 -25 12 c-23 12
-25 19 -24 73 0 32 6 69 12 81 11 19 16 21 42 11 17 -5 30 -13 30 -17z m578 7
c2 -11 -20 -24 -72 -46 -64 -26 -75 -28 -81 -14 -8 20 -1 25 70 56 65 27 78
28 83 4z m-4798 -143 c7 -8 10 -21 8 -31 -2 -12 -23 0 -90 51 -69 52 -88 73
-88 92 0 23 5 20 79 -37 44 -34 85 -68 91 -75z m564 60 l68 -50 -6 -135 c-3
-74 -9 -287 -12 -472 -4 -186 -9 -338 -11 -338 -2 0 -36 26 -74 58 l-71 57 6
239 c3 132 6 344 6 473 0 192 2 233 13 226 8 -4 44 -30 81 -58z m3756 11 c0
-53 -1 -55 -35 -66 -93 -31 -110 47 -22 100 50 31 57 27 57 -34z m480 -19 c0
-32 -3 -35 -68 -60 -37 -15 -71 -27 -75 -27 -5 0 -7 14 -5 32 3 28 9 34 68 59
36 16 68 28 73 29 4 0 7 -15 7 -33z m-4419 -23 l59 -45 0 -81 0 -80 -62 45
-63 45 -3 81 c-2 44 0 81 3 81 4 0 33 -21 66 -46z m-383 -223 l3 -81 -86 66
-85 65 0 81 0 80 83 -65 82 -64 3 -82z m705 -108 c4 -153 7 -362 7 -465 l0
-188 -36 0 -37 0 7 263 c16 669 17 687 36 677 15 -8 17 -39 23 -287z m4097
215 l0 -53 -67 -28 c-36 -15 -67 -26 -69 -24 -1 1 -4 24 -6 51 l-3 49 65 28
c36 16 68 28 73 29 4 0 7 -24 7 -52z m-498 -96 c-21 -12 -25 -11 -38 5 -20 27
-17 38 19 55 l32 15 5 -31 c4 -25 1 -33 -18 -44z m-3382 -100 l0 -23 -32 22
c-110 76 -148 111 -148 135 0 23 6 20 90 -43 68 -51 90 -73 90 -91z m-545 87
c33 -25 55 -50 55 -61 0 -16 -9 -12 -55 23 -30 23 -55 43 -55 44 0 2 -3 10 -6
19 -9 24 0 20 61 -25z m639 -5 c107 -91 149 -134 129 -134 -21 0 -183 123
-183 139 0 8 11 21 18 21 2 0 18 -12 36 -26z m3220 5 c23 -11 24 -14 11 -33
-9 -12 -15 -44 -15 -78 0 -50 -3 -58 -19 -58 -43 0 -56 54 -32 138 13 45 17
48 55 31z m-3804 -146 c0 -23 -2 -23 -55 19 -38 30 -55 50 -55 66 0 21 3 20
55 -19 40 -30 55 -48 55 -66z m609 42 l63 -48 -7 -366 c-4 -201 -10 -414 -14
-473 l-6 -107 -67 56 -68 55 0 383 c0 420 6 570 24 557 6 -5 40 -30 75 -57z
m3291 15 c0 -58 -24 -80 -66 -61 -32 14 -30 42 5 80 44 47 61 41 61 -19z
m-3420 -168 l0 -82 -85 62 -84 63 -1 83 0 82 85 -62 84 -63 1 -83z m-522 49
c39 -30 42 -36 42 -81 0 -26 -3 -61 -6 -78 l-6 -31 -49 37 -48 37 0 84 c-1 65
2 81 12 74 6 -5 31 -24 55 -42z m778 31 c8 -5 13 -151 18 -474 l7 -468 -39 0
-39 0 4 413 c5 534 7 557 49 529z m384 -212 c37 -33 41 -39 24 -40 -12 0 -58
30 -103 66 -64 53 -79 69 -70 80 12 14 21 8 149 -106z m-701 30 c35 -26 61
-53 61 -63 0 -24 -1 -23 -93 48 -46 36 -77 67 -77 78 0 18 1 18 24 0 13 -10
51 -38 85 -63z m484 -20 c11 -10 17 -25 15 -35 -5 -24 -138 77 -138 106 0 19
5 17 53 -17 28 -20 60 -45 70 -54z m170 -38 l38 -27 -5 -180 c-3 -99 -9 -312
-12 -473 -4 -160 -9 -292 -11 -292 -2 0 -36 26 -75 57 l-71 58 6 170 c4 93 7
307 7 473 l0 304 43 -32 c23 -17 59 -44 80 -58z m-645 -27 c31 -23 52 -47 52
-58 0 -26 -17 -18 -100 45 -51 39 -69 59 -70 77 l0 23 33 -24 c17 -14 56 -42
85 -63z m431 -17 l61 -48 0 -81 0 -81 -35 26 c-19 14 -51 38 -70 52 -35 26
-35 27 -35 106 0 44 4 78 9 76 5 -1 37 -24 70 -50z m324 -207 c4 -102 7 -313
7 -468 l0 -283 -22 0 c-52 1 -51 -13 -39 418 6 221 11 433 11 472 0 66 1 69
18 59 17 -11 20 -32 25 -198z m-780 126 l67 -49 0 -85 0 -84 -80 62 -80 61 0
80 c0 62 3 77 13 71 7 -4 43 -30 80 -56z m1035 -264 c-14 -18 -212 133 -216
166 -3 19 16 8 112 -65 88 -68 113 -91 104 -101z m-586 122 c33 -23 58 -49 61
-62 2 -13 1 -23 -2 -23 -16 0 -131 103 -131 116 0 19 3 18 72 -31z m-2 -82
c36 -27 60 -54 60 -65 0 -22 -6 -19 -73 32 -25 19 -47 45 -50 58 -2 12 -3 22
-1 22 2 0 31 -21 64 -47z m469 -42 l73 -55 -6 -44 c-3 -25 -6 -60 -6 -79 l0
-34 -80 62 -80 61 0 80 c0 61 3 77 13 72 6 -4 45 -33 86 -63z m-468 -73 l58
-43 0 -60 c-1 -99 -6 -104 -66 -56 l-51 40 -4 81 c-2 44 -1 80 1 80 2 0 30
-19 62 -42z m634 -58 c0 -94 0 -95 -25 -98 l-25 -3 2 98 c2 54 3 99 3 101 0 2
10 2 23 0 21 -3 22 -7 22 -98z m-123 -215 c71 -53 76 -60 55 -68 -21 -8 -197
131 -197 155 0 18 3 18 38 -9 21 -15 68 -50 104 -78z m-62 -67 c76 -57 76 -57
62 -160 l-7 -47 -67 51 -68 52 0 78 c0 43 2 78 5 78 3 0 37 -24 75 -52z m170
-133 l0 -95 -31 0 c-24 0 -30 3 -25 16 3 9 6 51 6 95 0 78 0 79 25 79 25 0 25
0 25 -95z"/>
<path d="M5448 9942 c-76 -37 -138 -69 -138 -72 0 -3 57 -44 125 -92 l125 -87
160 63 c89 35 163 65 165 68 4 4 -277 181 -294 185 -3 0 -68 -29 -143 -65z
m143 -96 c1 -92 -2 -121 -12 -126 -9 -5 -47 19 -108 68 l-94 75 104 53 c57 28
105 51 106 50 1 -1 3 -55 4 -120z m142 49 c53 -32 97 -61 97 -65 0 -7 -189
-90 -204 -90 -3 0 -6 50 -6 111 0 60 3 108 8 106 4 -2 51 -30 105 -62z"/>
<path d="M6625 9469 c152 -142 265 -261 311 -325 22 -29 45 -54 52 -54 40 0
-113 167 -308 338 -125 109 -139 119 -55 41z"/>
<path d="M6053 9178 c51 -130 241 -577 244 -574 7 7 -229 586 -239 586 -6 0
-8 -6 -5 -12z"/>
<path d="M5559 9126 c227 -402 446 -845 560 -1133 8 -18 17 -33 22 -33 18 0
-174 424 -318 700 -185 355 -276 520 -285 520 -5 0 4 -24 21 -54z"/>
<path d="M6696 8973 c9 -16 100 -143 200 -284 100 -140 216 -307 257 -370 67
-103 99 -157 195 -328 16 -29 32 -49 35 -44 10 17 -118 259 -207 393 -46 69
-153 215 -237 325 -85 111 -174 231 -199 268 -25 36 -49 67 -54 67 -4 0 0 -12
10 -27z"/>
<path d="M4830 8971 c0 -5 20 -46 44 -92 53 -98 188 -411 270 -622 32 -82 60
-146 63 -144 5 6 -129 350 -206 530 -108 251 -171 372 -171 328z"/>
<path d="M4440 8887 c0 -9 27 -53 60 -97 283 -382 439 -805 605 -1635 32 -159
60 -292 62 -294 24 -30 -7 149 -99 569 -134 621 -298 1030 -548 1370 -78 105
-80 108 -80 87z"/>
<path d="M7261 8784 c9 -24 515 -784 523 -784 4 0 6 6 3 13 -7 16 -506 759
-519 772 -7 7 -9 6 -7 -1z"/>
<path d="M6509 8528 c202 -523 325 -835 333 -843 16 -15 9 2 -161 448 -87 226
-163 413 -170 415 -8 3 -9 -3 -2 -20z"/>
<path d="M4410 8509 c-38 -64 -198 -384 -238 -479 -54 -129 -103 -271 -98
-284 4 -13 3 -16 52 129 56 170 128 322 267 568 27 49 47 91 44 94 -3 3 -15
-10 -27 -28z"/>
<path d="M7803 8470 c5 -21 311 -349 320 -343 7 4 -53 71 -261 291 -35 37 -61
60 -59 52z"/>
<path d="M3899 8383 c-135 -143 -472 -570 -463 -585 3 -5 81 92 174 214 92
123 209 269 260 326 99 110 116 138 29 45z"/>
<path d="M6840 8196 c0 -6 335 -544 346 -555 2 -2 7 -2 10 2 3 3 -74 128 -171
279 -191 294 -185 285 -185 274z"/>
<path d="M5310 8165 c0 -3 13 -31 29 -63 81 -162 145 -348 240 -707 101 -383
114 -425 129 -425 8 0 12 6 9 13 -12 33 -91 299 -127 432 -57 207 -115 390
-165 520 -56 144 -115 263 -115 230z"/>
<path d="M6380 8101 c0 -6 27 -75 61 -153 115 -268 169 -421 209 -586 13 -53
26 -90 31 -85 19 19 -64 273 -202 621 -73 181 -99 235 -99 203z"/>
<path d="M4007 7922 c-79 -96 -81 -100 -22 -37 75 79 120 134 114 139 -2 2
-44 -44 -92 -102z"/>
<path d="M4650 7908 c0 -134 -13 -267 -55 -571 -37 -262 -39 -287 -27 -287 14
0 84 620 90 793 2 92 2 167 -2 167 -3 0 -6 -46 -6 -102z"/>
<path d="M5833 7903 c2 -5 52 -107 110 -229 93 -192 122 -265 176 -444 9 -31
10 -29 5 20 -4 30 -21 99 -39 153 -42 122 -225 506 -243 507 -7 0 -11 -3 -9
-7z"/>
<path d="M4287 7491 c-48 -202 -87 -374 -87 -380 0 -7 4 -10 9 -7 5 4 19 48
31 99 12 50 51 211 86 355 35 145 64 272 64 283 0 66 -27 -24 -103 -350z"/>
<path d="M3899 7793 c-13 -16 -12 -17 4 -4 9 7 17 15 17 17 0 8 -8 3 -21 -13z"/>
<path d="M3750 7593 c-28 -43 -50 -85 -49 -93 0 -13 1 -13 10 0 24 37 97 170
93 170 -3 0 -27 -35 -54 -77z"/>
<path d="M4853 7108 c0 -97 -5 -163 -16 -205 -12 -50 -13 -63 -2 -63 17 0 22
23 36 160 12 112 6 250 -10 250 -5 0 -8 -64 -8 -142z"/>
<path d="M5844 6206 c-125 -63 -218 -178 -263 -327 -74 -241 -41 -457 87 -569
54 -48 117 -70 202 -70 55 0 78 6 131 32 93 46 176 133 227 238 61 124 76 192
77 340 0 107 -4 133 -23 182 -35 87 -82 142 -153 177 -53 27 -73 31 -139 31
-68 0 -86 -4 -146 -34z m261 -4 c80 -41 140 -132 171 -260 18 -78 18 -92 -5
-92 -15 0 -19 9 -23 48 -3 26 -18 73 -33 105 -21 43 -26 60 -17 69 8 8 7 19
-6 41 -20 34 -70 63 -84 49 -6 -6 -25 -1 -53 15 -24 13 -66 26 -95 30 -74 9
-42 25 40 20 39 -2 81 -12 105 -25z m-231 -173 c5 -149 4 -168 -11 -173 -9 -4
-18 -4 -20 -2 -3 3 -13 73 -22 157 l-17 152 30 18 c16 10 31 17 32 16 1 -1 4
-77 8 -168z m52 44 c-8 -146 -15 -193 -27 -193 -5 0 -8 72 -8 160 0 156 0 160
20 160 21 0 21 -3 15 -127z m112 91 c29 -14 52 -30 50 -35 -2 -4 -32 -62 -68
-128 -72 -134 -96 -153 -86 -68 3 28 8 84 11 122 9 107 15 135 28 135 7 0 37
-12 65 -26z m-229 -173 c11 -95 11 -115 -1 -122 -19 -12 -17 -14 -92 56 l-69
64 28 38 c15 21 46 57 69 81 49 51 46 55 65 -117z m353 132 c10 -9 18 -23 18
-32 0 -9 -39 -64 -86 -123 -75 -95 -88 -107 -105 -97 -11 5 -18 13 -16 17 84
153 147 252 160 252 6 0 19 -7 29 -17z m48 -149 c11 -36 20 -81 20 -99 0 -30
-3 -33 -37 -39 -21 -4 -64 -13 -96 -20 -57 -14 -58 -14 -69 9 -9 21 -3 33 68
119 44 53 82 96 86 96 4 0 16 -30 28 -66z m-473 -86 c70 -72 80 -86 72 -105
-4 -13 -11 -23 -14 -23 -3 0 -46 34 -95 76 l-89 76 15 29 c8 16 18 29 22 29 4
0 44 -37 89 -82z m-61 -50 c58 -48 64 -56 59 -82 -3 -16 -6 -31 -8 -32 -1 -2
-38 -6 -81 -10 l-78 -7 7 54 c7 57 25 129 32 129 3 0 34 -24 69 -52z m184 0
c16 10 16 6 -5 -24 -31 -46 -41 -98 -28 -146 10 -36 9 -38 -10 -32 -11 4 -23
1 -28 -7 -8 -12 -10 -12 -18 0 -6 10 -3 19 11 31 25 20 17 60 -13 60 -12 0
-19 7 -19 20 0 23 10 26 29 8 10 -11 16 -8 32 11 23 28 24 54 4 71 -8 7 -12
17 -8 23 4 6 11 3 20 -9 11 -15 17 -16 33 -6z m119 8 c60 -31 59 -136 -2 -197
-22 -23 -38 -29 -71 -29 -36 0 -45 4 -54 25 -25 55 -9 141 35 187 30 31 51 35
92 14z m293 -34 c3 -10 1 -28 -3 -40 -8 -21 -14 -22 -119 -22 -102 0 -110 1
-110 19 0 16 11 22 58 31 31 7 73 16 92 20 58 13 77 11 82 -8z m7 -104 c-11
-51 -50 -171 -54 -166 -1 2 4 43 13 93 13 76 27 110 48 115 1 0 -2 -19 -7 -42z
m-46 22 c2 -3 2 -26 -1 -51 -4 -44 -6 -47 -52 -69 l-49 -23 -50 39 c-28 21
-51 41 -51 45 0 3 3 21 6 39 l7 32 93 -4 c51 -2 95 -6 97 -8z m-453 -40 c0
-13 -9 -22 -27 -26 -16 -3 -62 -15 -105 -25 -42 -10 -79 -19 -82 -19 -3 0 -6
15 -6 34 0 33 2 35 43 40 23 4 62 8 87 9 25 2 55 4 68 5 16 2 22 -3 22 -18z
m333 -110 c70 -57 78 -67 72 -89 -4 -14 -9 -28 -12 -31 -2 -3 -42 34 -89 82
-57 59 -82 92 -78 103 7 18 1 21 107 -65z m-354 41 c9 -16 -1 -36 -57 -115
-37 -52 -70 -95 -74 -96 -9 0 -46 102 -54 148 l-6 39 73 20 c95 26 106 27 118
4z m71 -12 c0 -10 -134 -242 -151 -263 -4 -4 -15 3 -24 18 -18 27 -19 26 133
234 21 30 42 35 42 11z m189 -23 l33 -34 -40 -21 c-23 -12 -46 -21 -52 -21
-14 0 -13 83 2 98 17 17 20 16 57 -22z m-154 14 c3 -5 1 -10 -4 -10 -6 0 -11
5 -11 10 0 6 2 10 4 10 3 0 8 -4 11 -10z m73 -137 c14 -148 15 -193 5 -193 -5
0 -18 -3 -30 -6 l-23 -6 0 166 c0 154 1 166 18 166 16 0 20 -15 30 -127z m-68
59 l0 -58 -65 -32 c-36 -17 -65 -30 -65 -28 0 2 23 43 51 90 61 104 79 110 79
28z m340 34 c0 -20 -13 -27 -30 -15 -13 8 -13 10 0 19 21 14 30 12 30 -4z
m-80 -82 l32 -36 -48 -50 c-27 -27 -70 -62 -95 -78 l-47 -28 -6 36 c-3 20 -6
60 -6 87 l0 51 53 26 c28 15 59 27 68 27 9 1 31 -15 49 -35z m-260 -140 l0
-77 -47 7 c-25 3 -67 18 -91 33 l-46 26 85 43 c46 24 87 43 92 43 4 1 7 -33 7
-75z"/>
<path d="M5896 5778 c-34 -48 -11 -128 35 -128 50 0 80 61 63 128 -9 32 -76
32 -98 0z m82 -27 c6 -38 -7 -71 -31 -81 -39 -15 -62 43 -36 91 15 29 63 22
67 -10z"/>
<path d="M5871 4811 c-43 -40 -61 -89 -61 -163 l0 -63 69 -70 69 -70 7 -411 7
-412 -62 -33 c-74 -39 -136 -99 -168 -162 l-24 -45 26 -199 c39 -294 26 -259
107 -274 39 -7 72 -16 74 -19 3 -4 -21 -17 -53 -29 -31 -12 -177 -69 -323
-127 l-265 -105 -19 -445 c-15 -382 -16 -447 -4 -458 8 -8 157 -136 332 -286
l319 -272 46 21 c26 11 238 108 472 215 l425 195 -2 93 c-1 51 -5 236 -9 411
l-6 318 -282 236 c-154 129 -282 239 -284 243 -2 5 13 13 32 20 24 7 38 19 41
33 2 12 13 117 24 232 16 166 17 212 8 220 -7 6 -28 31 -46 57 -42 59 -85 89
-192 134 -46 19 -88 40 -94 45 -8 8 -37 725 -30 736 2 4 900 -897 903 -907 2
-5 -8 -12 -21 -15 -39 -10 -72 19 -106 95 -22 50 -39 74 -60 85 -17 8 -33 15
-36 15 -9 0 5 -96 27 -190 22 -94 79 -221 130 -290 l33 -45 0 -545 0 -545 91
-14 c82 -12 98 -11 149 4 l58 16 -6 72 c-41 501 -80 838 -122 1041 -22 106
-22 112 -6 144 l17 33 49 -53 c27 -29 238 -244 468 -477 415 -418 420 -423
451 -414 28 8 110 98 103 114 -1 4 -219 237 -484 519 l-482 512 41 75 41 76
-34 28 c-19 16 -40 29 -48 29 -8 0 -35 -22 -60 -49 l-46 -49 -500 532 c-275
293 -502 541 -504 552 -5 27 -20 44 -40 44 -10 0 -32 16 -51 35 -19 19 -39 35
-46 35 -6 0 -26 -13 -43 -29z m93 -181 l-19 -100 -57 57 c-32 32 -58 61 -58
65 0 4 20 39 45 78 l45 70 31 -35 32 -36 -19 -99z m577 -495 c250 -270 462
-501 473 -513 18 -21 18 -22 -19 -71 l-38 -49 -361 367 c-198 201 -414 420
-479 487 l-117 120 16 85 c23 120 21 117 48 88 13 -13 227 -245 477 -514z
m534 -679 c-47 -108 -85 -209 -85 -224 0 -15 31 -270 69 -567 39 -297 67 -543
63 -546 -4 -4 -51 -10 -104 -13 l-98 -7 0 529 0 529 -50 71 c-29 41 -67 114
-89 174 -22 57 -32 92 -23 80 44 -61 86 -102 105 -102 11 0 38 15 61 33 23 19
50 39 62 45 11 6 54 54 95 106 40 52 75 93 77 92 1 -2 -36 -92 -83 -200z
m-969 119 c40 -17 135 -94 158 -130 l16 -24 -143 6 c-165 7 -222 -5 -306 -62
l-51 -35 0 33 c0 47 45 130 87 163 38 29 131 63 176 63 15 1 44 -6 63 -14z
m1459 -540 c230 -247 433 -466 453 -487 30 -32 33 -40 25 -65 -7 -19 -17 -29
-35 -31 -21 -3 -86 60 -434 415 -225 231 -428 439 -452 465 l-44 45 29 56 c15
31 31 55 34 54 3 -1 194 -204 424 -452z m-1326 334 c17 -6 31 -15 31 -19 0
-16 -55 -47 -119 -69 -85 -28 -249 -29 -298 -3 l-33 17 37 29 c20 16 52 35 72
42 45 16 266 18 310 3z m60 -203 c-16 -72 -37 -138 -45 -148 -25 -26 -93 -57
-156 -68 -66 -12 -169 1 -234 29 l-41 19 -12 83 c-7 46 -15 101 -18 123 -5 35
-4 37 13 28 27 -14 161 -33 241 -33 83 -1 183 29 238 70 22 16 41 29 42 28 1
-1 -12 -60 -28 -131z m188 -524 l283 -231 -53 -24 c-28 -13 -222 -102 -430
-197 l-379 -174 -283 285 c-157 156 -281 287 -277 291 4 4 162 69 352 144 292
117 356 139 415 144 39 3 75 2 80 -1 6 -3 137 -110 292 -237z m-877 -379 c272
-260 280 -269 280 -306 l0 -39 -44 39 c-24 21 -152 137 -285 258 l-241 220 0
48 c0 26 2 47 5 47 3 0 132 -120 285 -267z m108 -213 l172 -155 -1 -125 c0
-69 3 -167 7 -219 6 -80 5 -93 -7 -85 -8 4 -141 115 -296 247 l-283 238 0 111
c0 103 1 110 17 97 10 -8 136 -123 281 -257 145 -134 266 -241 269 -239 5 5
-47 56 -362 351 -173 163 -200 191 -199 217 0 16 1 63 2 105 l2 76 113 -104
c62 -57 191 -173 285 -258z m1060 253 l-3 -36 -396 -177 c-217 -97 -403 -179
-413 -183 -14 -6 -17 -2 -14 24 3 31 9 34 403 220 220 103 406 188 413 188 9
1 12 -10 10 -36z m2 -166 l0 -104 -406 -199 c-223 -109 -410 -201 -415 -202
-6 -3 -9 42 -7 114 l3 117 405 188 c223 103 408 188 413 189 4 0 7 -46 7 -103z
m-2 -302 c-13 -12 -811 -405 -823 -405 -3 0 -4 41 -3 92 l3 92 410 197 410
196 8 -80 c6 -62 5 -83 -5 -92z m-1154 -165 l275 -235 0 -97 c1 -54 -1 -98 -4
-98 -2 0 -136 116 -297 257 -325 285 -308 262 -293 381 6 50 8 52 25 40 11 -7
143 -119 294 -248z m1166 53 l0 -98 -410 -184 c-225 -100 -413 -183 -417 -182
-4 1 -8 33 -8 72 l0 71 410 208 c226 114 413 208 418 209 4 0 7 -43 7 -96z"/>
<path d="M5810 2727 c-179 -72 -327 -132 -330 -134 -2 -2 97 -105 221 -229
l225 -225 347 133 c190 73 346 135 346 138 -1 6 -420 398 -457 426 l-27 21
-325 -130z m286 -94 c-2 -3 -100 -42 -218 -87 l-213 -83 -51 46 c-29 25 -52
48 -53 51 0 3 120 55 267 116 l267 111 3 -75 c2 -41 1 -77 -2 -79z m258 -43
l158 -145 -51 -22 c-92 -41 -85 -44 -198 80 l-102 112 -1 73 c0 88 -19 98 194
-98z m-254 -88 l0 -108 -122 -57 -122 -57 -76 72 c-43 40 -77 77 -76 82 2 8
371 175 389 176 4 0 7 -49 7 -108z m158 -14 c51 -53 92 -100 92 -105 0 -4 -26
-19 -59 -32 l-58 -23 -41 29 c-40 27 -41 30 -42 84 0 49 10 154 14 147 1 -2
43 -46 94 -100z m-64 -175 c-31 -22 -44 -16 -44 22 l0 36 31 -23 c28 -21 29
-24 13 -35z m-94 3 l0 -44 -80 -32 -79 -32 -30 23 c-17 13 -30 27 -30 30 -1 7
189 97 207 98 8 1 12 -14 12 -43z"/>
<path d="M7559 4374 c-23 -26 -23 -26 -2 -15 21 10 26 6 66 -53 l43 -65 29 49
c16 28 32 50 35 50 3 0 23 -41 45 -90 21 -50 42 -93 47 -96 5 -3 3 9 -5 28 -7
18 -29 70 -47 116 l-34 82 -35 -56 -34 -56 -33 58 c-19 33 -34 62 -34 67 0 14
-17 7 -41 -19z"/>
</g>
</svg>
