<?xml version="1.0" standalone="no"?>
<!DOCTYPE svg PUBLIC "-//W3C//DTD SVG 20010904//EN"
 "http://www.w3.org/TR/2001/REC-SVG-20010904/DTD/svg10.dtd">
<svg version="1.0" xmlns="http://www.w3.org/2000/svg"
 width="1280.000000pt" height="1157.000000pt" viewBox="0 0 1280.000000 1157.000000"
 preserveAspectRatio="xMidYMid meet">
<metadata>
Created by potrace 1.15, written by Peter Selinger 2001-2017
</metadata>
<g transform="translate(0.000000,1157.000000) scale(0.100000,-0.100000)"
fill="#000000" stroke="none">
<path d="M5053 11544 c-6 -10 -155 -332 -331 -715 -220 -476 -320 -705 -319
-725 l2 -29 -128 -9 -127 -9 -11 -41 c-31 -114 -21 -104 -107 -110 -42 -4
-103 -8 -135 -11 l-58 -5 -37 81 -37 80 -236 -4 -237 -5 -185 -61 -185 -62 19
-72 c11 -40 22 -79 25 -88 3 -12 -27 -44 -100 -108 -57 -50 -106 -91 -109 -91
-2 0 -10 24 -17 54 -7 30 -16 60 -20 67 -6 8 -42 -12 -122 -69 l-115 -81 9
-63 9 -63 -118 -112 c-65 -62 -121 -112 -126 -113 -4 0 -19 25 -34 55 -16 32
-33 53 -39 51 -7 -3 -71 -53 -143 -112 l-131 -107 0 -77 0 -77 -112 -97 c-119
-104 -120 -105 -132 -31 -4 22 -10 46 -15 53 -5 8 -57 -26 -170 -114 l-163
-127 7 -77 7 -77 -102 -89 c-56 -49 -106 -90 -110 -92 -5 -2 -22 21 -37 51
l-28 55 -172 -137 c-94 -75 -174 -139 -178 -142 -3 -4 -1 -33 4 -65 l9 -59
-96 -98 -97 -98 -36 42 c-19 23 -40 40 -46 38 -5 -2 -107 -80 -226 -174 l-217
-170 0 -1184 0 -1185 251 -1545 c137 -850 252 -1555 255 -1566 4 -15 101 -69
362 -202 363 -184 2917 -1479 3358 -1702 l241 -121 479 30 c669 42 2216 138
3459 214 578 36 1073 67 1101 69 50 3 61 11 620 436 313 239 579 443 592 454
18 17 22 31 22 81 0 34 6 71 13 83 12 23 136 125 750 617 l347 279 85 -33 84
-33 59 44 c32 24 205 156 384 292 l325 248 7 1182 8 1182 -41 160 c-85 340
-93 382 -86 477 9 115 -27 343 -57 368 -27 21 -44 131 -58 370 -10 164 -16
202 -53 339 -40 150 -40 155 -30 238 10 78 8 96 -23 251 -18 92 -53 240 -78
330 -42 155 -44 166 -34 228 9 58 6 88 -23 255 l-33 189 -184 105 c-102 58
-188 105 -193 105 -5 0 -36 -33 -70 -74 l-62 -74 -87 58 -86 58 9 82 c5 45 7
83 6 84 -2 2 -91 47 -197 101 l-192 99 -75 -53 -76 -52 -81 27 -81 27 7 86 6
86 -150 84 -151 83 7 163 7 162 -344 626 c-189 344 -344 625 -345 624 -1 -1
-115 -222 -254 -492 -138 -269 -255 -493 -258 -497 -4 -4 -78 31 -166 78 -87
46 -163 84 -169 84 -6 0 -29 -18 -52 -40 l-40 -39 -114 46 -113 47 6 70 5 71
-229 154 -230 153 -319 -38 -319 -38 -6 -29 c-3 -16 -6 -47 -6 -68 0 -21 -3
-40 -8 -43 -4 -2 -61 -9 -127 -15 -66 -6 -138 -14 -160 -16 l-41 -6 -43 81
c-23 44 -48 80 -54 80 -17 1 -511 -63 -515 -66 -2 -1 -7 -36 -10 -76 l-7 -73
-95 -12 c-52 -6 -119 -13 -149 -15 l-54 -3 -33 80 -34 80 -248 -22 c-136 -12
-250 -22 -253 -22 -4 -1 -10 -37 -14 -81 -4 -44 -11 -83 -16 -86 -5 -3 -9 5
-9 18 0 13 -7 91 -14 175 l-14 152 -351 589 c-193 323 -357 597 -365 607 -13
18 -14 18 -23 -1z m351 -657 c316 -584 317 -587 299 -610 -62 -78 -388 -438
-390 -431 -1 5 -52 360 -112 789 -61 429 -113 796 -117 815 -3 19 -4 33 -1 30
2 -3 147 -269 321 -593z m-314 7 c28 -274 64 -629 80 -788 16 -160 28 -291 27
-293 -2 -1 -129 54 -283 122 -464 208 -443 198 -435 215 4 8 131 293 281 632
151 340 275 616 277 615 1 -2 25 -228 53 -503z m5130 -724 c133 -261 265 -518
293 -571 l50 -97 -219 -237 -219 -237 -8 73 c-4 41 -36 385 -72 764 -35 380
-67 713 -71 740 -3 28 -4 48 -2 45 3 -3 114 -219 248 -480z m-250 -155 c22
-313 47 -673 56 -798 9 -125 14 -230 11 -234 -6 -5 -691 311 -711 328 -5 5 8
45 31 96 23 48 145 315 273 593 316 687 293 640 297 610 2 -14 21 -281 43
-595z m-1435 204 c118 -78 215 -144 215 -148 0 -4 -27 -20 -59 -36 l-59 -28
-186 104 -186 105 -163 -13 c-89 -6 -183 -14 -209 -17 l-46 -5 -42 55 c-23 30
-35 54 -28 54 7 1 128 16 268 34 140 19 261 34 267 35 7 0 110 -62 228 -140z
m-1286 -25 c18 -30 31 -57 29 -60 -3 -2 -93 -12 -201 -22 l-196 -18 -37 48
c-20 27 -35 50 -33 52 5 4 346 53 379 55 21 1 32 -10 59 -55z m554 -67 c-11
-52 -14 -53 -39 -22 -24 30 -29 60 -18 103 6 22 8 21 34 -18 17 -26 26 -50 23
-63z m-2050 -629 c-2 -398 -6 -1030 -9 -1406 l-6 -683 -205 -182 c-113 -100
-209 -183 -214 -185 -5 -2 -9 532 -9 1340 l1 1343 217 247 c119 135 219 247
222 247 3 1 4 -324 3 -721z m635 526 c-2 -1 -87 -4 -189 -5 l-187 -4 -47 58
c-26 32 -44 61 -41 64 4 4 93 14 199 22 l192 16 38 -74 c20 -41 36 -75 35 -77z
m446 61 c8 -13 11 -43 8 -82 l-4 -63 -39 51 c-39 49 -40 50 -33 111 l7 62 24
-30 c13 -16 30 -38 37 -49z m1402 -447 c-4 -288 -9 -524 -10 -525 -2 -2 -135
47 -297 108 l-294 111 -184 -25 c-101 -14 -187 -29 -191 -34 -4 -4 -94 -169
-199 -367 l-191 -358 12 -305 c8 -221 8 -307 0 -312 -6 -3 -239 -19 -519 -34
-279 -15 -518 -30 -530 -33 l-23 -4 0 293 c0 162 3 598 7 970 l6 677 57 0 c32
0 71 3 87 6 29 6 31 9 41 81 5 41 13 77 16 80 3 4 54 10 113 14 60 4 139 10
177 14 l69 5 -6 -91 -6 -92 112 6 c62 4 181 10 265 13 l152 7 0 94 c0 51 1 93
3 93 8 2 355 29 370 30 15 0 16 -7 11 -71 l-7 -71 59 6 c32 3 140 10 239 16
99 5 203 13 232 16 58 6 55 -1 68 125 l6 56 127 10 c70 5 151 10 181 11 l54 2
-7 -522z m-494 435 c20 -32 36 -59 34 -60 -3 -3 -398 -31 -403 -28 -1 0 -5 31
-9 68 l-7 66 139 4 c77 1 155 4 174 5 32 2 38 -3 72 -55z m703 -32 l140 -78 3
-64 3 -65 204 -102 c113 -56 207 -102 210 -102 3 0 5 32 5 70 0 39 2 70 5 70
3 0 70 -33 151 -72 l145 -73 -7 -70 c-5 -54 -17 -90 -51 -159 l-45 -90 7 -285
c6 -239 5 -283 -6 -279 -8 3 -218 81 -466 174 l-453 169 0 517 c0 285 3 518 8
518 4 -1 70 -36 147 -79z m-2521 14 c20 -34 26 -56 24 -90 -2 -25 -5 -45 -8
-45 -3 0 -18 18 -33 40 -25 35 -27 45 -21 90 4 27 8 50 9 50 2 0 15 -20 29
-45z m-707 -319 c1 -1 19 -1226 31 -2224 4 -281 5 -512 2 -512 -3 0 -172 61
-376 136 l-371 137 -6 606 c-4 333 -7 960 -7 1393 l0 786 363 -161 c199 -88
363 -161 364 -161z m-807 239 l0 -65 -32 0 c-18 0 -42 -3 -54 -6 -16 -4 -30 7
-67 55 -26 32 -47 62 -47 65 0 3 33 7 73 9 39 1 84 4 100 5 27 2 27 2 27 -63z
m2374 -15 c30 -39 42 -62 34 -64 -16 -5 -370 -27 -373 -24 -1 2 -5 36 -8 76
l-6 72 154 0 154 0 45 -60z m1977 28 c-5 -24 -17 -39 -46 -55 -42 -23 -55 -18
-55 23 0 14 13 27 43 41 59 30 66 29 58 -9z m-5032 -44 c17 -37 29 -69 27 -72
-3 -2 -95 1 -204 8 l-199 12 -143 -72 c-111 -56 -145 -69 -152 -58 -23 36 -79
140 -76 142 1 1 73 25 158 53 l155 51 202 1 201 1 31 -66z m485 6 c39 -55 41
-65 25 -140 l-11 -51 -39 56 c-21 31 -39 62 -39 70 0 16 22 115 26 115 1 0 18
-23 38 -50z m1674 -30 c17 -27 32 -52 32 -55 0 -3 -22 -5 -50 -5 l-50 0 0 55
c0 72 22 74 68 5z m3082 -162 l0 -56 -149 76 -149 77 51 32 52 32 97 -52 98
-52 0 -57z m303 58 c174 -91 174 -92 91 -129 l-40 -18 -144 67 c-80 36 -147
68 -149 70 -4 3 71 93 79 93 3 1 76 -37 163 -83z m-5120 -13 c23 -38 46 -74
51 -80 6 -10 -32 -13 -173 -13 l-181 0 0 69 0 68 93 10 c174 19 160 22 210
-54z m261 -969 c4 -570 6 -1037 4 -1040 -4 -3 -984 -64 -1037 -64 l-21 0 0
1066 0 1067 68 -6 c37 -4 133 -9 215 -13 129 -6 147 -9 143 -23 -3 -9 -7 -41
-11 -71 -4 -30 -9 -63 -11 -73 -5 -16 10 -17 258 -15 l263 3 10 95 10 95 45 6
c25 3 48 7 51 7 3 1 9 -464 13 -1034z m-1104 -77 l0 -1063 -48 -47 -49 -48
-342 600 c-189 330 -349 608 -356 617 -8 12 -20 15 -36 11 -21 -5 -45 -51
-161 -309 -75 -167 -223 -494 -328 -727 l-191 -425 10 -562 10 -562 -207 -205
c-544 -537 -917 -895 -924 -884 -3 6 -10 37 -13 69 -5 40 -15 68 -31 87 -29
35 -47 152 -64 411 -10 152 -16 193 -51 320 -40 143 -40 146 -29 226 11 74 9
93 -15 220 -14 76 -48 223 -76 326 -47 179 -49 192 -43 275 5 68 1 121 -16
231 l-23 144 59 59 59 60 7 -43 c3 -24 7 -62 7 -86 1 -24 5 -42 9 -40 5 2 88
71 185 153 l176 150 -1 94 -1 94 111 83 110 83 17 -95 18 -96 71 69 c39 37
115 111 168 163 l98 95 0 92 0 92 109 85 c60 47 112 86 115 86 3 0 6 -30 6
-66 0 -36 4 -64 8 -62 4 2 79 57 165 123 l156 120 -6 60 c-3 33 -6 70 -7 82
-1 16 26 43 108 108 117 92 118 92 130 20 4 -22 11 -64 17 -92 l10 -53 172
152 c139 123 172 157 172 178 -1 14 -4 57 -8 96 l-8 70 88 76 c48 42 90 75 94
73 3 -2 14 -47 24 -100 11 -52 22 -94 26 -93 3 2 77 68 163 148 154 143 157
146 151 180 -3 19 -8 55 -11 80 l-6 45 104 57 c56 32 106 58 110 58 4 0 8
-478 8 -1063z m-286 956 c3 -10 10 -47 17 -82 l12 -65 -119 -112 c-65 -62
-122 -113 -125 -114 -4 0 -14 41 -23 92 -16 87 -16 92 1 109 33 33 218 188
225 188 4 1 9 -7 12 -16z m6356 -68 c0 -4 -8 -20 -17 -38 -17 -30 -18 -31 -21
-9 -5 32 4 52 23 52 8 0 15 -2 15 -5z m-6674 -77 c5 -35 9 -68 9 -74 0 -11
-147 -144 -159 -144 -3 0 -6 42 -6 93 l0 92 68 47 c37 26 70 47 74 48 3 0 10
-28 14 -62z m7859 -1260 c-4 -596 -10 -1228 -14 -1405 l-6 -322 -220 -235
c-121 -129 -224 -235 -229 -235 -5 -1 -6 20 -2 45 3 26 6 651 6 1390 l0 1343
233 250 c127 137 234 250 236 250 2 1 0 -486 -4 -1081z m-8055 1010 c0 -18 6
-72 13 -120 l13 -86 -133 -107 c-74 -59 -135 -106 -137 -104 -1 2 -14 42 -29
88 -24 77 -24 86 -10 108 18 27 263 253 275 253 4 0 8 -15 8 -32z m5724 -258
c331 -121 610 -224 620 -228 17 -7 16 -10 -13 -21 -28 -12 -38 -11 -88 8 -72
27 -80 21 -11 -8 l53 -22 -28 -15 c-16 -9 -27 -18 -24 -21 3 -2 19 3 37 12 31
16 33 16 192 -50 88 -36 162 -64 165 -61 7 6 -4 11 -176 80 l-135 54 31 16
c30 15 35 14 195 -43 l163 -59 3 -54 3 -55 -68 -12 -68 -13 -330 125 c-740
280 -1415 554 -1370 557 11 1 61 8 110 15 50 7 101 13 114 14 13 0 294 -98
625 -219z m1431 26 l375 -184 0 -1392 c0 -765 -4 -1390 -8 -1388 -4 2 -44 19
-89 38 l-80 35 -7 190 c-4 104 -8 190 -9 190 -1 1 -78 31 -172 68 -93 36 -178
69 -189 73 -18 7 -18 -1 -14 -169 2 -116 0 -177 -7 -177 -5 1 -46 16 -90 35
l-80 33 -5 1416 c-3 779 -4 1416 -2 1416 2 0 171 -83 377 -184z m-1705 -123
c464 -201 748 -315 965 -387 44 -14 86 -30 93 -35 10 -6 -24 -84 -148 -330
-132 -265 -164 -322 -178 -317 -117 41 -1742 683 -1742 688 0 7 76 145 306
559 l54 97 197 -83 c109 -45 313 -131 453 -192z m-5795 162 c8 -44 11 -82 7
-85 -4 -4 -49 -39 -100 -80 -105 -82 -110 -82 -114 8 -1 28 -2 59 -2 67 -1 12
184 177 191 171 2 -1 9 -38 18 -81z m8698 -120 c16 -11 12 -16 -47 -49 l-65
-37 -61 31 -60 30 0 85 0 85 108 -66 c59 -37 115 -72 125 -79z m-188 -92 l35
-17 0 -86 0 -87 189 -86 c105 -48 192 -87 195 -87 3 0 6 29 6 65 0 36 3 65 8
65 4 0 72 -32 152 -69 l145 -69 0 -92 0 -92 230 -99 c126 -54 230 -99 232 -99
2 0 3 32 3 70 0 39 4 70 9 70 5 0 28 -9 51 -19 l42 -19 -1 -1098 c-1 -604 -3
-1100 -5 -1101 -1 -2 -305 155 -674 348 l-672 351 0 537 c0 547 11 1631 16
1631 2 0 19 -8 39 -17z m205 8 c0 -47 -15 -71 -60 -95 -26 -14 -50 -26 -52
-26 -2 0 -5 17 -5 39 -1 36 2 39 51 64 56 28 66 31 66 18z m-8955 -146 l-7
-96 -105 -77 c-57 -42 -108 -78 -112 -80 -4 -1 -12 30 -17 69 l-10 71 126 108
c69 59 127 106 128 105 2 -2 1 -47 -3 -100z m9483 -7 c87 -44 159 -83 161 -85
3 -2 -21 -30 -53 -62 l-58 -58 -171 79 c-95 44 -174 82 -177 85 -6 6 121 122
133 123 5 0 79 -37 165 -82z m-428 -3 l90 -45 0 -45 0 -45 -47 19 c-27 10 -95
38 -152 62 l-104 43 59 28 c32 15 60 28 62 28 1 0 43 -20 92 -45z m-9345 -82
l5 -58 -107 -97 c-60 -53 -112 -98 -117 -100 -17 -6 -34 68 -28 121 7 51 8 51
117 139 123 99 119 100 130 -5z m835 13 c0 -18 13 -154 30 -302 16 -148 54
-498 85 -779 30 -280 58 -529 61 -552 l6 -43 -383 195 c-262 132 -384 199
-384 210 0 21 568 1304 578 1305 4 0 7 -15 7 -34z m393 -581 l335 -570 -87
-90 c-328 -341 -412 -427 -415 -424 -4 4 -31 240 -136 1174 -27 242 -52 460
-55 485 -5 43 -5 44 9 20 8 -14 165 -281 349 -595z m8703 478 c-3 -10 -8 -31
-12 -48 -4 -16 -24 -52 -45 -79 l-39 -49 0 54 c0 49 3 57 42 96 45 46 63 54
54 26z m-2346 -123 c0 -85 -1 -90 -19 -79 -27 17 -88 -16 -128 -69 -36 -48
-76 -164 -77 -227 -2 -92 44 -134 106 -98 41 24 97 96 105 135 14 73 23 25 23
-130 l0 -169 -247 -331 c-137 -182 -250 -331 -253 -332 -3 0 -3 145 0 322 l5
323 171 346 171 345 59 27 c33 14 65 26 72 26 9 1 12 -23 12 -89z m-552 -993
l2 -356 -267 109 c-148 60 -538 219 -868 353 l-600 245 4 338 c1 187 5 342 7
346 2 3 390 -148 861 -337 l858 -343 3 -355z m3409 947 c90 -53 163 -97 163
-97 0 -1 11 -63 25 -137 35 -193 42 -175 -67 -189 -51 -7 -100 -14 -109 -17
-14 -4 -18 11 -28 93 -7 54 -15 119 -18 144 l-5 46 -100 49 c-55 27 -102 52
-104 56 -5 7 67 148 75 148 3 0 78 -43 168 -96z m-289 -52 c19 -12 22 -23 22
-73 0 -33 -2 -59 -5 -59 -6 0 -308 122 -314 127 -3 2 21 30 53 62 l59 59 81
-50 c45 -28 91 -58 104 -66z m-10540 -273 c-116 -110 -123 -115 -130 -92 -9
32 -12 134 -5 153 3 8 7 25 9 37 2 14 47 60 118 121 l115 100 8 -101 8 -101
-123 -117z m7941 217 c12 -31 13 -50 4 -103 -18 -101 -94 -206 -138 -189 -15
5 -17 19 -13 99 5 98 21 143 74 206 33 40 54 36 73 -13z m-8134 -83 c7 -37 12
-68 11 -69 0 0 -64 -51 -140 -113 -76 -62 -142 -108 -146 -104 -13 14 -26 87
-20 114 3 19 45 59 140 137 74 61 137 109 139 107 2 -2 9 -35 16 -72z m11014
-726 c24 -107 38 -154 45 -147 5 5 13 10 17 10 7 0 25 -180 34 -340 6 -97 47
-359 60 -381 4 -5 12 -9 19 -9 20 0 34 -114 26 -215 -6 -77 14 -368 26 -384 2
-2 10 2 19 9 9 7 17 11 19 9 2 -2 12 -40 23 -84 17 -68 18 -93 10 -169 -7 -73
-5 -117 12 -240 12 -83 24 -164 28 -180 l5 -30 15 29 c19 36 23 30 57 -104
l27 -103 -22 -16 c-13 -9 -37 -28 -53 -43 l-29 -26 12 -77 c10 -61 10 -80 0
-92 -7 -8 -15 -11 -19 -7 -4 4 -89 256 -189 560 l-181 552 -4 1008 c-2 554 -1
923 3 818 5 -164 11 -212 40 -348z m209 374 l-1 -88 -81 -17 c-44 -10 -88 -19
-97 -22 -14 -4 -18 9 -24 86 -4 50 -5 93 -3 95 2 2 49 11 103 18 55 8 101 15
102 16 1 1 2 -39 1 -88z m-11529 -32 c7 -44 15 -87 17 -94 5 -11 -220 -224
-247 -233 -5 -2 -9 34 -9 82 l0 87 107 119 c59 66 110 120 114 120 3 0 11 -36
18 -81z m6151 -27 l0 -68 -260 -306 -259 -306 -83 36 c-82 36 -84 36 -254 42
l-172 5 318 322 317 321 154 10 c85 5 173 10 197 10 l42 2 0 -68z m-922 -439
l-476 -476 -76 27 c-42 16 -76 29 -76 30 0 1 104 98 230 216 l230 214 0 218 0
218 48 1 c26 0 135 6 242 13 107 7 231 14 275 15 l80 1 -477 -477z m-5533 311
l5 -49 -81 -65 c-44 -36 -85 -70 -90 -76 -6 -7 -3 -65 6 -154 8 -78 15 -148
15 -155 0 -7 -36 -18 -101 -29 -56 -9 -103 -15 -103 -14 -1 2 -12 68 -25 148
-12 80 -25 155 -28 166 -4 18 25 43 188 163 140 103 195 138 200 128 4 -7 10
-35 14 -63z m8223 -893 l2 -281 -42 17 c-24 9 -196 78 -383 153 l-340 137 -5
199 -5 199 -180 62 c-200 68 -210 71 -201 46 4 -10 4 -92 0 -183 l-7 -166
-283 115 -284 114 0 272 c0 149 2 274 5 277 3 2 391 -149 862 -337 l858 -342
3 -282z m315 99 c-137 -187 -250 -340 -253 -340 -3 0 -4 117 -2 260 l3 260
196 273 c107 149 219 303 247 342 l51 69 3 -262 2 -263 -247 -339z m3349 730
c21 -63 37 -121 35 -129 -1 -10 -38 -21 -122 -37 -66 -12 -121 -22 -121 -21
-4 5 -45 269 -42 272 5 5 181 33 197 31 9 -1 29 -44 53 -116z m-7912 -105 c0
-118 -2 -215 -5 -215 -3 0 -194 70 -426 155 -231 85 -435 155 -452 155 -18 0
-84 -7 -146 -16 -62 -8 -115 -14 -117 -11 -2 2 16 23 41 46 39 36 51 41 92 42
27 0 237 13 468 28 231 16 448 29 483 30 l62 1 0 -215z m2783 -465 c166 -67
358 -144 427 -170 69 -26 341 -134 605 -239 l480 -191 18 22 c10 12 125 170
255 351 l237 329 5 -382 5 -381 404 -179 c222 -99 405 -181 408 -183 2 -2 -59
-25 -134 -51 l-138 -47 -330 -306 -330 -306 -3 303 -2 304 30 31 31 32 -1358
558 c-747 307 -1366 560 -1375 563 -10 2 -18 6 -18 8 0 2 107 129 238 281
l237 278 3 -252 2 -251 303 -122z m-2757 183 c481 -179 873 -327 872 -329 -2
-1 -83 -14 -180 -30 l-177 -28 -188 74 c-403 157 -1464 592 -1458 598 5 6 198
40 228 41 16 1 422 -146 903 -326z m-815 86 c527 -214 908 -365 1114 -439 93
-34 171 -63 173 -65 2 -2 -63 -148 -145 -324 -108 -235 -152 -320 -163 -318
-8 2 -324 134 -702 293 l-688 289 0 363 c0 199 4 362 9 362 4 0 185 -72 402
-161z m-459 -331 c-2 -244 -6 -871 -11 -1395 l-7 -951 -40 -48 -39 -49 -5 180
-5 179 -122 -137 -123 -138 0 -182 0 -183 -49 -55 -49 -54 -6 285 c-6 300 -21
1208 -32 2013 l-7 479 249 249 c137 137 249 249 249 249 0 0 -1 -199 -3 -442z
m9228 338 c12 -48 18 -91 13 -95 -9 -9 -194 -44 -199 -38 -5 5 -45 199 -42
203 7 6 194 30 199 25 4 -3 16 -46 29 -95z m-9787 -678 c13 -583 29 -1773 25
-1830 l-3 -58 -376 364 -376 365 -6 218 c-4 120 -7 534 -7 921 l0 702 368
-184 369 -185 6 -313z m5006 641 c34 -12 60 -23 58 -25 -2 -2 -30 5 -62 16
-32 11 -62 20 -66 20 -5 0 -10 -75 -12 -167 l-3 -168 -2 173 c-2 136 1 172 11
172 7 0 41 -9 76 -21z m-7564 -118 c8 -58 15 -141 15 -185 0 -44 11 -159 25
-256 34 -229 32 -225 50 -210 8 7 15 9 15 4 0 -5 7 -63 15 -129 8 -66 15 -158
15 -205 1 -121 51 -384 73 -388 26 -5 32 -45 29 -202 -2 -129 6 -251 24 -374
6 -37 8 -38 20 -21 8 10 16 16 20 13 3 -3 14 -43 25 -89 18 -72 19 -95 11
-167 -8 -71 -6 -109 14 -251 13 -91 25 -173 27 -181 2 -10 9 -4 19 15 20 36
20 35 47 -105 19 -100 20 -161 25 -1180 3 -646 1 -1059 -4 -1035 -5 22 -43
252 -84 510 -42 259 -145 902 -230 1430 l-154 960 -11 895 c-11 893 -13 1284
-6 1265 3 -5 11 -57 20 -114z m7661 60 l139 -49 0 -161 c-1 -88 -3 -163 -6
-166 -4 -3 -70 18 -147 46 l-142 52 0 163 c0 90 4 164 8 164 5 0 71 -22 148
-49z m25 14 c19 -8 29 -14 23 -15 -7 0 -27 7 -45 15 -19 8 -29 14 -23 15 7 0
27 -7 45 -15z m99 -37 c10 -6 7 -7 -10 -2 -14 3 -32 11 -40 16 -10 6 -7 7 10
2 14 -3 32 -11 40 -16z m38 -165 c-2 -161 -6 -143 -10 50 -2 59 0 107 5 107 4
0 6 -71 5 -157z m4532 42 l0 -104 -37 -10 c-64 -17 -144 -33 -148 -29 -2 1 -7
51 -10 109 l-8 107 79 15 c135 26 124 33 124 -88z m-6745 -241 c-133 -260
-155 -308 -141 -316 14 -8 15 -47 15 -326 0 -302 1 -317 19 -327 10 -6 179
-73 375 -150 196 -77 357 -143 357 -147 0 -3 -225 -269 -501 -589 -276 -321
-497 -584 -492 -586 19 -6 1738 -533 2743 -841 591 -182 1204 -370 1363 -418
158 -49 287 -91 287 -95 0 -3 -55 -47 -123 -97 l-123 -90 -233 -16 c-129 -9
-235 -17 -236 -18 -2 -2 -17 -37 -35 -78 -18 -41 -36 -79 -40 -83 -6 -7 -209
-27 -218 -22 -1 1 61 86 139 189 77 103 139 189 137 191 -2 2 -276 70 -610
151 l-608 148 0 55 0 56 -403 149 c-221 81 -632 233 -914 337 l-512 189 -313
0 -313 0 -243 -315 -243 -315 1 -454 0 -453 -37 -7 c-21 -3 -69 -6 -107 -6
-64 0 -78 4 -216 70 -81 38 -151 70 -156 70 -5 0 -38 -34 -72 -75 l-62 -75
-50 33 -49 32 25 26 c13 14 175 165 359 335 l334 309 1 389 c0 388 0 390 22
413 l22 24 -99 99 c-90 90 -97 100 -84 117 23 29 1050 1246 1071 1269 l19 21
-188 78 c-104 43 -190 80 -192 82 -3 2 -8 83 -12 181 -7 165 -6 178 11 197 18
19 18 33 11 270 l-8 250 236 240 c130 132 238 239 240 238 2 -1 -68 -140 -154
-309z m560 276 c39 -16 526 -216 1084 -445 558 -229 1055 -432 1103 -452 49
-19 87 -37 86 -39 -12 -12 -288 78 -468 153 -118 49 -515 213 -881 364 -401
165 -660 276 -650 280 9 4 -5 9 -34 13 -27 5 -108 32 -179 62 -71 30 -131 53
-133 51 -2 -3 44 -24 103 -48 65 -27 99 -46 88 -48 -11 -2 6 -9 36 -16 51 -10
1753 -706 1746 -713 -2 -2 -41 7 -87 18 -46 12 -96 23 -111 25 -16 2 -460 186
-987 409 -527 223 -970 410 -982 416 -17 6 11 7 86 3 87 -5 125 -12 180 -33z
m-5920 -84 l0 -84 -80 -17 c-44 -9 -90 -19 -102 -22 -23 -5 -23 -4 -23 90 l0
95 68 9 c37 6 83 11 102 12 l35 1 0 -84z m6548 -340 c546 -233 1010 -432 1032
-441 26 -11 35 -19 25 -22 -8 -3 -175 -61 -370 -129 l-356 -123 -799 295
c-440 162 -801 296 -802 298 -6 5 262 546 270 546 4 0 454 -191 1000 -424z
m5577 177 c7 -32 15 -75 20 -95 9 -43 17 -38 -102 -63 -43 -9 -78 -21 -78 -26
0 -5 -4 -9 -8 -9 -5 0 -14 48 -22 108 -7 59 -14 109 -14 112 -1 4 126 25 176
29 13 1 19 -13 28 -56z m-12076 -80 c22 -65 39 -124 40 -132 1 -11 -31 -21
-119 -38 -66 -12 -122 -19 -126 -15 -8 9 -39 201 -39 240 0 28 1 29 93 44 50
8 97 16 102 17 6 0 28 -52 49 -116z m5136 94 c0 -1 -34 -36 -75 -77 l-75 -74
0 65 0 66 53 10 c53 11 97 15 97 10z m-189 -109 c0 -46 6 -200 12 -343 l12
-260 -325 -348 -325 -348 -7 313 -7 313 167 342 167 341 140 35 c77 19 146 35
153 36 9 1 12 -22 13 -81z m5599 -218 c107 -57 197 -104 199 -106 2 -2 -54
-81 -124 -175 -70 -95 -129 -177 -131 -183 -2 -6 181 -118 411 -251 229 -131
418 -243 421 -247 3 -4 41 -139 84 -299 l79 -291 -80 -316 c-45 -175 -83 -319
-85 -321 -5 -5 -4 -7 -37 62 l-27 58 -38 -28 c-21 -15 -86 -64 -144 -108
l-106 -80 -7 -80 -7 -81 -113 -92 c-63 -50 -116 -89 -118 -84 -3 4 -8 29 -12
56 -3 27 -9 54 -12 62 -3 8 -62 -28 -174 -109 l-170 -122 6 -76 7 -76 -114
-93 -113 -93 -24 57 c-13 31 -28 56 -33 56 -7 0 -341 -240 -359 -259 -4 -3 -3
-33 2 -66 l8 -60 -102 -103 c-56 -56 -105 -101 -109 -100 -4 2 -25 27 -46 55
l-39 53 -26 -20 c-14 -11 -32 -20 -41 -20 -16 0 -4356 1327 -4363 1334 -4 4
892 1061 953 1125 l23 25 138 -54 c76 -30 140 -55 142 -57 3 -2 -106 -112
-242 -245 -137 -132 -246 -242 -243 -245 3 -4 49 6 109 23 16 5 17 -14 17
-300 l0 -304 63 -21 c34 -11 352 -111 707 -221 355 -110 650 -202 657 -205 11
-4 316 280 606 563 59 58 108 103 110 101 1 -2 -2 -186 -8 -409 -6 -223 -8
-408 -5 -412 3 -4 344 -105 758 -224 l752 -215 293 263 c162 145 490 439 730
653 l436 390 1 402 c0 312 3 402 13 406 9 3 8 8 -3 20 -52 53 -816 717 -824
717 -6 0 -94 -29 -196 -64 -102 -36 -186 -64 -187 -62 -1 1 101 112 228 246
l229 244 0 79 0 78 43 -24 c23 -14 130 -71 237 -127z m-1163 24 c-2 -2 -54 16
-115 41 -62 25 -114 45 -117 45 -2 0 -6 -75 -8 -167 l-3 -168 -2 177 -2 176
125 -50 c69 -28 124 -52 122 -54z m2763 87 c0 -10 3 -38 6 -63 l6 -44 -82 -18
c-45 -9 -84 -15 -86 -13 -3 2 -13 34 -24 71 l-19 66 22 5 c29 6 81 11 135 13
35 2 42 -1 42 -17z m-8550 -303 c344 -138 627 -252 628 -254 6 -5 25 -654 20
-660 -5 -4 -267 95 -1375 523 -15 6 -17 203 -6 501 l6 180 51 -20 c28 -11 332
-132 676 -270z m5727 219 l131 -52 4 -160 c2 -88 2 -162 1 -164 -1 -2 -67 24
-146 59 l-144 62 -7 82 c-3 44 -6 116 -6 160 0 70 2 77 18 72 9 -4 76 -30 149
-59z m-9268 -34 c38 -146 39 -154 28 -158 -16 -5 -181 -35 -194 -35 -9 0 -50
197 -42 204 7 6 122 23 161 25 35 1 38 -1 47 -36z m9371 17 c8 -5 11 -10 5
-10 -5 0 -17 5 -25 10 -8 5 -10 10 -5 10 6 0 17 -5 25 -10z m49 -24 c8 -9 11
-56 8 -142 l-3 -129 -2 132 c-2 114 -4 133 -19 142 -10 6 -13 11 -7 11 6 0 17
-6 23 -14z m2691 -75 c0 -27 3 -62 6 -78 l6 -30 -107 -17 c-59 -10 -108 -16
-110 -14 -3 3 22 159 27 163 2 2 115 18 166 24 8 1 12 -15 12 -48z m-6145
-251 c380 -139 702 -257 718 -262 15 -6 27 -13 27 -17 0 -4 -101 -105 -224
-224 l-225 -218 -508 187 c-279 102 -523 192 -541 200 l-34 14 6 167 c4 93 9
227 12 300 l6 131 36 -13 c21 -7 348 -126 727 -265z m5273 -55 l321 -170 190
-568 190 -568 -82 -65 -82 -64 -18 69 -19 69 -118 -76 -118 -76 5 -66 5 -65
-89 -77 c-48 -42 -89 -73 -91 -68 -2 4 31 135 73 290 l77 282 -82 292 c-45
160 -85 302 -89 315 -5 19 -94 72 -419 250 -227 124 -411 231 -410 236 2 6 56
83 122 171 l118 161 97 -51 c53 -28 242 -127 419 -221z m-11214 93 c-3 -57 -9
-106 -13 -109 -3 -3 -37 -14 -76 -23 -38 -9 -78 -19 -87 -22 -16 -5 -18 5 -18
109 l0 115 78 15 c134 26 124 33 116 -85z m12096 -32 c6 -48 9 -91 6 -94 -8
-7 -144 -31 -183 -31 -36 -1 -39 7 -46 126 l-3 63 30 5 c17 3 63 11 101 19 39
7 73 10 76 7 4 -3 12 -46 19 -95z m-4495 64 c39 -11 81 -18 95 -16 14 3 18 2
10 -1 -16 -7 378 -115 396 -108 11 3 307 -115 321 -129 4 -3 -7 -2 -23 4 -16
5 -207 61 -424 124 -354 103 -485 144 -455 146 6 0 42 -9 80 -20z m495 -200
c250 -66 462 -124 471 -128 13 -5 -141 -158 -657 -652 -370 -355 -675 -645
-678 -645 -4 0 -194 222 -439 513 -51 60 -68 88 -61 97 5 7 204 223 442 479
311 334 439 465 450 462 10 -3 222 -59 472 -126z m-802 -103 c-95 -105 -278
-310 -406 -454 -129 -144 -241 -265 -250 -267 -95 -29 -766 -215 -768 -213 -1
1 200 198 447 437 l450 435 337 127 c185 69 343 127 350 127 7 1 -65 -86 -160
-192z m-5918 -437 c-6 -4 -160 -58 -342 -121 l-330 -114 -216 -248 c-241 -278
-238 -276 -223 -128 5 44 6 91 4 104 -4 20 74 101 554 570 l558 545 3 -301 c1
-201 -1 -303 -8 -307z m9129 220 l352 -315 -28 -25 c-15 -14 -314 -279 -663
-589 -349 -310 -651 -579 -671 -598 l-35 -33 -341 348 -341 349 656 615 656
616 32 -27 c17 -14 190 -168 383 -341z m-10477 236 c10 -50 15 -93 11 -97 -5
-4 -44 -14 -88 -23 -44 -9 -85 -23 -91 -31 -9 -12 -15 9 -29 96 -9 61 -14 114
-10 117 7 7 150 30 174 28 9 -1 20 -31 33 -90z m12146 7 c6 -43 9 -79 7 -81
-9 -9 -180 -41 -186 -35 -10 12 -49 156 -43 162 6 6 139 29 180 30 l31 1 11
-77z m-7318 -200 l0 -258 -63 -69 -62 -70 -5 186 -5 186 -122 -138 -123 -139
0 -190 0 -190 -111 -123 c-62 -68 -116 -124 -120 -126 -5 -2 -9 108 -9 245 l0
250 303 346 c166 191 305 347 310 347 4 0 7 -116 7 -257z m5043 204 c-94 -87
-1160 -1062 -1180 -1080 -18 -15 -633 -261 -639 -254 -1 1 289 268 645 592
l646 590 180 63 c99 35 227 80 285 101 58 20 106 36 108 35 2 -1 -18 -22 -45
-47z m-6428 -380 c517 -206 690 -278 695 -293 4 -10 10 -129 14 -263 6 -200 5
-243 -6 -239 -7 3 -325 122 -705 264 l-693 259 0 273 c0 149 1 272 3 272 1 0
313 -123 692 -273z m8724 211 c0 -18 -3 -50 -7 -72 l-7 -39 -95 -23 c-52 -13
-100 -23 -106 -24 -12 0 6 143 20 157 7 7 131 30 174 32 19 1 22 -4 21 -31z
m-3570 -323 l0 -250 -296 -270 c-163 -148 -462 -422 -665 -607 -202 -186 -370
-338 -371 -338 -2 0 -10 129 -17 287 l-13 287 64 57 c35 32 339 309 674 617
l610 559 7 -46 c3 -25 6 -158 7 -296z m-8534 288 c4 -27 7 -55 8 -63 2 -10
-22 -21 -81 -36 -45 -12 -84 -18 -86 -15 -12 25 -38 132 -33 137 7 7 100 20
154 23 31 1 32 -1 38 -46z m4622 -220 c-2 -32 -3 -8 -3 52 0 61 1 87 3 58 2
-29 2 -78 0 -110z m424 57 c41 -18 77 -35 81 -39 4 -4 -220 -277 -498 -606
-279 -330 -520 -616 -535 -635 l-29 -35 -284 284 c-242 242 -287 282 -305 276
-12 -3 -190 -78 -396 -165 l-375 -158 -307 -300 -308 -300 -3 65 c-2 36 -1 67
1 70 3 2 22 -6 42 -19 l38 -22 31 35 c17 20 133 144 259 277 l227 241 0 347
c0 273 3 345 13 341 6 -3 284 -113 617 -246 333 -133 649 -259 703 -281 l98
-39 354 399 355 398 -7 106 -6 107 80 -35 c44 -18 113 -48 154 -66z m-518
-359 c-42 -47 -89 -99 -105 -114 l-28 -28 0 178 0 178 51 58 c28 31 55 55 59
52 5 -3 28 18 52 46 l43 51 3 -167 2 -167 -77 -87z m-4504 283 l1 -42 -62 -11
c-150 -25 -148 -25 -148 -5 1 11 6 48 13 84 l12 65 85 10 85 10 7 -35 c4 -19
7 -54 7 -76z m12081 59 c6 -32 13 -68 15 -79 4 -20 -2 -23 -84 -38 -49 -9 -95
-16 -103 -16 -8 0 -21 29 -34 79 l-21 79 106 15 c58 8 107 15 108 16 1 0 7
-25 13 -56z m-12089 -145 c0 -2 6 -45 13 -96 9 -66 9 -95 2 -98 -13 -4 -210
-33 -212 -31 -1 1 -5 45 -9 98 l-7 97 78 15 c73 14 133 20 135 15z m1132 -100
c-44 -51 -151 -176 -238 -278 l-158 -185 -269 -94 c-183 -64 -272 -91 -279
-84 -7 7 58 90 203 260 l213 249 295 111 c162 62 299 112 303 112 5 1 -27 -41
-70 -91z m509 -271 l356 -363 -271 -278 -272 -278 -271 279 c-148 153 -300
310 -337 349 l-67 72 247 290 c137 160 251 291 254 291 3 1 165 -162 361 -362z
m10478 349 c0 -2 23 -77 50 -166 28 -89 50 -165 50 -169 0 -4 -30 -32 -67 -63
-38 -30 -96 -78 -129 -106 l-62 -52 -20 83 -21 82 56 57 57 57 -28 88 c-15 48
-34 107 -41 130 l-13 42 32 6 c67 10 82 12 109 14 15 0 27 -1 27 -3z m-1380
-445 l0 -349 -666 -597 c-366 -328 -667 -595 -669 -593 -10 10 -23 664 -14
673 14 14 1344 1213 1347 1214 1 1 2 -156 2 -348z m-10654 192 c4 -27 8 -63 8
-82 l1 -34 -88 -20 c-49 -10 -90 -17 -93 -15 -6 7 -52 162 -49 166 4 4 155 29
187 31 25 1 27 -3 34 -46z m6747 -308 l265 -309 6 -156 c3 -85 9 -215 12 -289
4 -108 3 -133 -8 -129 -7 3 -131 41 -275 84 l-263 79 -2 179 -3 179 -187 63
-188 62 -2 -182 -3 -182 -197 59 -198 60 0 76 c0 92 19 513 23 517 5 5 742
203 748 201 4 -1 126 -141 272 -312z m-6725 73 l-3 -72 -103 -24 c-57 -13
-106 -22 -109 -19 -2 3 1 39 7 81 12 73 14 76 44 81 50 9 140 23 154 24 10 1
12 -17 10 -71z m12064 -610 c2 -359 3 -860 3 -1113 l0 -460 -345 -263 -345
-264 -3 701 c-1 385 -4 701 -7 701 -2 0 -300 -238 -661 -529 l-658 -530 3
-684 3 -683 -575 -431 -574 -431 -6 436 c-4 239 -7 756 -7 1148 l0 713 141
107 c77 58 143 104 145 101 3 -2 0 -51 -5 -108 -5 -57 -9 -105 -7 -106 1 -2
87 63 189 145 l187 147 0 91 0 91 110 77 c61 42 114 75 119 72 5 -3 12 -39 15
-79 4 -40 11 -78 14 -84 5 -8 70 45 177 141 l170 154 5 93 5 92 115 84 115 83
3 -65 c2 -36 6 -65 10 -65 4 1 79 52 166 114 l159 113 -2 84 -1 84 63 46 c34
25 85 62 113 82 l52 37 12 -87 c20 -141 3 -143 203 19 l176 143 -6 96 -6 95
92 73 c51 41 94 72 96 70 2 -3 12 -48 22 -102 l18 -98 165 141 c181 155 171
140 156 250 l-8 55 89 77 c48 42 91 77 95 77 4 1 8 -293 10 -651z m-243 453
c6 -39 11 -74 11 -80 0 -10 -249 -236 -254 -230 -5 6 -28 190 -24 193 38 33
242 186 247 186 5 0 13 -31 20 -69z m-9409 18 c0 -17 -4 -28 -10 -24 -7 4 -10
-49 -10 -151 l0 -157 -87 -96 c-48 -53 -95 -104 -105 -114 -17 -17 -18 -11
-18 156 l0 173 38 35 37 34 -32 -35 -33 -36 2 -159 2 -160 3 156 3 157 92 103
c50 57 95 106 100 107 4 2 8 12 8 23 0 10 2 19 5 19 3 0 5 -14 5 -31z m-2401
-60 c7 -38 11 -72 8 -75 -2 -2 -47 -13 -100 -23 l-95 -18 -23 79 c-12 43 -20
80 -18 82 6 5 137 23 180 25 l36 1 12 -71z m8837 -275 l339 -346 5 -370 c3
-203 4 -371 2 -372 -1 -2 -134 36 -295 83 l-292 86 -3 185 -2 186 -178 58
c-97 32 -183 61 -189 63 -10 4 -13 -37 -13 -187 0 -150 -3 -191 -12 -187 -7 2
-104 31 -214 63 l-201 58 3 266 c3 146 7 319 10 385 l6 120 331 127 c183 69
339 126 348 127 10 1 166 -152 355 -345z m-7897 -15 l331 -337 0 -231 c0 -127
-2 -231 -4 -231 -1 0 -18 5 -36 11 l-32 12 3 79 4 80 -190 100 c-122 65 -193
97 -201 92 -7 -5 -30 -23 -51 -40 l-38 -32 -111 44 -111 45 5 72 c4 71 4 73
-23 85 -15 7 -26 15 -24 17 3 2 69 -18 148 -46 78 -27 147 -49 152 -49 5 0 9
88 9 209 l0 209 -190 64 -190 64 0 -203 c0 -112 -3 -203 -6 -203 -5 0 -246
134 -262 145 -5 4 -44 246 -40 250 8 8 494 134 509 132 9 -1 166 -153 348
-338z m3069 -426 c-100 -93 -453 -418 -628 -578 -224 -205 -564 -506 -595
-524 -20 -13 -31 -13 -86 0 l-64 15 3 89 3 90 -127 70 c-70 39 -163 89 -207
113 -63 34 -100 64 -178 146 l-98 103 667 611 667 612 348 -349 349 -348 -54
-50z m7471 627 c1 -32 -6 -40 -78 -97 -44 -35 -81 -63 -83 -63 -1 0 -2 42 0
92 l3 93 72 47 72 48 7 -43 c3 -23 7 -58 7 -77z m-8301 31 c-29 -27 -311 -282
-626 -568 -545 -493 -577 -521 -648 -551 l-74 -31 -65 37 c-36 20 -65 40 -65
44 0 4 204 202 453 440 l453 433 299 121 c165 67 306 122 313 123 8 1 -10 -21
-40 -48z m-1189 -294 c1 -275 1 -278 -19 -267 -19 10 -20 21 -20 288 0 209 3
281 13 291 21 21 25 -22 26 -312z m291 310 c0 -2 -10 -12 -22 -23 l-23 -19 19
23 c18 21 26 27 26 19z m-1732 -103 c73 -26 131 -49 129 -51 -3 -2 -62 17
-133 42 -70 25 -129 45 -131 45 -1 0 -4 -84 -6 -187 l-2 -188 -3 193 c-1 105
1 192 5 192 4 0 68 -21 141 -46z m40 -38 l142 -50 -1 -130 c0 -72 -3 -147 -7
-167 l-7 -35 -142 50 -143 51 0 168 c0 93 4 167 8 165 5 -1 72 -25 150 -52z
m1301 -351 l1 -290 -136 -137 -135 -137 -34 20 -35 21 -73 -46 c-65 -40 -78
-45 -101 -36 l-26 10 0 227 0 228 263 272 262 272 6 -57 c4 -31 7 -187 8 -347z
m-1830 285 l36 -105 188 -106 189 -107 -55 -31 c-30 -17 -60 -31 -67 -31 -16
0 -433 219 -441 232 -10 15 -53 228 -47 233 7 7 110 23 137 22 21 -2 28 -14
60 -107z m6095 94 c26 -9 45 -18 43 -20 -2 -2 -23 3 -47 11 -23 8 -46 15 -51
15 -5 0 -10 -75 -11 -167 l-2 -168 -3 160 c-2 87 -1 165 1 172 7 17 13 16 70
-3z m111 -63 l140 -49 3 -157 3 -157 -23 7 c-20 6 -136 43 -245 76 l-33 11 0
159 c0 87 3 159 8 159 4 0 70 -22 147 -49z m53 4 c29 -9 52 -19 49 -21 -5 -5
-127 36 -127 43 0 3 6 3 13 1 6 -3 36 -13 65 -23z m-5573 -181 l1 -179 -3 175
c-3 123 -7 177 -16 183 -9 6 -8 7 3 4 13 -3 15 -32 15 -183z m10531 39 c4 -65
8 -121 9 -125 0 -4 -61 -52 -134 -108 -94 -70 -137 -97 -142 -88 -4 7 -15 47
-24 89 -17 74 -17 77 0 100 21 26 266 247 276 248 4 1 10 -52 15 -116z m-4846
97 c0 -5 -2 -10 -4 -10 -3 0 -8 5 -11 10 -3 6 -1 10 4 10 6 0 11 -4 11 -10z
m4485 -172 c3 -29 8 -65 11 -79 5 -24 -5 -34 -101 -104 -58 -43 -109 -75 -112
-72 -3 4 -7 40 -9 81 l-3 74 97 76 c53 41 100 75 104 76 3 0 9 -24 13 -52z
m-10752 -171 l147 -81 -6 -60 -6 -61 206 -102 c113 -57 208 -103 211 -103 3 0
6 19 6 43 1 23 4 54 8 68 l6 26 145 -71 c80 -40 144 -76 144 -81 -1 -6 -4 -44
-8 -85 l-6 -75 173 -112 c94 -61 173 -110 174 -109 2 1 7 44 12 95 6 52 12 95
14 98 3 2 77 -33 166 -79 l161 -83 -7 -45 c-16 -105 -31 -90 192 -205 110 -58
203 -105 206 -105 4 0 10 32 14 70 4 39 10 70 14 68 3 -2 73 -38 153 -81 l147
-78 3 -86 3 -87 184 -83 c101 -46 186 -81 189 -78 3 3 8 33 10 66 3 33 8 59
12 57 4 -2 73 -34 154 -73 138 -66 146 -71 142 -95 -3 -14 -6 -53 -8 -88 l-3
-63 230 -99 230 -99 3 70 c2 38 6 69 10 69 4 0 52 -19 107 -43 l100 -44 3
-1136 c1 -625 -1 -1137 -6 -1137 -4 0 -877 434 -1940 964 l-1932 965 0 1151 0
1152 48 -27 c26 -15 113 -63 195 -108z m475 48 c62 -20 111 -39 109 -41 -5 -6
-238 73 -246 83 -4 3 1 4 9 1 8 -3 66 -22 128 -43z m-158 -87 c0 -13 -4 -28
-8 -34 -7 -10 -75 -54 -85 -54 -2 0 -7 14 -9 31 -4 28 -1 32 41 54 57 30 61
30 61 3z m10183 -177 l-8 -74 -114 -79 c-62 -43 -115 -78 -116 -76 -2 2 -4 36
-6 77 l-4 74 125 99 c142 111 137 112 123 -21z m-2236 23 c-2 -2 -43 10 -92
26 -49 17 -90 30 -92 30 -2 0 -3 -76 -3 -170 0 -122 -3 -170 -12 -170 -8 0 -9
33 -5 122 4 66 7 147 7 178 l0 57 100 -35 c56 -19 99 -36 97 -38z m-7832 18
l90 -48 3 -58 c2 -32 -1 -56 -5 -54 -78 35 -294 151 -289 155 16 16 83 52 96
52 8 1 56 -21 105 -47z m4914 -48 c152 -53 280 -100 284 -104 4 -4 -6 -13 -24
-20 -30 -13 -36 -12 -97 22 l-65 36 -49 -32 c-62 -41 -62 -53 2 -21 l50 25 67
-30 c69 -32 87 -32 119 -1 21 19 33 15 934 -302 l105 -37 -205 5 -205 6 -812
262 c-446 144 -810 263 -808 265 3 3 232 15 384 20 33 2 116 -23 320 -94z
m-4515 -3 l159 -84 -39 -24 c-66 -40 -71 -39 -219 32 -76 36 -141 67 -143 70
-6 6 68 97 77 93 3 -2 78 -41 165 -87z m4525 -222 c437 -154 798 -282 802
-285 5 -3 -69 -121 -163 -263 l-172 -257 -196 61 c-1256 393 -1530 481 -1526
492 3 6 96 133 207 281 196 262 203 270 228 260 14 -5 383 -135 820 -289z
m2891 242 l135 -48 3 -161 c1 -89 1 -162 -1 -162 -2 0 -17 4 -33 9 -16 6 -82
26 -146 46 l-118 36 0 165 c0 125 3 164 13 163 6 0 73 -22 147 -48z m-4353
-334 l8 -298 -325 -324 c-381 -379 -381 -379 -404 -362 -15 11 -16 23 -9 95
l9 83 -170 89 c-94 49 -177 92 -183 97 -9 5 160 165 520 492 524 477 532 484
539 455 4 -16 11 -163 15 -327z m6307 326 c3 -16 8 -47 11 -70 l6 -41 -123
-106 -123 -105 -13 44 c-8 29 -10 61 -5 90 8 44 13 50 118 130 61 46 113 84
117 84 3 1 9 -11 12 -26z m-9199 -187 c4 -25 4 -49 0 -55 -3 -6 -29 -23 -56
-36 l-49 -25 0 54 c0 54 1 55 43 79 23 14 45 25 49 26 4 1 10 -19 13 -43z
m464 -127 c42 -23 116 -64 165 -92 l89 -50 -59 -33 c-33 -19 -64 -34 -70 -34
-6 0 -89 38 -184 83 l-173 84 74 41 c41 23 76 42 78 42 2 0 38 -19 80 -41z
m-350 -1 l73 -33 -6 -79 c-4 -44 -8 -82 -10 -84 -2 -1 -63 35 -136 82 l-132
85 59 30 c32 17 63 30 68 31 6 0 43 -15 84 -32z m8805 -108 l7 -95 -128 -113
-128 -113 -8 76 c-5 42 -5 84 -1 93 3 9 7 26 8 38 1 14 40 53 120 118 65 53
120 95 121 94 2 -2 6 -46 9 -98z m1241 -1298 c-2 -2 -34 6 -70 19 l-65 23 0
607 0 607 68 55 67 56 3 -681 c1 -375 0 -683 -3 -686z m-1550 1227 l7 -65
-143 -107 c-159 -119 -156 -119 -166 -23 l-6 53 144 111 c79 61 147 107 151
104 3 -4 9 -37 13 -73z m-7704 -40 l102 -110 -29 -30 -29 -29 -98 33 -99 32 7
92 c6 75 5 93 -6 93 -13 1 28 29 42 30 4 0 53 -50 110 -111z m4604 0 c116 -11
239 -26 275 -33 l65 -11 -3 -325 c-2 -179 -5 -326 -5 -327 -1 -1 -76 -8 -167
-17 -91 -9 -185 -19 -210 -22 l-46 -5 -29 -74 -30 -74 -85 -11 c-47 -6 -109
-15 -138 -19 -29 -5 -54 -5 -56 -2 -2 3 -7 33 -11 66 -11 100 -7 95 -89 95
l-73 0 -7 53 c-13 111 -11 117 95 324 56 109 129 247 162 307 l62 108 40 -6
c22 -3 135 -15 250 -27z m4475 -16 c-1 -47 -3 -49 -63 -96 l-62 -49 -3 43 c-3
42 -1 46 55 96 32 29 61 52 66 53 4 0 7 -21 7 -47z m-9278 -23 c-7 -41 -12
-47 -65 -77 l-57 -32 0 60 c0 49 3 59 18 59 9 1 37 12 62 25 25 13 46 20 47
17 2 -4 -1 -27 -5 -52z m3166 -251 c461 -149 862 -279 892 -288 l55 -17 3 -87
3 -87 -78 -1 c-43 -1 -105 -4 -137 -8 l-59 -6 -35 -81 -34 -81 -90 -7 c-50 -3
-117 -6 -150 -6 -57 0 -58 0 -58 29 0 15 -3 49 -6 75 l-7 46 -263 0 -264 0
-42 -84 -41 -84 -71 -6 c-39 -3 -114 -7 -166 -8 l-95 -2 -9 67 -8 67 -78 0
-78 0 -6 48 c-3 26 -8 202 -11 392 -3 190 -8 357 -11 373 -3 15 -3 27 1 27 4
0 383 -122 843 -271z m6085 -87 c-15 -13 -45 -37 -65 -53 l-38 -31 1 139 0
138 62 51 62 51 3 -136 3 -136 -28 -23z m-123 240 l0 -49 -89 -71 c-48 -40
-90 -72 -93 -72 -2 0 -4 21 -3 46 0 45 2 47 90 120 49 41 91 74 92 74 2 0 3
-22 3 -48z m-8558 -64 c81 -50 145 -94 143 -98 -3 -5 -30 -22 -61 -39 l-55
-32 -162 77 c-89 42 -166 80 -170 84 -12 10 125 110 143 104 8 -3 81 -46 162
-96z m-447 37 l98 -46 -7 -46 c-3 -26 -8 -48 -10 -50 -2 -2 -66 27 -142 65
l-138 69 49 26 c28 14 51 26 51 27 1 0 45 -20 99 -45z m5402 -40 c169 -42 428
-105 575 -141 l267 -65 -132 -185 c-73 -101 -135 -184 -138 -184 -4 0 -10 12
-13 28 -4 15 -12 44 -17 65 l-10 39 -127 -6 c-70 -4 -175 -9 -234 -12 l-108
-6 -52 -83 -53 -83 -50 -6 c-27 -3 -82 -6 -120 -6 l-71 0 -12 103 c-14 107
-29 617 -19 617 3 0 144 -34 314 -75z m3603 -139 l0 -135 -89 -75 c-49 -42
-91 -76 -94 -76 -2 0 -5 60 -5 134 l0 135 91 75 c50 42 93 76 94 76 2 0 3 -60
3 -134z m-1541 -2 c7 -58 9 -99 3 -103 -5 -3 -64 -51 -131 -105 -67 -54 -123
-97 -124 -95 -2 2 0 38 3 80 l5 76 109 122 c60 66 112 121 116 121 3 0 12 -43
19 -96z m1341 47 l0 -50 -84 -70 c-46 -39 -86 -71 -90 -71 -4 0 -6 21 -5 46 3
44 6 48 88 119 47 41 87 74 89 75 1 0 2 -22 2 -49z m-8210 -98 c0 -35 -4 -40
-49 -65 -27 -16 -52 -28 -55 -28 -3 0 -6 17 -6 38 0 36 3 39 53 64 28 15 53
27 55 27 1 1 2 -16 2 -36z m8210 -111 l0 -138 -85 -72 c-47 -40 -87 -72 -90
-72 -3 0 -5 60 -5 134 l0 133 88 76 c48 42 88 76 90 76 1 1 2 -61 2 -137z
m359 -38 l1 -62 -52 -43 c-98 -82 -88 -87 -88 49 l0 120 63 53 62 52 7 -54 c3
-30 6 -82 7 -115z m-1995 117 l27 -28 -188 -140 -188 -140 -215 -22 c-118 -12
-232 -25 -252 -28 l-37 -5 34 78 34 79 208 14 207 14 160 103 c89 56 166 103
172 103 5 1 23 -12 38 -28z m1446 -30 l0 -50 -87 -73 c-119 -100 -113 -98
-113 -40 l0 49 98 81 c53 45 98 82 100 82 1 0 2 -22 2 -49z m-7491 -62 c86
-45 158 -83 160 -86 3 -2 -21 -30 -53 -62 l-58 -58 -174 81 c-96 44 -173 84
-172 88 3 8 130 118 137 118 2 0 74 -37 160 -81z m-418 -10 l89 -42 0 -43 c0
-24 -2 -44 -4 -44 -6 0 -278 111 -290 118 -11 6 72 51 97 52 10 0 59 -19 108
-41z m8298 -91 l0 -123 -89 -72 c-48 -40 -90 -73 -93 -73 -2 0 -4 54 -3 120
l1 119 90 75 c50 41 91 75 93 75 1 1 2 -54 1 -121z m-389 -47 l0 -138 -100
-82 -100 -82 0 138 0 139 98 81 c53 45 98 82 100 83 1 0 2 -62 2 -139z m-212
30 c-3 -48 -4 -49 -95 -125 l-93 -77 0 53 0 53 88 72 c48 39 91 72 95 72 4 1
7 -21 5 -48z m762 -113 l-1 -123 -56 -45 c-89 -72 -83 -77 -83 59 l0 119 67
56 c37 31 69 56 70 56 2 0 3 -55 3 -122z m-360 -37 l0 -119 -84 -71 c-47 -39
-87 -71 -90 -71 -3 0 -6 53 -6 118 l0 118 83 71 c45 40 85 72 90 72 4 1 7 -53
7 -118z m-7525 67 c-6 -36 -74 -148 -90 -148 -2 0 -1 26 2 58 5 51 10 61 47
94 22 20 43 37 44 38 2 0 1 -19 -3 -42z m4553 -29 c-23 -34 -52 -65 -63 -69
-18 -7 -326 -32 -331 -27 -1 1 16 32 38 69 l39 66 82 6 c45 4 100 8 122 9 22
2 66 4 98 5 l58 2 -43 -61z m92 -22 l12 -54 -40 -64 c-43 -68 -44 -68 -60 15
-10 46 -8 51 26 106 21 32 40 56 43 54 3 -2 11 -27 19 -57z m2480 -71 l0 -135
-89 -75 c-49 -42 -92 -76 -95 -76 -3 0 -6 60 -6 134 l0 133 88 76 c48 42 90
76 95 76 4 1 7 -59 7 -133z m-3361 82 c-13 -25 -78 -127 -82 -129 -13 -6 -397
-22 -397 -16 0 4 16 39 35 77 35 70 36 70 78 71 23 1 94 5 157 9 63 3 139 7
168 8 52 2 52 2 41 -20z m3104 -135 l-48 -42 -3 52 c-3 49 -1 53 34 82 21 16
43 35 48 41 8 9 12 -3 14 -40 3 -50 2 -52 -45 -93z m857 14 l0 -123 -85 -69
c-46 -39 -89 -71 -94 -73 -7 -2 -9 40 -8 116 l2 119 90 76 c50 42 91 76 93 77
1 0 2 -55 2 -123z m-7237 47 l132 -67 208 7 c114 3 207 4 207 1 0 -3 -16 -30
-36 -60 -33 -49 -41 -55 -73 -56 -20 0 -112 -6 -206 -13 l-170 -13 -140 58
c-77 32 -139 63 -138 68 4 14 74 141 79 141 2 0 64 -30 137 -66z m2352 -33
c-43 -63 -51 -70 -89 -75 -83 -11 -303 -28 -318 -25 -13 3 -11 15 15 74 17 39
32 72 35 75 3 5 394 27 401 23 2 -1 -18 -34 -44 -72z m-2685 -4 l85 -54 5 -61
c3 -34 3 -62 0 -62 -13 0 -310 123 -310 129 0 3 23 32 51 63 41 47 54 56 67
48 9 -5 55 -34 102 -63z m5403 -1069 c4 -628 6 -1143 4 -1144 -1 -1 -369 -23
-817 -48 -448 -26 -1200 -69 -1670 -96 -2179 -125 -2491 -143 -2494 -139 -2 2
-7 518 -11 1146 l-8 1141 44 6 c24 3 105 8 180 11 l136 6 7 -47 c3 -26 6 -62
6 -80 0 -18 4 -36 10 -39 5 -3 138 2 295 12 l286 17 -6 72 -7 71 168 7 c93 4
181 9 197 12 l27 6 0 -96 c0 -53 3 -96 8 -96 4 0 111 9 237 20 127 11 240 20
253 20 21 0 22 3 22 89 l0 88 68 6 c37 4 117 9 178 13 l111 6 12 -78 c6 -43
13 -79 15 -81 4 -4 490 28 495 33 2 2 -1 36 -7 76 -6 40 -10 74 -8 75 4 4 370
21 374 18 1 -1 6 -41 9 -89 3 -47 8 -86 11 -86 17 0 391 42 410 46 21 4 22 9
22 88 0 101 -19 92 216 101 l161 7 6 -24 c3 -12 9 -56 13 -96 l7 -74 31 6 c17
3 132 17 256 32 124 14 227 28 229 30 3 2 0 41 -6 87 -6 45 -10 83 -9 85 3 3
341 18 452 20 l81 2 6 -1142z m-1755 1087 c12 -44 11 -47 -20 -90 -18 -24 -36
-44 -39 -45 -3 0 -7 24 -8 54 -1 43 3 63 21 90 13 20 25 36 28 36 3 0 11 -20
18 -45z m1152 -30 c0 -59 -2 -65 -22 -70 -31 -7 -332 -44 -335 -41 -1 1 19 38
45 81 47 78 49 80 93 86 24 3 83 7 132 7 l87 2 0 -65z m-2036 -1 c5 -41 2 -51
-27 -92 l-32 -47 -3 44 c-3 42 35 154 49 145 3 -2 9 -24 13 -50z m4416 -63 l0
-118 -77 -64 c-42 -35 -87 -72 -100 -82 l-23 -18 1 123 0 123 96 78 c52 42 97
77 99 77 2 0 4 -53 4 -119z m-5343 85 c1 -1 -14 -25 -34 -54 -34 -48 -40 -52
-77 -53 -23 -1 -112 -4 -199 -7 -86 -4 -157 -3 -157 1 0 5 15 35 33 67 l32 59
200 -6 c110 -3 201 -6 202 -7z m2069 -154 c-3 -3 -52 -9 -108 -13 -57 -5 -125
-11 -151 -14 l-48 -6 40 78 39 78 113 10 114 10 3 -69 c2 -37 1 -71 -2 -74z
m2807 -177 l-48 -43 -3 137 -3 136 48 42 48 42 3 -135 3 -135 -48 -44z m-4862
138 c-20 -29 -39 -53 -43 -53 -5 0 -8 28 -8 61 0 55 4 67 38 113 l37 51 6 -60
c5 -57 3 -63 -30 -112z m5880 33 l1 -128 -67 -54 c-37 -30 -69 -54 -71 -54 -2
0 -4 57 -3 128 l1 127 66 56 c37 31 68 56 69 55 1 -1 3 -59 4 -130z m-4661 26
c3 -34 5 -62 5 -63 0 -3 -331 -26 -334 -23 -3 3 9 33 26 67 l30 62 109 11
c167 17 158 20 164 -54z m4300 -51 l0 -120 -84 -70 c-46 -39 -86 -71 -90 -71
-3 0 -6 53 -6 119 l0 118 86 72 c47 39 88 71 90 71 2 0 4 -54 4 -119z m-6486
-23 l-28 -43 -7 40 c-6 33 -3 48 19 85 l26 45 10 -42 c8 -38 6 -47 -20 -85z
m1326 12 c0 -48 -4 -72 -12 -75 -18 -6 -369 -27 -373 -23 -2 2 14 31 36 65 37
56 45 63 82 68 23 3 85 12 137 19 52 8 103 14 113 15 15 1 17 -9 17 -69z
m-927 -12 c-3 -35 -10 -66 -15 -69 -11 -7 -388 -32 -394 -26 -3 2 11 31 30 63
l36 59 152 16 c84 9 163 17 175 18 20 1 21 -2 16 -61z m5687 -55 l-1 -118 -94
-78 -95 -77 0 124 0 124 88 71 c48 39 90 71 95 71 4 0 7 -53 7 -117z m600 -31
l0 -128 -90 -72 c-49 -40 -91 -72 -94 -72 -2 0 -4 56 -4 123 l-1 124 92 76
c50 43 92 77 94 77 2 0 3 -58 3 -128z m-390 -51 l0 -120 -87 -73 c-49 -41 -94
-78 -100 -82 -10 -6 -13 20 -13 113 l0 120 96 81 c52 44 97 80 100 80 2 0 4
-54 4 -119z m-467 -248 c-26 -23 -51 -42 -55 -43 -5 0 -8 53 -8 118 l0 117 52
47 53 46 3 -121 3 -122 -48 -42z m657 134 l0 -124 -85 -66 c-47 -37 -87 -67
-90 -67 -3 0 -5 54 -5 119 l0 119 83 70 c45 39 85 71 90 71 4 1 7 -55 7 -122z
m-400 -65 l0 -118 -72 -60 c-40 -32 -82 -67 -95 -77 l-23 -18 1 123 0 123 87
72 c48 40 90 73 95 73 4 0 7 -53 7 -118z m210 -87 l0 -124 -100 -81 -100 -81
0 123 1 123 97 82 c53 45 98 82 100 82 1 1 2 -55 2 -124z m-424 -200 c-2 -6
-27 -31 -55 -54 l-51 -43 0 125 0 125 53 42 52 42 3 -113 c1 -62 1 -118 -2
-124z m204 16 l-5 -118 -87 -72 c-49 -39 -90 -71 -93 -71 -3 0 -5 52 -5 115
l0 114 91 76 c50 41 94 75 97 75 4 0 5 -53 2 -119z m-219 -291 c-10 -8 -37
-30 -60 -48 l-41 -34 0 116 0 116 33 29 c17 16 43 38 57 49 l25 20 3 -116 c2
-105 1 -118 -17 -132z"/>
<path d="M5188 11164 c-3 -3 23 -53 58 -110 l65 -105 -26 -21 c-32 -25 -26
-37 7 -14 21 15 24 15 41 -6 l18 -23 -11 24 c-9 17 -9 26 -1 34 17 17 13 29
-6 23 -14 -5 -29 16 -73 99 -53 102 -60 111 -72 99z"/>
<path d="M5215 10708 c7 -20 86 -569 87 -608 l1 -34 91 97 c76 82 93 96 105
85 12 -11 13 -10 7 5 -4 13 5 33 30 63 25 30 32 44 21 44 -8 0 -27 -14 -42
-31 -14 -17 -28 -30 -30 -28 -2 3 -18 35 -35 73 l-31 69 21 22 c28 30 25 43
-5 15 l-24 -23 -12 27 c-7 14 -16 26 -21 26 -5 0 -1 -14 8 -31 l16 -32 -54
-54 c-45 -46 -54 -51 -60 -36 -4 10 -16 83 -28 163 -26 182 -30 200 -40 200
-5 0 -7 -6 -5 -12z m230 -349 l36 -71 -44 -51 c-25 -29 -61 -70 -80 -92 l-35
-40 -7 50 c-4 28 -10 75 -15 105 l-8 55 56 58 c31 31 58 57 59 57 2 0 19 -32
38 -71z"/>
<path d="M4980 11038 c-133 -352 -130 -345 -159 -340 -45 8 -20 -4 93 -47 122
-46 116 -44 116 -33 0 4 -36 20 -80 36 -44 15 -80 31 -80 35 0 4 36 101 80
215 44 114 80 209 80 212 0 2 -4 4 -9 4 -5 0 -23 -37 -41 -82z"/>
<path d="M4671 10490 c-29 -66 -49 -125 -46 -130 5 -8 107 -50 121 -50 3 0 3
4 0 9 -3 4 -26 14 -51 21 -25 7 -48 16 -50 20 -3 4 18 57 45 119 51 113 57
131 41 131 -5 0 -32 -54 -60 -120z"/>
<path d="M5024 10440 c19 -363 19 -393 5 -388 -8 3 -75 32 -149 63 -74 32
-145 61 -158 66 -22 8 -22 9 -6 46 23 54 28 73 17 73 -5 0 -20 -22 -32 -49
l-23 -49 -60 25 c-79 32 -86 23 -8 -10 33 -15 60 -29 60 -32 0 -3 -11 -28 -25
-55 -16 -32 -21 -51 -14 -55 12 -8 11 -11 34 45 10 25 21 48 25 53 3 4 82 -26
176 -66 l169 -73 3 -34 c5 -50 22 -63 22 -16 0 30 3 37 15 32 20 -7 19 4 -2
19 -15 11 -19 46 -28 258 -5 135 -14 249 -19 254 -5 4 -6 -42 -2 -107z"/>
<path d="M10059 10215 c-3 -22 -3 -42 0 -45 4 -3 21 -177 37 -388 17 -210 34
-385 38 -389 17 -18 17 22 0 192 l-20 185 83 50 c45 27 84 50 87 50 5 0 136
-254 136 -264 0 -2 -63 -62 -139 -134 -77 -73 -137 -134 -132 -136 4 -3 69 54
144 125 l136 130 21 -41 c11 -22 25 -38 30 -35 5 3 0 21 -11 40 -13 21 -18 42
-14 55 4 14 2 18 -7 15 -9 -4 -31 29 -67 97 -30 57 -62 115 -72 129 -18 26
-18 27 4 42 12 8 19 18 15 22 -4 4 -53 -23 -109 -59 -56 -37 -102 -66 -104
-64 -3 3 -35 344 -35 371 0 10 18 26 45 39 25 12 45 26 45 30 0 13 -13 9 -45
-12 -40 -27 -53 -25 -57 8 -3 23 -4 21 -9 -13z"/>
<path d="M9807 10318 c-25 -57 -123 -278 -217 -493 -94 -214 -182 -414 -196
-444 -13 -30 -23 -55 -22 -56 12 -9 487 -225 496 -225 28 0 8 17 -48 40 -42
17 -58 30 -55 40 2 8 18 65 35 125 17 61 40 140 51 177 l20 67 41 -15 c48 -16
48 -17 48 -6 0 5 -18 15 -40 22 -46 15 -45 12 -26 73 12 40 12 47 0 47 -8 0
-18 -19 -25 -45 -6 -25 -14 -45 -17 -45 -15 0 -172 63 -172 69 0 4 31 85 70
181 38 95 68 176 65 178 -8 8 -9 6 -85 -180 l-73 -177 -51 21 c-28 11 -52 21
-54 23 -2 1 67 163 153 360 86 196 154 359 152 361 -2 3 -25 -42 -50 -98z
m-161 -693 c-2 -5 -11 -27 -20 -47 -10 -23 -12 -39 -6 -43 6 -3 15 6 21 22 6
15 15 38 19 50 l9 22 87 -35 c48 -19 89 -36 91 -38 4 -4 -96 -368 -103 -375
-3 -4 -354 148 -354 154 0 1 30 69 66 151 36 82 70 159 74 171 l9 22 56 -22
c30 -12 53 -26 51 -32z"/>
<path d="M5513 9260 l-123 -139 0 -206 c0 -130 4 -205 10 -205 10 0 14 13 11
40 -1 12 0 12 7 2 7 -10 39 20 120 113 l112 126 0 204 c0 113 -3 205 -7 205
-5 0 -63 -63 -130 -140z m105 -152 c-2 -82 0 -124 7 -120 13 8 -69 -91 -90
-108 -8 -7 -15 -9 -15 -4 0 4 -16 -7 -35 -26 -44 -43 -46 -64 -2 -24 l32 29
-29 -32 c-16 -18 -32 -31 -34 -28 -3 3 -12 -1 -21 -9 -17 -16 -17 -36 -8 253
1 57 -2 87 -8 83 -11 -6 15 27 59 75 16 18 33 30 37 28 4 -3 29 20 56 52 l48
56 3 -49 c2 -27 2 -106 0 -176z"/>
<path d="M5479 9193 c-43 -48 -55 -69 -20 -38 29 27 58 65 48 65 -2 0 -14 -12
-28 -27z"/>
<path d="M5574 8948 c-17 -18 -37 -42 -45 -53 -26 -36 18 3 52 47 37 46 34 50
-7 6z"/>
<path d="M5531 8233 l-121 -137 0 -210 c0 -209 0 -210 19 -191 11 11 67 74
125 140 l106 120 0 208 c0 114 -2 207 -4 207 -3 0 -59 -62 -125 -137z m117 25
l-1 -73 -7 55 c-5 35 -7 -8 -7 -122 l0 -177 -63 -71 c-34 -39 -65 -68 -68 -65
-3 3 -18 -7 -34 -22 l-28 -27 0 166 c0 152 2 166 20 183 11 10 20 23 20 28 0
6 -11 0 -25 -13 -25 -23 -25 -24 -25 -209 l0 -185 33 30 c31 28 31 28 -3 -9
l-35 -38 -3 192 -2 193 36 37 c21 21 41 36 44 34 4 -3 34 26 66 63 33 37 62
69 67 70 4 2 7 10 7 18 0 8 2 14 5 14 3 0 4 -33 3 -72z"/>
<path d="M5570 7898 c-53 -59 -75 -88 -67 -88 7 0 129 141 126 145 -2 2 -29
-24 -59 -57z"/>
<path d="M4630 9362 l0 -209 188 -76 c103 -43 190 -77 195 -77 4 0 7 94 7 208
l0 208 -187 77 c-104 43 -191 77 -195 77 -5 0 -8 -94 -8 -208z m133 142 c48
-20 86 -39 84 -41 -2 -2 -41 12 -86 32 -46 19 -87 35 -92 35 -5 0 -10 -84 -12
-187 l-2 -188 -3 199 c-2 155 1 197 11 193 6 -3 51 -22 100 -43z m72 -56 l147
-62 -7 -160 c-4 -89 -9 -163 -10 -165 -2 -2 -69 25 -149 60 l-146 63 0 163 c0
93 4 163 9 163 5 0 76 -28 156 -62z m65 -3 c14 -8 21 -14 15 -14 -5 0 -21 6
-35 14 -14 8 -20 14 -15 14 6 0 21 -6 35 -14z m70 -30 l30 -16 -2 -127 -2
-127 -3 126 -4 126 -32 16 c-18 9 -28 16 -24 16 4 1 21 -6 37 -14z m-220 -285
c8 -5 11 -10 5 -10 -5 0 -17 5 -25 10 -8 5 -10 10 -5 10 6 0 17 -5 25 -10z
m138 -55 c56 -22 102 -43 102 -47 0 -7 -209 77 -219 89 -7 7 -5 7 117 -42z"/>
<path d="M4632 8528 l3 -212 189 -78 c104 -43 190 -78 193 -78 2 0 2 95 1 211
l-3 211 -190 79 c-104 43 -191 79 -193 79 -1 0 -1 -95 0 -212z m96 155 c34
-14 60 -28 58 -30 -2 -2 -29 8 -61 22 -32 14 -59 25 -62 25 -2 0 -3 -85 -1
-189 2 -104 0 -187 -4 -184 -5 2 -8 89 -8 194 0 104 3 189 8 189 4 0 35 -12
70 -27z m93 -64 c79 -33 148 -64 153 -69 5 -5 5 -76 0 -169 l-9 -160 -145 63
-145 62 -3 167 c-1 92 -1 167 1 167 2 0 69 -27 148 -61z m94 -15 l85 -36 -2
-132 -2 -131 -3 128 -4 128 -67 30 c-81 35 -134 62 -109 55 10 -3 56 -22 102
-42z m-137 -319 c24 -10 41 -19 39 -22 -3 -2 -29 8 -58 22 -59 27 -50 28 19 0z
m144 -61 c38 -15 66 -29 64 -31 -4 -5 -147 54 -156 64 -6 7 5 4 92 -33z"/>
<path d="M4610 7651 l0 -209 78 -32 c42 -18 124 -52 182 -76 57 -24 108 -44
112 -44 5 0 8 94 8 209 l0 209 -184 76 c-102 42 -187 76 -190 76 -4 0 -6 -94
-6 -209z m117 142 c-2 -2 -20 4 -40 12 -20 8 -39 15 -41 15 -3 0 -7 -84 -9
-187 l-2 -188 -3 197 -2 197 50 -21 c28 -11 49 -23 47 -25z m73 -50 c74 -31
140 -61 146 -67 7 -7 9 -66 6 -172 l-4 -161 -147 63 -146 63 -3 165 c-1 91 1
166 5 166 4 0 69 -25 143 -57z m62 -1 l113 -49 1 -79 0 -79 -3 76 -4 75 -114
49 c-100 42 -127 55 -111 55 2 0 55 -22 118 -48z m-112 -332 c8 -5 11 -10 5
-10 -5 0 -17 5 -25 10 -8 5 -10 10 -5 10 6 0 17 -5 25 -10z m99 -40 c40 -17
83 -35 98 -41 14 -5 24 -12 21 -14 -4 -4 -187 71 -197 81 -10 9 10 2 78 -26z"/>
<path d="M10344 9041 c-76 -46 -138 -177 -139 -292 0 -197 177 -108 230 116
19 81 16 132 -10 171 -19 29 -40 30 -81 5z m54 -71 c10 -36 11 -56 1 -100 -15
-70 -51 -142 -85 -169 -56 -44 -77 -16 -68 91 7 80 37 154 82 201 35 37 53 31
70 -23z"/>
<path d="M10347 8590 c-103 -114 -132 -155 -84 -114 l22 19 -19 -23 c-11 -12
-21 -20 -24 -17 -3 3 -11 0 -19 -6 -11 -9 -13 -132 -13 -677 l0 -666 30 29
c30 29 43 58 15 35 -13 -10 -14 65 -15 622 l0 633 96 108 c52 59 98 107 101
107 4 0 3 -282 -1 -627 l-7 -626 -89 -98 c-50 -53 -90 -99 -90 -102 0 -3 8 -4
17 -3 9 2 57 47 105 102 l88 99 0 663 c0 364 -1 662 -3 662 -2 0 -52 -54 -110
-120z m103 81 c0 -5 -7 -12 -16 -15 -14 -5 -15 -4 -4 9 14 17 20 19 20 6z
m-70 -74 c0 -2 -12 -14 -27 -28 l-28 -24 24 28 c23 25 31 32 31 24z m-70 -81
c0 -2 -8 -10 -17 -17 -16 -13 -17 -12 -4 4 13 16 21 21 21 13z m-83 -1188 c-1
-106 -2 -20 -2 192 0 212 1 298 2 193 2 -106 2 -280 0 -385z m123 -52 c0 -2
-8 -10 -17 -17 -16 -13 -17 -12 -4 4 13 16 21 21 21 13z"/>
<path d="M7556 9241 c7 -7 329 -142 549 -231 18 -7 17 -10 -13 -20 -46 -17
-33 -24 16 -9 39 11 46 9 234 -69 241 -101 228 -96 228 -86 0 5 -88 45 -195
89 -107 44 -195 83 -195 86 0 3 19 12 43 19 23 7 36 15 29 17 -7 3 -34 -3 -60
-12 l-47 -16 -289 120 c-274 115 -323 133 -300 112z"/>
<path d="M9472 8018 l3 -772 180 -67 c99 -37 186 -68 193 -68 10 -1 12 156 10
771 l-3 773 -185 67 c-102 37 -188 67 -193 67 -4 1 -6 -346 -5 -771z m25 -385
c-1 -208 -2 -38 -2 377 0 415 1 585 2 378 2 -208 2 -548 0 -755z m178 1043
l140 -53 -4 -724 c-2 -398 -5 -725 -6 -727 -2 -2 -67 21 -146 50 l-144 53 -3
728 c-2 578 0 727 10 727 7 -1 76 -25 153 -54z m-55 44 c8 -5 11 -10 5 -10 -5
0 -17 5 -25 10 -8 5 -10 10 -5 10 6 0 17 -5 25 -10z m155 -55 l60 -23 0 -443
0 -444 -5 440 -5 439 -75 29 c-41 15 -77 31 -80 34 -6 7 29 -4 105 -32z m-43
-1486 c54 -19 98 -37 98 -40 0 -7 -211 68 -220 78 -3 3 2 4 10 1 8 -3 59 -20
112 -39z"/>
<path d="M7376 9028 c-22 -40 -40 -74 -42 -76 -1 -2 -13 1 -26 8 -22 11 -22
11 -3 -5 20 -16 20 -17 -19 -88 -107 -200 -118 -218 -132 -213 -8 3 -22 9 -31
12 -16 5 -16 4 1 -10 10 -8 24 -17 30 -19 8 -3 7 -8 -1 -18 -7 -7 -13 -20 -13
-28 1 -10 7 -4 16 12 8 15 17 27 19 27 3 0 240 -100 527 -221 288 -122 538
-228 557 -236 22 -9 32 -10 29 -3 -2 6 -244 112 -538 236 -294 123 -543 227
-552 231 -15 7 -8 25 58 143 41 74 79 139 83 143 6 6 165 -57 199 -79 2 -1
-10 -29 -27 -63 -33 -65 -35 -71 -23 -71 5 0 21 27 37 60 16 33 32 60 37 60 5
0 31 -12 59 -26 28 -14 56 -23 62 -21 7 2 -16 16 -51 32 -34 15 -62 33 -62 39
1 6 13 34 28 62 l27 51 408 -178 c225 -97 411 -179 413 -182 3 -2 -34 -72 -81
-156 -47 -83 -85 -155 -85 -159 0 -4 59 -27 130 -52 72 -24 130 -46 130 -47 0
-2 -14 -28 -31 -59 -17 -30 -29 -57 -26 -60 3 -3 20 22 38 55 19 34 36 61 40
61 3 0 32 -9 64 -20 63 -22 79 -24 71 -12 -3 5 -32 17 -66 27 -57 17 -70 30
-52 51 20 22 92 164 83 164 -5 0 -32 -42 -60 -94 l-51 -95 -122 41 c-68 22
-124 42 -126 43 -1 1 34 70 78 153 l81 152 37 -16 c65 -28 83 -34 95 -33 11 0
-43 27 -101 50 -22 8 -22 10 -7 40 9 17 14 33 11 36 -2 3 -12 -9 -21 -26 -8
-17 -17 -31 -18 -31 -1 0 -186 80 -412 178 -386 168 -410 180 -408 203 2 21 2
22 -8 6 -8 -14 -18 -17 -42 -13 -29 6 -30 5 -9 -6 12 -6 22 -15 22 -20 0 -13
-49 -108 -56 -108 -7 0 -187 80 -193 85 -2 2 13 34 34 70 20 36 35 70 33 76
-2 5 -21 -23 -42 -63z"/>
<path d="M2470 8205 c0 -117 4 -185 10 -185 6 0 10 68 10 185 0 117 -4 185
-10 185 -6 0 -10 -68 -10 -185z"/>
<path d="M2336 8014 c-48 -125 -84 -229 -81 -232 3 -3 6 -3 8 -1 10 13 168
451 165 455 -3 2 -44 -98 -92 -222z"/>
<path d="M2177 7897 c-46 -111 -59 -132 -76 -131 -25 1 -26 -5 -5 -20 13 -10
11 -22 -21 -98 -29 -70 -40 -86 -53 -81 -14 6 -15 4 -4 -9 10 -12 9 -22 -3
-53 -24 -55 -12 -67 13 -12 11 26 23 47 26 47 3 0 107 -51 231 -112 l225 -113
0 -42 c0 -33 4 -43 16 -43 13 0 15 7 9 36 -5 31 -4 36 9 30 9 -3 23 -9 31 -12
8 -3 15 -2 15 3 0 5 -13 13 -29 19 -27 11 -29 16 -35 85 -4 41 -9 112 -11 158
-5 91 -11 121 -25 121 -5 0 -10 -13 -12 -29 l-3 -28 -160 63 c-88 35 -164 65
-170 67 -10 4 8 55 69 194 19 45 31 85 27 87 -4 3 -33 -54 -64 -127z m120
-233 c93 -37 173 -71 178 -76 6 -5 15 -63 20 -128 10 -117 10 -120 -10 -114
-19 7 -416 202 -424 210 -4 4 61 174 66 174 2 0 78 -30 170 -66z"/>
<path d="M2625 8413 c34 -86 205 -536 205 -541 0 -4 -38 -32 -85 -62 -47 -30
-85 -59 -85 -63 0 -10 4 -7 99 56 40 27 76 45 81 40 4 -4 19 -39 34 -76 l27
-69 -28 -21 c-36 -28 -93 -83 -73 -70 8 5 34 25 57 43 24 18 45 31 47 29 3 -2
19 -40 36 -84 l31 -80 -103 -97 c-57 -53 -100 -97 -97 -98 4 0 51 40 105 90
l99 89 14 -34 c7 -19 18 -35 22 -35 5 0 2 18 -7 40 l-16 40 63 60 c78 72 66
80 -14 9 -56 -50 -57 -50 -66 -27 -4 13 -18 50 -30 83 l-22 60 22 18 c12 9 19
20 15 24 -3 3 -14 -2 -25 -11 -18 -17 -20 -15 -49 60 -28 72 -29 79 -14 92 15
12 15 13 -3 8 -18 -5 -31 22 -125 269 -58 151 -109 275 -114 275 -4 0 -5 -8
-1 -17z"/>
<path d="M7060 8121 l0 -209 78 -32 c42 -18 124 -52 182 -76 57 -24 108 -44
112 -44 5 0 8 94 8 209 l0 208 -184 77 c-102 42 -187 76 -190 76 -3 0 -6 -94
-6 -209z m177 120 c31 -18 8 -12 -48 13 -30 13 -64 26 -76 30 l-23 7 0 -186
c0 -122 -3 -184 -10 -180 -11 7 -13 191 -4 307 l7 76 68 -28 c37 -16 76 -33
86 -39z m18 -31 l140 -59 3 -166 c1 -97 -1 -165 -7 -165 -5 0 -71 27 -148 59
l-138 59 -3 166 c-1 91 1 166 5 166 5 0 71 -27 148 -60z m73 -5 c24 -10 41
-19 39 -22 -3 -2 -29 8 -58 22 -59 27 -50 28 19 0z m82 -35 c8 -5 12 -11 10
-14 -3 -2 -14 2 -24 10 -22 15 -10 19 14 4z m-210 -290 c8 -5 11 -10 5 -10 -5
0 -17 5 -25 10 -8 5 -10 10 -5 10 6 0 17 -5 25 -10z m110 -45 c45 -19 88 -35
96 -35 8 0 14 -4 14 -10 0 -5 -1 -10 -3 -10 -6 0 -192 81 -196 86 -10 10 12 2
89 -31z"/>
<path d="M8102 7691 l3 -212 188 -78 187 -79 0 212 0 212 -174 72 c-95 39
-181 74 -190 78 -15 6 -16 -12 -14 -205z m326 59 c3 0 3 -2 0 -5 -3 -3 -69 22
-147 55 -78 33 -147 60 -152 60 -6 0 -9 -69 -7 -185 2 -102 0 -185 -4 -185 -9
0 -11 374 -2 382 3 3 73 -23 156 -58 83 -35 153 -64 156 -64z m-132 28 l144
-61 0 -164 c0 -124 -3 -163 -12 -163 -7 1 -74 27 -148 59 l-135 58 -3 166 c-1
92 0 167 3 167 3 0 71 -28 151 -62z m162 -220 c-2 -185 -6 -164 -10 60 -2 67
0 122 5 122 4 0 6 -82 5 -182z m-268 -88 c8 -5 11 -10 5 -10 -5 0 -17 5 -25
10 -8 5 -10 10 -5 10 6 0 17 -5 25 -10z m70 -30 c8 -5 11 -10 5 -10 -5 0 -17
5 -25 10 -8 5 -10 10 -5 10 6 0 17 -5 25 -10z m108 -44 c44 -19 83 -32 86 -29
3 4 6 1 6 -5 0 -7 -2 -12 -4 -12 -7 0 -170 71 -175 76 -10 10 11 2 87 -30z"/>
<path d="M3530 7542 c0 -5 80 -40 178 -79 l177 -71 -48 -12 c-26 -7 -50 -16
-53 -21 -7 -12 -3 -12 64 7 l57 16 450 -180 c355 -142 444 -181 420 -185 -22
-3 -18 -4 16 -6 25 0 79 -15 119 -31 40 -17 75 -28 78 -25 8 7 3 11 -58 38
-50 23 -52 25 -25 26 17 1 37 6 45 11 10 6 -7 8 -50 4 l-65 -5 -430 173 c-236
96 -439 178 -450 182 -16 6 -17 9 -5 17 11 8 8 9 -11 5 -20 -4 -78 15 -210 69
-188 77 -199 81 -199 67z"/>
<path d="M3307 7329 c7 -7 15 -10 18 -7 3 3 -2 9 -12 12 -14 6 -15 5 -6 -5z"/>
<path d="M3360 7305 c14 -8 30 -14 35 -14 6 0 -1 6 -15 14 -14 8 -29 14 -35
14 -5 0 1 -6 15 -14z"/>
<path d="M3480 7294 c0 -27 -2 -27 -55 -9 -11 3 -6 -1 10 -11 17 -9 31 -18 33
-19 3 -3 -44 -250 -54 -287 -5 -16 -9 -16 -56 3 -28 11 -56 18 -62 16 -6 -2
17 -14 50 -27 l61 -24 -9 -40 c-4 -23 -11 -52 -13 -66 -4 -18 -3 -21 4 -10 5
8 13 36 16 62 4 26 9 48 11 48 2 0 44 -16 93 -36 l89 -35 -14 -50 c-21 -72
-11 -86 11 -16 14 41 23 56 33 52 8 -3 26 -7 40 -10 22 -4 21 -2 -8 11 -19 9
-36 17 -38 19 -4 4 88 285 94 285 4 0 766 -321 772 -326 2 -1 -13 -37 -33 -81
-21 -43 -46 -97 -57 -120 l-19 -43 -37 16 c-100 43 -274 105 -279 100 -3 -3 3
-9 13 -12 87 -31 281 -108 287 -114 5 -4 -6 -36 -23 -70 -17 -34 -29 -64 -26
-68 3 -3 20 25 37 62 17 36 33 66 36 66 2 0 42 -16 88 -36 l84 -36 -35 -75
c-19 -42 -32 -78 -29 -81 6 -7 5 -8 40 68 16 36 32 68 35 72 3 3 31 -5 64 -18
32 -14 60 -23 62 -21 3 2 -23 16 -56 30 -33 15 -60 29 -60 31 0 6 101 229 106
235 2 2 29 -6 60 -18 31 -12 59 -19 62 -16 7 7 4 9 -53 32 -33 13 -50 26 -49
37 2 18 -12 22 -18 4 -4 -12 -19 -7 -131 41 l-48 21 21 41 c12 22 19 43 16 46
-2 3 -14 -13 -26 -36 -11 -23 -24 -41 -29 -41 -4 0 -174 70 -377 156 -203 86
-375 158 -382 161 -8 4 -10 16 -6 39 8 42 -2 44 -18 5 l-13 -30 -100 43 c-96
42 -100 44 -100 75 0 17 -3 31 -7 31 -5 0 -8 -12 -8 -26z m92 -80 c45 -20 93
-40 105 -44 l22 -9 -45 -133 c-24 -73 -46 -138 -48 -145 -4 -8 -32 -1 -93 24
-48 19 -89 36 -91 37 -1 2 11 69 28 151 16 81 30 150 30 152 0 6 8 3 92 -33z
m1019 -436 c41 -17 76 -33 78 -35 6 -4 -102 -243 -110 -243 -6 0 -161 69 -167
74 -5 6 108 236 116 236 5 0 43 -14 83 -32z"/>
<path d="M3885 6833 c-40 -101 -63 -173 -56 -178 5 -3 23 32 39 77 17 46 33
91 37 101 4 9 3 17 -3 17 -5 0 -13 -8 -17 -17z"/>
<path d="M2968 6533 c-26 -6 -83 -128 -123 -262 -33 -112 -37 -139 -42 -280
l-6 -156 131 124 132 123 0 93 c0 107 -17 285 -30 320 -10 27 -37 43 -62 38z
m42 -42 c16 -30 12 -36 -8 -11 -22 27 -47 18 -68 -24 l-15 -31 21 28 c52 66
70 25 83 -180 12 -188 23 -159 -107 -277 l-79 -71 7 136 c5 104 13 162 35 240
16 57 31 116 35 130 8 36 44 79 66 79 11 0 24 -9 30 -19z m-22 -458 c-123
-116 -168 -156 -173 -152 -2 3 48 51 111 108 112 102 114 104 116 150 l2 46 3
-46 c4 -46 3 -47 -59 -106z m-161 -46 c-2 -23 -3 -1 -3 48 0 50 1 68 3 42 2
-26 2 -67 0 -90z"/>
<path d="M2155 6906 c-65 -30 -150 -128 -159 -183 -10 -56 -25 -247 -21 -251
6 -7 437 -132 453 -132 13 0 14 19 9 138 -11 249 -43 348 -134 417 -54 41 -80
43 -148 11z m157 -43 c41 -39 68 -82 67 -105 0 -7 -5 -2 -10 11 -17 44 -50 81
-94 107 -64 37 -106 23 -179 -57 -61 -67 -63 -77 -68 -248 l-3 -83 179 -54
c99 -30 183 -54 188 -54 4 0 9 44 9 98 2 85 3 91 9 47 11 -66 12 -165 3 -165
-5 0 -96 27 -203 59 l-195 58 2 120 c1 137 9 159 75 237 75 88 149 98 220 29z
m-23 -11 c51 -38 69 -95 86 -261 8 -85 15 -164 15 -176 0 -21 -4 -21 -170 30
-93 28 -172 53 -174 56 -3 2 -1 57 3 122 8 116 9 117 49 170 63 85 130 105
191 59z m98 -134 c-3 -8 -6 -5 -6 6 -1 11 2 17 5 13 3 -3 4 -12 1 -19z"/>
<path d="M2179 5946 c-52 -18 -78 -39 -131 -103 -29 -34 -49 -70 -53 -92 -10
-60 -24 -245 -19 -250 2 -3 106 -35 230 -72 186 -54 227 -64 231 -52 9 24 -5
262 -21 338 -23 118 -48 161 -121 214 -48 34 -63 36 -116 17z m111 -35 c34
-24 90 -99 90 -119 0 -11 -5 -7 -14 10 -54 103 -131 142 -206 103 -15 -8 -49
-39 -75 -69 l-46 -55 -10 -127 c-5 -70 -6 -131 -2 -135 5 -4 90 -31 191 -61
l182 -55 1 96 c1 81 3 89 10 51 13 -73 11 -160 -3 -160 -7 0 -98 26 -203 58
l-190 58 -3 67 c-2 37 1 99 7 137 8 59 16 78 55 128 63 83 100 105 161 95 17
-2 41 -12 55 -22z m2 -33 c48 -33 65 -89 83 -265 9 -89 15 -168 13 -176 -2
-11 -40 -3 -170 37 -92 28 -169 53 -171 56 -3 3 -1 57 3 121 7 113 8 117 43
163 36 48 70 79 97 88 23 9 72 -3 102 -24z m95 -130 c-3 -8 -6 -5 -6 6 -1 11
2 17 5 13 3 -3 4 -12 1 -19z"/>
<path d="M5980 6992 c0 -5 -6 -16 -13 -26 -13 -17 -15 -17 -45 -2 -17 9 -39
16 -49 16 -10 -1 3 -10 30 -22 26 -11 47 -24 47 -27 0 -4 -36 -88 -80 -186
-45 -97 -78 -180 -75 -183 4 -5 26 40 136 276 21 45 42 82 46 82 7 0 541 -228
551 -236 4 -3 -69 -164 -75 -164 -2 0 -89 36 -194 81 -105 44 -194 78 -197 75
-7 -8 -14 -5 143 -71 77 -32 163 -69 192 -82 l52 -22 -35 -71 c-37 -76 -38
-80 -26 -80 5 0 23 32 42 70 19 39 37 70 42 70 6 0 659 -269 664 -274 1 0 -10
-27 -26 -58 -15 -32 -24 -58 -19 -58 4 0 19 25 33 55 l25 55 35 -15 c20 -9 36
-12 36 -7 0 4 -14 13 -30 19 l-31 11 38 76 c21 42 42 76 48 76 5 0 34 -11 63
-25 60 -28 62 -28 62 -17 0 4 -27 18 -60 32 -33 14 -60 29 -60 33 0 4 9 26 21
48 11 22 19 45 17 51 -2 5 -15 -13 -28 -42 -16 -35 -29 -50 -40 -47 -13 3
-650 277 -658 283 -2 1 4 17 13 34 11 21 13 36 7 42 -7 7 -14 -2 -23 -26 -7
-20 -18 -36 -24 -36 -5 0 -131 54 -280 120 -177 78 -269 124 -266 132 2 7 6
21 8 31 3 9 0 17 -6 17 -6 0 -11 -4 -11 -8z m910 -464 c179 -78 327 -143 329
-145 6 -4 -61 -143 -71 -149 -7 -5 -647 261 -661 275 -9 9 57 161 70 161 4 0
154 -64 333 -142z"/>
<path d="M5061 6732 c-90 -45 -167 -260 -128 -355 20 -48 38 -54 89 -31 104
47 182 290 122 382 -17 27 -38 28 -83 4z m50 -49 c18 -44 13 -123 -10 -183
-24 -62 -43 -88 -85 -115 -28 -19 -29 -18 -43 1 -22 28 -10 152 20 218 27 58
69 106 92 106 8 0 20 -12 26 -27z"/>
<path d="M3670 6158 l0 -213 147 -60 c81 -33 166 -68 190 -77 l43 -18 0 213 0
212 -158 64 c-86 35 -172 70 -189 77 l-33 14 0 -212z m176 121 c79 -34 143
-63 141 -65 -2 -2 -57 19 -123 47 -65 28 -129 55 -142 60 l-23 9 3 -189 c2
-148 0 -187 -9 -184 -9 3 -13 27 -13 67 0 85 12 316 17 316 2 0 69 -28 149
-61z m51 -47 l113 -47 0 -168 c0 -100 -4 -167 -9 -165 -5 2 -73 30 -150 63
l-141 60 0 168 0 167 38 -15 c20 -9 88 -37 149 -63z m128 -32 c3 -6 -1 -7 -9
-4 -18 7 -21 14 -7 14 6 0 13 -4 16 -10z m-117 -324 c67 -27 120 -52 117 -54
-5 -5 -255 98 -255 105 0 3 4 3 9 1 4 -1 63 -25 129 -52z"/>
<path d="M5900 6146 l0 -212 178 -73 c97 -41 183 -76 190 -78 10 -4 12 39 10
207 l-3 212 -187 78 -188 78 0 -212z m88 157 c34 -14 60 -28 58 -30 -2 -2 -29
8 -61 22 -32 14 -59 25 -61 25 -2 0 -5 -84 -7 -187 l-2 -188 -3 193 c-1 105 1
192 6 192 4 0 35 -12 70 -27z m172 -97 l75 -32 1 -167 c1 -92 0 -167 -3 -167
-2 0 -69 28 -149 62 l-144 61 0 168 0 168 73 -31 c39 -17 106 -45 147 -62z
m15 18 l85 -36 -2 -172 -2 -171 -3 168 -3 168 -68 30 c-81 35 -134 62 -109 55
10 -3 56 -22 102 -42z m-137 -319 c24 -10 41 -19 39 -22 -3 -2 -29 8 -58 22
-59 27 -50 28 19 0z m142 -61 c47 -19 73 -33 59 -30 -26 6 -159 64 -149 65 3
1 44 -15 90 -35z"/>
<path d="M8095 6142 c6 -6 38 -19 72 -29 l62 -19 -94 -94 -94 -93 -35 26 c-19
15 -37 23 -40 18 -4 -5 10 -19 29 -31 20 -12 35 -26 33 -30 -2 -5 -38 -47 -82
-95 l-79 -86 -38 37 c-21 21 -42 34 -46 30 -4 -4 10 -24 31 -43 l39 -36 -31
-28 c-17 -16 -28 -30 -23 -33 4 -3 19 6 31 19 13 14 28 25 35 25 6 0 40 -29
75 -65 56 -56 62 -67 50 -79 -16 -14 -372 -337 -379 -343 -2 -1 -1 -3 2 -3 4
0 95 79 203 176 l196 176 61 -58 c34 -33 65 -63 69 -69 4 -5 10 -7 13 -4 3 4
-25 36 -62 72 -78 76 -84 59 58 183 l98 85 112 -77 112 -77 -51 -49 c-28 -26
-48 -48 -46 -48 3 0 103 90 224 200 120 110 225 200 234 200 9 0 13 6 10 15
-3 8 -16 14 -27 13 -19 -1 -248 66 -270 79 -4 3 -3 11 4 19 7 8 7 14 1 14 -5
0 -15 -6 -21 -14 -12 -14 -59 -2 -261 70 -12 5 -12 8 4 20 11 8 16 14 11 14
-5 0 -16 -6 -24 -14 -14 -13 -23 -12 -71 4 -91 30 -106 33 -95 22z m277 -94
c71 -23 127 -46 126 -49 -2 -4 -59 -57 -127 -118 l-123 -110 -92 61 c-50 34
-93 62 -95 64 -5 4 169 194 177 194 3 0 64 -19 134 -42z m300 -98 l127 -41
-157 -148 -156 -148 -113 75 c-63 42 -110 79 -106 83 73 70 259 226 267 223 6
-2 68 -21 138 -44z m-531 -127 c49 -32 89 -61 89 -64 0 -5 -78 -77 -181 -167
l-36 -31 -66 67 -67 68 82 92 c45 50 83 92 85 92 3 0 45 -26 94 -57z"/>
<path d="M7420 5362 c0 -5 37 -51 81 -101 l82 -92 -34 -37 -34 -37 37 34 36
33 39 -43 c78 -89 123 -134 123 -124 -1 14 -302 368 -317 373 -7 2 -13 -1 -13
-6z"/>
<path d="M7489 5083 c-13 -16 -12 -17 4 -4 16 13 21 21 13 21 -2 0 -10 -8 -17
-17z"/>
<path d="M7453 5907 l-120 -133 -104 -12 -104 -12 -195 -195 c-144 -143 -203
-195 -221 -196 -13 0 -42 -7 -64 -15 -35 -12 -36 -13 -9 -9 18 2 45 7 60 11
27 7 25 3 -21 -38 -27 -26 -47 -50 -42 -54 4 -4 34 18 66 50 l59 59 150 36
150 36 145 167 146 166 76 7 c41 4 78 11 81 16 3 5 -1 7 -8 5 -7 -3 -42 -7
-77 -11 l-64 -6 94 106 c99 112 134 155 126 155 -3 0 -59 -60 -124 -133z
m-164 -184 c-20 -21 -77 -85 -129 -143 -51 -58 -98 -110 -104 -117 -9 -10
-267 -85 -273 -79 -1 1 76 80 172 176 l175 175 72 11 c40 6 84 12 98 13 23 1
23 0 -11 -36z"/>
<path d="M10503 5978 c-28 -28 -34 -30 -49 -17 -15 12 -16 12 -10 -7 6 -18
-32 -59 -246 -267 -139 -135 -249 -249 -245 -253 4 -4 43 28 87 71 l79 79 60
-55 c32 -30 59 -56 60 -59 0 -3 -82 -84 -183 -180 -102 -98 -180 -179 -175
-184 4 -5 88 69 190 168 l183 177 133 -133 c73 -73 133 -128 133 -123 0 5 -57
67 -127 137 l-128 128 105 105 c57 57 101 108 96 112 -4 4 -10 3 -14 -2 -4 -6
-51 -53 -105 -105 l-97 -94 -59 58 -59 58 126 122 c70 67 148 141 173 164 l45
41 145 -130 c79 -72 151 -137 159 -145 13 -12 4 -25 -70 -99 -46 -46 -81 -88
-77 -92 4 -4 45 31 92 77 l84 83 63 -56 c35 -30 90 -81 123 -111 l60 -55 -60
-58 c-175 -167 -275 -267 -270 -271 3 -4 137 118 333 303 l24 22 -131 119
-130 119 49 50 c28 28 50 57 50 65 0 8 -26 -11 -57 -42 l-58 -57 -100 91 c-55
50 -126 116 -159 145 l-59 54 32 33 c17 17 31 35 31 39 0 15 -16 6 -47 -25z"/>
<path d="M10090 5620 c0 -5 5 -10 11 -10 5 0 7 5 4 10 -3 6 -8 10 -11 10 -2 0
-4 -4 -4 -10z"/>
<path d="M10264 5172 c-44 -42 -149 -141 -232 -220 l-151 -143 -92 85 c-51 48
-97 86 -103 86 -6 -1 31 -41 82 -90 50 -49 92 -93 92 -97 0 -4 -12 -17 -27
-29 -16 -12 -25 -26 -20 -30 4 -4 20 5 36 20 l30 28 70 -63 c39 -35 71 -66 70
-69 0 -3 -52 -52 -115 -110 -63 -57 -110 -106 -104 -108 6 -2 59 42 119 97 60
56 113 101 118 101 5 0 29 -20 53 -45 24 -25 51 -45 59 -45 9 0 -8 23 -40 56
l-56 56 143 135 c79 75 144 137 144 139 0 17 -39 -14 -162 -130 l-142 -134
-73 67 -73 66 32 29 c176 158 436 410 432 417 -7 12 1 18 -90 -69z"/>
<path d="M9906 5721 l-129 -129 -66 -10 c-62 -10 -63 -11 -13 -8 l53 3 -21
-22 c-12 -13 -17 -25 -12 -29 5 -3 20 6 32 19 13 14 42 31 64 37 31 9 36 13
20 15 -18 3 -2 23 95 116 64 62 118 116 119 122 10 31 -27 1 -142 -114z"/>
<path d="M9511 5516 c-118 -118 -126 -124 -187 -141 -35 -9 -67 -21 -69 -26
-3 -4 16 -2 42 6 26 8 51 15 54 15 4 0 -70 -75 -163 -167 -137 -136 -178 -171
-216 -184 -81 -29 -105 -39 -100 -45 3 -3 30 4 59 16 30 11 56 20 59 20 2 0
-14 -19 -35 -42 -37 -40 -38 -41 -5 -12 19 17 45 39 57 50 12 10 62 34 113 53
108 40 115 52 10 16 -40 -14 -75 -25 -77 -25 -1 0 48 49 110 108 239 230 226
219 305 239 40 10 72 21 72 26 0 11 -23 9 -70 -8 -23 -8 -45 -15 -49 -15 -3 0
50 54 119 120 69 65 118 119 110 120 -8 0 -71 -56 -139 -124z"/>
<path d="M4976 5566 l-47 -54 4 -163 3 -164 2 166 2 165 36 35 c33 32 60 69
50 69 -2 0 -25 -24 -50 -54z"/>
<path d="M1404 5315 c-31 -43 -50 -59 -89 -74 -27 -11 -58 -22 -68 -26 -13 -6
-16 -3 -11 9 9 24 -12 19 -28 -6 -9 -13 -33 -29 -54 -37 -72 -26 -106 -42
-101 -48 3 -3 31 4 61 16 31 11 56 17 55 13 0 -4 -35 -54 -77 -112 l-78 -105
-62 -14 c-34 -8 -62 -18 -62 -23 0 -11 27 -10 68 2 30 8 33 7 27 -8 -5 -13 -1
-12 17 4 13 12 49 28 82 37 32 9 61 19 64 22 13 13 -9 14 -56 1 -29 -7 -52
-11 -52 -9 0 2 37 53 82 113 79 105 85 111 147 135 36 13 66 23 68 22 1 -2
-31 -49 -72 -105 -41 -56 -75 -107 -75 -112 0 -26 23 -1 102 113 l86 122 67
25 c63 23 90 40 66 40 -6 0 -33 -9 -61 -19 -27 -11 -50 -17 -50 -14 0 2 14 24
30 49 45 64 21 54 -26 -11z"/>
<path d="M1857 5313 l-37 -37 -35 34 c-19 18 -37 31 -40 29 -3 -3 9 -18 25
-34 17 -16 30 -34 30 -40 0 -6 -29 -40 -65 -75 -36 -35 -65 -68 -65 -72 0 -22
31 1 85 62 l60 69 132 -131 c73 -73 136 -129 140 -125 4 4 -50 65 -120 135
-70 70 -127 132 -127 137 0 5 14 24 32 42 17 18 29 35 27 38 -3 2 -22 -12 -42
-32z"/>
<path d="M1930 4983 c0 -6 44 -53 98 -103 l97 -93 -80 -73 c-44 -41 -83 -73
-87 -71 -4 1 -77 77 -163 170 -86 92 -161 167 -167 167 -6 0 24 -37 68 -83 43
-45 120 -126 171 -179 l92 -96 87 80 87 79 64 -63 63 -63 -134 -134 -134 -134
-267 271 c-147 150 -271 269 -276 266 -8 -4 521 -534 541 -542 5 -2 37 25 73
60 35 35 96 94 135 133 l72 69 28 -27 c41 -40 52 -33 12 8 l-34 35 44 48 45
47 -48 -45 -47 -44 -62 61 c-61 61 -62 62 -43 83 22 24 9 27 -17 3 -18 -16
-23 -12 -118 82 -55 55 -100 95 -100 88z"/>
<path d="M11081 5113 l-121 -138 0 -210 0 -210 24 25 c13 14 69 77 125 139
l101 115 0 208 c0 114 -2 208 -4 208 -2 0 -59 -62 -125 -137z m117 35 c-1 -72
-1 -72 -8 -23 -5 31 -7 -17 -7 -129 l0 -178 -34 -32 -34 -31 33 35 c17 20 32
40 32 45 0 10 -113 -113 -119 -129 -2 -6 12 2 30 19 l34 30 -34 -37 c-19 -21
-37 -35 -40 -33 -2 3 -17 -7 -33 -22 l-28 -27 0 166 c0 152 2 166 20 183 11
10 20 23 20 29 0 6 -10 0 -22 -12 -22 -21 -23 -32 -28 -220 l-6 -197 -2 195
-2 196 38 37 c21 21 41 35 44 32 3 -3 32 25 64 62 32 38 62 70 67 71 4 2 7 12
7 23 0 10 2 19 5 19 3 0 4 -33 3 -72z m-158 -491 c0 -2 -12 -14 -27 -28 l-28
-24 24 28 c23 25 31 32 31 24z"/>
<path d="M10242 4363 l-122 -138 0 -207 c0 -115 2 -208 4 -208 3 0 59 61 125
136 l121 137 0 208 c0 115 -1 209 -3 209 -2 0 -58 -62 -125 -137z m116 20 l-1
-78 -7 60 c-5 42 -7 10 -8 -107 -1 -99 -6 -169 -12 -173 -5 -3 -10 -11 -10
-17 0 -6 10 -3 22 8 13 10 -6 -14 -41 -54 -60 -68 -103 -109 -71 -66 8 10 -5
1 -28 -21 -49 -46 -58 -73 -9 -29 l32 29 -29 -32 c-16 -18 -33 -30 -38 -27 -4
3 -8 80 -8 172 l0 166 27 28 c14 15 24 30 21 34 -3 3 -18 -10 -32 -28 -25 -34
-26 -38 -29 -224 l-2 -189 -3 193 -2 192 41 45 c23 25 45 43 49 40 9 -6 130
129 130 144 0 6 2 11 5 11 3 0 4 -35 3 -77z"/>
<path d="M10277 4022 c-34 -35 -49 -61 -28 -47 11 6 74 85 69 85 -2 0 -21 -17
-41 -38z"/>
<path d="M6986 5135 c-72 -73 48 -266 149 -241 46 12 59 89 26 154 -22 42 -43
63 -88 86 -40 20 -67 20 -87 1z m117 -45 c60 -70 55 -152 -9 -158 -53 -5 -86
32 -92 103 -4 48 -2 61 14 72 29 21 60 15 87 -17z"/>
<path d="M3790 4524 c-333 -304 -339 -309 -352 -296 -19 19 -29 14 -16 -8 12
-19 8 -25 -42 -70 -70 -63 -56 -65 17 -3 l54 46 38 -39 c21 -21 88 -91 149
-155 l112 -116 -127 -115 c-71 -63 -134 -118 -142 -122 -9 -6 -47 25 -127 105
-63 63 -114 109 -114 104 0 -5 50 -60 111 -121 l110 -111 -122 -111 c-67 -62
-125 -112 -128 -112 -4 0 -78 68 -164 151 -86 83 -157 147 -157 142 0 -5 69
-77 154 -161 l153 -153 -30 -25 c-16 -14 -27 -28 -23 -31 3 -4 20 6 36 22 l30
29 103 -101 102 -102 495 440 c272 242 509 453 525 470 78 81 -40 -20 -504
-431 -277 -245 -507 -447 -513 -449 -10 -3 -188 167 -188 180 0 3 54 56 120
118 l120 113 69 -74 c38 -40 72 -70 75 -67 3 3 -25 38 -61 79 l-68 73 95 89
c52 49 115 106 139 126 l44 37 53 -59 c29 -32 57 -56 62 -55 6 2 126 108 268
234 335 298 300 273 330 244 13 -12 24 -18 24 -12 0 5 -9 18 -20 28 -16 15
-18 21 -8 33 11 13 10 14 -7 9 -17 -6 -60 33 -235 208 -118 118 -217 215 -220
215 -3 0 -102 -88 -220 -196z m438 -37 l213 -213 -262 -229 c-145 -127 -271
-236 -282 -244 -17 -12 -24 -9 -71 38 l-51 52 80 74 c44 41 76 75 71 75 -4 0
-42 -32 -84 -71 l-75 -70 -154 153 c-118 118 -150 155 -140 164 324 299 529
484 535 484 4 0 103 -96 220 -213z"/>
<path d="M3492 4537 c-26 -27 -49 -37 -110 -52 -42 -10 -83 -20 -90 -22 -8 -4
-10 1 -6 13 5 14 0 12 -23 -8 -16 -16 -38 -28 -49 -28 -10 0 -26 -5 -34 -10
-11 -8 -7 -9 15 -4 24 6 1 -21 -125 -142 -272 -261 -286 -274 -306 -274 -14 0
-16 -3 -6 -9 10 -6 -26 -46 -129 -143 -78 -74 -138 -138 -133 -141 5 -3 77 60
159 139 l150 143 99 -6 c74 -4 97 -3 92 5 -5 8 -39 12 -92 12 -46 0 -84 2 -84
3 0 4 208 208 351 346 92 88 78 81 239 117 19 4 4 -16 -64 -85 -50 -50 -87
-94 -83 -98 4 -4 54 38 110 94 56 56 112 104 125 108 12 3 22 11 22 16 0 6 -6
7 -12 3 -7 -4 0 7 16 24 41 44 10 43 -32 -1z"/>
<path d="M5760 4001 c0 -4 66 -35 147 -69 l147 -61 58 32 c32 17 58 35 58 39
0 13 -11 9 -62 -22 -26 -16 -52 -30 -57 -30 -5 0 -63 23 -128 51 -156 67 -163
70 -163 60z"/>
<path d="M6515 3732 c14 -13 551 -195 564 -191 6 2 -113 47 -265 99 -297 102
-315 107 -299 92z"/>
<path d="M5299 3839 l-83 -120 -36 5 c-34 5 -34 5 -7 -7 33 -13 33 -14 -28
-100 -44 -64 -49 -68 -79 -63 l-31 6 27 -13 c20 -9 25 -16 17 -24 -7 -7 -7
-13 -1 -17 5 -3 15 0 21 8 10 11 23 9 81 -13 61 -22 69 -28 64 -46 -6 -19 -6
-19 12 -4 18 16 31 12 217 -56 108 -40 197 -70 197 -66 0 3 -87 37 -193 75
-105 38 -194 71 -196 72 -2 2 16 33 40 70 24 37 47 71 50 76 3 5 24 2 47 -7
l41 -17 -36 -49 c-19 -27 -30 -49 -24 -49 5 0 22 17 37 38 16 20 31 41 35 45
6 8 602 -226 623 -244 5 -4 -17 -42 -48 -85 -30 -43 -53 -80 -51 -83 6 -5 0
-12 69 81 l56 78 56 -21 c30 -12 58 -18 61 -15 5 5 -49 32 -94 47 -7 2 20 47
65 110 l76 106 151 -50 c82 -27 152 -51 153 -53 2 -1 -14 -32 -35 -69 -41 -71
-37 -69 -118 -49 -19 5 -26 3 -21 -4 3 -6 21 -14 39 -17 17 -4 35 -9 39 -11 4
-3 -11 -34 -34 -70 -22 -35 -37 -68 -33 -72 4 -4 9 -2 12 3 2 6 21 38 43 72
l39 61 53 -16 c29 -9 54 -17 56 -18 2 -1 -24 -44 -58 -95 -33 -51 -60 -97 -60
-102 0 -19 21 8 75 93 34 55 63 90 73 90 10 0 45 -9 79 -19 35 -11 65 -15 68
-11 3 5 -27 19 -67 31 -40 11 -75 23 -76 24 -2 2 14 30 35 62 22 32 43 63 46
70 5 7 -15 19 -57 33 -47 15 -63 25 -59 36 3 8 1 14 -5 14 -6 0 -12 -5 -14
-11 -3 -8 -60 6 -166 40 -90 29 -167 49 -172 46 -5 -3 -42 -53 -81 -109 l-71
-104 -82 32 c-44 18 -182 72 -306 121 -124 48 -229 92 -234 96 -4 4 22 49 58
100 61 85 79 118 57 105 -4 -3 -37 -45 -71 -93 -35 -49 -66 -92 -70 -96 -6 -7
-61 13 -78 28 -2 2 27 50 65 107 86 128 86 128 75 128 -5 0 -42 -51 -83 -112
-40 -62 -74 -115 -76 -117 -2 -3 -130 46 -141 55 -2 1 35 59 83 128 47 69 82
126 77 126 -5 0 -47 -54 -93 -121z m53 -209 c-1 -6 -23 -41 -48 -79 l-45 -68
-70 26 c-38 14 -69 29 -69 33 0 5 23 42 51 82 l52 74 66 -29 c36 -15 65 -33
63 -39z m1309 -195 c24 -9 50 -17 57 -20 9 -3 0 -24 -29 -67 -23 -35 -43 -65
-45 -66 -4 -5 -114 28 -114 34 0 6 81 134 85 134 1 0 22 -7 46 -15z"/>
<path d="M4262 3491 l-122 -139 0 -206 c0 -113 3 -206 8 -205 4 0 60 61 125
135 l117 135 0 209 c0 116 -1 210 -3 210 -1 0 -57 -63 -125 -139z m113 47 c-2
-29 -7 -115 -10 -191 -4 -111 -3 -137 7 -131 7 4 -13 -21 -44 -57 -31 -35 -61
-63 -67 -62 -5 2 -28 -18 -50 -44 l-41 -46 0 172 c0 135 -3 171 -12 165 -17
-10 6 20 51 68 19 20 38 35 42 33 9 -6 119 118 119 134 0 6 2 11 5 11 3 0 3
-24 0 -52z m-125 -471 c0 -2 -12 -14 -27 -28 l-28 -24 24 28 c23 25 31 32 31
24z m-80 -87 c0 -5 -5 -10 -11 -10 -5 0 -7 5 -4 10 3 6 8 10 11 10 2 0 4 -4 4
-10z"/>
<path d="M4219 3413 c-43 -48 -55 -69 -20 -38 29 27 58 65 48 65 -2 0 -14 -12
-28 -27z"/>
<path d="M4319 3173 c-44 -47 -68 -79 -52 -70 12 8 97 107 91 107 -2 0 -20
-17 -39 -37z"/>
<path d="M7180 3299 c-35 -14 -88 -67 -111 -112 -32 -62 -58 -186 -47 -227 19
-70 56 -86 114 -51 45 28 90 106 114 200 19 71 20 89 10 129 -18 72 -30 81
-80 61z m24 -51 c23 -32 20 -126 -5 -193 -26 -69 -79 -128 -111 -123 -22 3
-23 7 -23 88 0 72 4 94 28 141 28 58 68 109 86 109 5 0 17 -10 25 -22z"/>
</g>
</svg>
