<?xml version="1.0" encoding="UTF-8" standalone="no"?>
<!-- Created with Inkscape (http://www.inkscape.org/) -->

<svg
   width="200.03041mm"
   height="146.14842mm"
   viewBox="0 0 200.03041 146.14844"
   version="1.1"
   id="svg5"
   inkscape:version="1.1.1 (1:1.1+202109281949+c3084ef5ed)"
   sodipodi:docname="plateau.svg"
   xmlns:inkscape="http://www.inkscape.org/namespaces/inkscape"
   xmlns:sodipodi="http://sodipodi.sourceforge.net/DTD/sodipodi-0.dtd"
   xmlns="http://www.w3.org/2000/svg"
   xmlns:svg="http://www.w3.org/2000/svg">
  <sodipodi:namedview
     id="namedview7"
     pagecolor="#ffffff"
     bordercolor="#666666"
     borderopacity="1.0"
     inkscape:pageshadow="2"
     inkscape:pageopacity="0.0"
     inkscape:pagecheckerboard="0"
     inkscape:document-units="mm"
     showgrid="false"
     fit-margin-top="0"
     fit-margin-left="0"
     fit-margin-right="0"
     fit-margin-bottom="0"
     inkscape:zoom="2"
     inkscape:cx="449"
     inkscape:cy="155.75"
     inkscape:window-width="1848"
     inkscape:window-height="1016"
     inkscape:window-x="72"
     inkscape:window-y="27"
     inkscape:window-maximized="1"
     inkscape:current-layer="layer1"
     showguides="true"
     inkscape:snap-text-baseline="true" />
  <defs
     id="defs2">
    <inkscape:path-effect
       effect="offset"
       id="path-effect1564"
       is_visible="true"
       lpeversion="1"
       linejoin_type="miter"
       unit="mm"
       offset="-2.5"
       miter_limit="4"
       attempt_force_join="false"
       update_on_knot_move="true" />
    <inkscape:path-effect
       effect="offset"
       id="path-effect1562"
       is_visible="true"
       lpeversion="1"
       linejoin_type="miter"
       unit="mm"
       offset="0"
       miter_limit="4"
       attempt_force_join="false"
       update_on_knot_move="true" />
    <inkscape:path-effect
       effect="clone_original"
       id="path-effect1560"
       is_visible="true"
       lpeversion="1"
       linkeditem=""
       method="d"
       attributes=""
       css_properties=""
       allow_transforms="true" />
    <inkscape:path-effect
       effect="offset"
       id="path-effect1558"
       is_visible="true"
       lpeversion="1"
       linejoin_type="miter"
       unit="mm"
       offset="-1.7"
       miter_limit="4"
       attempt_force_join="false"
       update_on_knot_move="true" />
    <inkscape:path-effect
       effect="rough_hatches"
       id="path-effect1556"
       is_visible="true"
       lpeversion="1"
       direction="336.57226,260.17676 , 150.75293,0"
       dist_rdm="75;1"
       growth="0"
       do_bend="true"
       bender="336.57226,265.17676 , 5,0"
       bottom_edge_variation="42.800195;1"
       top_edge_variation="42.800195;1"
       bottom_tgt_variation="0;1"
       top_tgt_variation="0;1"
       scale_bf="1"
       scale_bb="1"
       scale_tf="1"
       scale_tb="1"
       top_smth_variation="0;1"
       bottom_smth_variation="0;1"
       fat_output="true"
       stroke_width_top="1"
       stroke_width_bottom="1"
       front_thickness="1"
       back_thickness="0.25" />
    <inkscape:path-effect
       effect="offset"
       id="path-effect1554"
       is_visible="true"
       lpeversion="1"
       linejoin_type="miter"
       unit="mm"
       offset="0.46142405"
       miter_limit="4"
       attempt_force_join="true"
       update_on_knot_move="true" />
  </defs>
  <g
     inkscape:label="Calque 1"
     inkscape:groupmode="layer"
     id="layer1"
     transform="translate(-236.51047,-144.73328)">
    <path
       id="rect31-2"
       style="fill:none;stroke:#ff0000;stroke-width:0.0307616;stroke-miterlimit:4;stroke-dasharray:none"
       d="m 275.02351,144.74866 h 7.69041 v 7.6904 h -7.69041 z m 153.80801,115.35603 h 7.69041 v 7.6904 h -7.69041 z m -15.42048,23.07119 h 7.69039 v 7.6904 h -7.69039 z m -15.34116,0 h 7.69041 v 7.6904 h -7.69041 z m -15.38077,4e-5 h 7.69041 v 7.69039 h -7.69041 z m -15.3808,-4e-5 h 7.69041 v 7.69039 h -7.69041 z m -30.76159,10e-6 h 7.69039 v 7.69041 h -7.69039 z m -15.38081,-10e-6 h 7.69039 v 7.69039 h -7.69039 z m 30.76161,0 h 7.69039 v 7.69039 h -7.69039 z m -15.3808,-7.69039 h 7.69039 v 7.69039 h -7.69039 z m 0,-7.69041 h 7.69039 v 7.69041 h -7.69039 z m 0,-7.69041 h 7.69039 v 7.69041 h -7.69039 z m 7.69039,0 h -7.69039 v -7.69039 h 7.69039 z m 0,-7.69039 h -7.69039 v -7.6904 h 7.69039 z m 0,-7.6904 h -7.69039 v -7.6904 h 7.69039 z m 0,-7.6904 h -7.69039 v -7.6904 h 7.69039 z m 0,-7.6904 h -7.69039 v -7.69041 h 7.69039 z m 0,-7.69038 h -7.69039 v -7.69041 h 7.69039 z m 0,-7.69042 h -7.69039 v -7.69041 h 7.69039 z m 0,-7.69041 h -7.69039 v -7.6904 h 7.69039 z m 0,-7.6904 h -7.69039 v -7.69039 h 7.69039 z m -15.3808,84.59441 h 7.69041 v 7.6904 h -7.69041 z m 0,-7.69039 h 7.69041 v 7.69039 h -7.69041 z m 0,-7.69041 h 7.69041 v 7.69041 h -7.69041 z m 0,-7.69041 h 7.69041 v 7.69041 h -7.69041 z m 7.69041,0 h -7.69042 v -7.69039 h 7.69042 z m 0,-7.69037 h -7.69042 v -7.6904 h 7.69042 z m 0,-7.6904 h -7.69042 v -7.6904 h 7.69042 z m 0,-7.6904 h -7.69042 v -7.69041 h 7.69042 z m 0,-7.69041 h -7.69042 v -7.69039 h 7.69042 z m 0,-7.69039 h -7.69042 v -7.69041 h 7.69042 z m 0,-7.69042 h -7.69042 v -7.69041 h 7.69042 z m 0,-7.69041 h -7.69042 v -7.6904 h 7.69042 z m 0,-7.6904 h -7.69042 v -7.69039 h 7.69042 z m 15.3808,76.90402 h 7.69039 v 7.6904 h -7.69039 z m 0,-7.6904 h 7.69039 v 7.6904 h -7.69039 z m 0,-7.69042 h 7.69039 v 7.69041 h -7.69039 z m 7.69039,0 h -7.69039 v -7.69039 h 7.69039 z m 0,-7.69037 h -7.69039 v -7.69041 h 7.69039 z m 0,-7.69041 h -7.69039 v -7.69041 h 7.69039 z m 0,-7.69041 h -7.69039 v -7.69039 h 7.69039 z m 0,-7.69039 h -7.69039 v -7.6904 h 7.69039 z m 0,-7.6904 h -7.69039 v -7.69041 h 7.69039 z m 0,-7.69041 h -7.69039 v -7.69041 h 7.69039 z m 0,-7.69041 h -7.69039 v -7.6904 h 7.69039 z m 0,-7.6904 h -7.69039 v -7.69039 h 7.69039 z m -15.3808,84.59442 h 7.69041 v 7.69041 h -7.69041 z m 0,-7.6904 h 7.69041 v 7.6904 h -7.69041 z m 0,-7.6904 h 7.69041 v 7.6904 h -7.69041 z m 0,-7.69042 h 7.69041 v 7.69041 h -7.69041 z m 7.69041,0 h -7.69041 v -7.69039 h 7.69041 z m 0,-7.69037 h -7.69041 v -7.69041 h 7.69041 z m 0,-7.69041 h -7.69041 v -7.69041 h 7.69041 z m 0,-7.69041 h -7.69041 v -7.69039 h 7.69041 z m 0,-7.69039 h -7.69041 v -7.6904 h 7.69041 z m 0,-7.6904 h -7.69041 v -7.69041 h 7.69041 z m 0,-7.6904 h -7.69041 v -7.6904 h 7.69041 z m 0,-7.6904 h -7.69041 v -7.69041 h 7.69041 z m 0,-7.69041 h -7.69041 v -7.6904 h 7.69041 z m -30.76161,76.90401 h 7.69039 v 7.69039 h -7.69039 z m 0,-7.69041 h 7.69039 v 7.69041 h -7.69039 z m 0,-7.69041 h 7.69039 v 7.69041 h -7.69039 z m 7.69039,0 h -7.69039 v -7.69039 h 7.69039 z m 0,-7.69039 h -7.69039 v -7.6904 h 7.69039 z m 0,-7.6904 h -7.69039 v -7.6904 h 7.69039 z m 0,-7.6904 h -7.69039 v -7.6904 h 7.69039 z m 0,-7.6904 h -7.69039 v -7.69041 h 7.69039 z m 0,-7.69038 h -7.69039 v -7.69041 h 7.69039 z m 0,-7.69042 h -7.69039 v -7.69041 h 7.69039 z m 0,-7.69041 h -7.69039 v -7.6904 h 7.69039 z m 0,-7.6904 h -7.69039 v -7.69039 h 7.69039 z m -15.38079,84.59441 h 7.6904 v 7.6904 h -7.6904 z m 0,-7.69039 h 7.6904 v 7.69039 h -7.6904 z m 0,-7.69041 h 7.6904 v 7.69041 h -7.6904 z m 0,-7.69041 h 7.6904 v 7.69041 h -7.6904 z m 7.6904,0 h -7.69041 v -7.69039 h 7.69041 z m 0,-7.69037 h -7.69041 v -7.6904 h 7.69041 z m 0,-7.6904 h -7.69041 v -7.6904 h 7.69041 z m 0,-7.6904 h -7.69041 v -7.69041 h 7.69041 z m 0,-7.69041 h -7.69041 v -7.69039 h 7.69041 z m 0,-7.69039 h -7.69041 v -7.69041 h 7.69041 z m 0,-7.69042 h -7.69041 v -7.69041 h 7.69041 z m 0,-7.69041 h -7.69041 v -7.6904 h 7.69041 z m 0,-7.6904 h -7.69041 v -7.69039 h 7.69041 z m -15.38081,84.59442 h 7.6904 v 7.69039 h -7.6904 z m -15.3808,0 h 7.6904 v 7.69039 h -7.6904 z m -15.3808,0 h 7.69039 v 7.69039 h -7.69039 z m -30.76161,0 h 7.69041 v 7.69039 h -7.69041 z m 15.3808,0 h 7.6904 v 7.69039 h -7.6904 z m 46.14242,-7.69039 h 7.69039 v 7.6904 h -7.69039 z m 0,-7.69041 h 7.69039 v 7.69041 h -7.69039 z m 0,-7.69039 h 7.69039 v 7.69039 h -7.69039 z m 7.6904,0 h -7.6904 v -7.6904 h 7.6904 z m 0,-7.69039 h -7.6904 v -7.69039 h 7.6904 z m 0,-7.69039 h -7.6904 v -7.69041 h 7.6904 z m 0,-7.69041 h -7.6904 v -7.6904 h 7.6904 z m 0,-7.6904 h -7.6904 v -7.6904 h 7.6904 z m 0,-7.6904 h -7.6904 v -7.6904 h 7.6904 z m 0,-7.69042 h -7.6904 v -7.6904 h 7.6904 z m 0,-7.69039 h -7.6904 v -7.6904 h 7.6904 z m 0,-7.6904 h -7.6904 v -7.6904 h 7.6904 z m -15.38081,84.5944 h 7.69041 v 7.6904 h -7.69041 z m 0,-7.6904 h 7.69041 v 7.6904 h -7.69041 z m 0,-7.69041 h 7.69041 v 7.69041 h -7.69041 z m 0,-7.69039 h 7.69041 v 7.69039 h -7.69041 z m 7.69041,0 h -7.69041 v -7.6904 h 7.69041 z m 0,-7.6904 h -7.69041 v -7.69041 h 7.69041 z m 0,-7.69041 h -7.69041 v -7.69039 h 7.69041 z m 0,-7.69039 h -7.69041 v -7.69041 h 7.69041 z m 0,-7.69041 h -7.69041 v -7.6904 h 7.69041 z m 0,-7.69038 h -7.69041 v -7.6904 h 7.69041 z m 0,-7.69042 h -7.69041 v -7.6904 h 7.69041 z m 0,-7.69039 h -7.69041 v -7.6904 h 7.69041 z m 0,-7.6904 h -7.69041 v -7.6904 h 7.69041 z m -15.3808,76.90401 h 7.69039 v 7.69041 h -7.69039 z m 0,-7.69039 h 7.69039 v 7.69039 h -7.69039 z m 0,-7.69041 h 7.69039 v 7.69041 h -7.69039 z m 7.69039,-1e-5 h -7.69039 v -7.6904 h 7.69039 z m 0,-7.69039 h -7.69039 v -7.69039 h 7.69039 z m 0,-7.69039 h -7.69039 v -7.69041 h 7.69039 z m 0,-7.69041 h -7.69039 v -7.6904 h 7.69039 z m 0,-7.6904 h -7.69039 v -7.6904 h 7.69039 z m 0,-7.6904 h -7.69039 v -7.6904 h 7.69039 z m 0,-7.69042 h -7.69039 v -7.6904 h 7.69039 z m 0,-7.69039 h -7.69039 v -7.6904 h 7.69039 z m 0,-7.6904 h -7.69039 v -7.6904 h 7.69039 z m -15.38079,76.90401 h 7.6904 v 7.69041 h -7.6904 z m 0,-7.69039 h 7.6904 v 7.69039 h -7.6904 z m 0,-7.69041 h 7.6904 v 7.69041 h -7.6904 z m 7.6904,-1e-5 h -7.6904 v -7.6904 h 7.6904 z m 0,-7.69039 h -7.6904 v -7.69039 h 7.6904 z m 0,-7.69039 h -7.6904 v -7.69041 h 7.6904 z m 0,-7.69041 h -7.6904 v -7.6904 h 7.6904 z m 0,-7.6904 h -7.6904 v -7.6904 h 7.6904 z m 0,-7.6904 h -7.6904 v -7.6904 h 7.6904 z m 0,-7.6904 h -7.6904 v -7.6904 h 7.6904 z m 0,-7.69041 h -7.6904 v -7.6904 h 7.6904 z m 0,-7.6904 h -7.6904 v -7.6904 h 7.6904 z m -15.38081,76.90399 h 7.69039 v 7.6904 h -7.69039 z m 0,-7.6904 h 7.69039 v 7.6904 h -7.69039 z m 0,-7.6904 h 7.69039 v 7.6904 h -7.69039 z m 7.69039,0 h -7.69039 v -7.69041 h 7.69039 z m 0,-7.69041 h -7.69039 v -7.69039 h 7.69039 z m 0,-7.69039 h -7.69039 v -7.69041 h 7.69039 z m 0,-7.69041 h -7.69039 v -7.6904 h 7.69039 z m 0,-7.6904 h -7.69039 v -7.69039 h 7.69039 z m 0,-7.69038 h -7.69039 v -7.69041 h 7.69039 z m 0,-7.69041 h -7.69039 v -7.6904 h 7.69039 z m 0,-7.6904 h -7.69039 v -7.69041 h 7.69039 z m 0,-7.69041 h -7.69039 v -7.69039 h 7.69039 z m -15.3808,76.90401 h 7.69041 v 7.6904 h -7.69041 z m 0,-7.6904 h 7.69041 v 7.6904 h -7.69041 z m 0,-7.6904 h 7.69041 v 7.6904 h -7.69041 z m 7.69041,0 h -7.69041 v -7.69041 h 7.69041 z m 0,-7.69038 h -7.69041 v -7.69041 h 7.69041 z m 0,-7.69041 h -7.69041 v -7.6904 h 7.69041 z m 0,-7.6904 h -7.69041 v -7.69039 h 7.69041 z m 0,-7.69039 h -7.69041 v -7.69041 h 7.69041 z m 0,-7.69041 h -7.69041 v -7.69041 h 7.69041 z m 0,-7.69041 h -7.69041 v -7.6904 h 7.69041 z m 0,-7.6904 h -7.69041 v -7.69041 h 7.69041 z m 0,-7.69041 h -7.69041 v -7.69039 h 7.69041 z m -15.38081,76.90401 h 7.6904 v 7.6904 h -7.6904 z m 0,-7.6904 h 7.6904 v 7.6904 h -7.6904 z m 0,-7.6904 h 7.6904 v 7.6904 h -7.6904 z m 7.6904,0 h -7.6904 v -7.69041 h 7.6904 z m 0,-7.69038 h -7.6904 v -7.69041 h 7.6904 z m 0,-7.69041 h -7.6904 v -7.6904 h 7.6904 z m 0,-7.6904 h -7.6904 v -7.69039 h 7.6904 z m 0,-7.69039 h -7.6904 v -7.69041 h 7.6904 z m 0,-7.69041 h -7.6904 v -7.69041 h 7.6904 z m 0,-7.69041 h -7.6904 v -7.6904 h 7.6904 z m 0,-7.6904 h -7.6904 v -7.69039 h 7.6904 z m 0,-7.69039 h -7.6904 v -7.69041 h 7.6904 z m -15.38079,76.90399 h 7.69039 v 7.6904 h -7.69039 z m 0,-7.6904 h 7.69039 v 7.6904 h -7.69039 z m 0,-7.6904 h 7.69039 v 7.6904 h -7.69039 z m 7.69039,0 h -7.69039 v -7.69041 h 7.69039 z m 0,-7.69039 h -7.69039 v -7.69041 h 7.69039 z m 0,-7.69041 h -7.69039 v -7.69039 h 7.69039 z m 0,-7.69039 h -7.69039 v -7.69041 h 7.69039 z m 0,-7.69041 h -7.69039 v -7.6904 h 7.69039 z m 0,-7.69039 h -7.69039 v -7.69041 h 7.69039 z m 0,-7.69041 h -7.69039 v -7.6904 h 7.69039 z m 0,-7.6904 h -7.69039 v -7.69039 h 7.69039 z m 0,-7.69039 h -7.69039 v -7.69041 h 7.69039 z m -15.3808,76.904 h 7.69041 v 7.6904 h -7.69041 z m 0,-7.69041 h 7.69041 v 7.69041 h -7.69041 z m 0,-7.69039 h 7.69041 v 7.69039 h -7.69041 z m 7.69041,0 h -7.69041 v -7.6904 h 7.69041 z m 0,-7.69039 h -7.69041 v -7.69041 h 7.69041 z m 0,-7.69041 h -7.69041 v -7.6904 h 7.69041 z m 0,-7.6904 h -7.69041 v -7.69039 h 7.69041 z m 0,-7.69039 h -7.69041 v -7.69041 h 7.69041 z m 0,-7.69041 h -7.69041 v -7.69041 h 7.69041 z m 0,-7.69041 h -7.69041 v -7.6904 h 7.69041 z m 0,-7.6904 h -7.69041 v -7.69039 h 7.69041 z m 0,-7.69039 h -7.69041 v -7.69041 h 7.69041 z m 46.14239,-30.76161 h 7.69041 v 7.6904 h -7.69041 z m -7.69039,1e-5 h 7.69039 v 7.69041 h -7.69039 z m -7.69041,0 h 7.69041 v 7.69041 h -7.69041 z m -7.69039,0 h 7.69039 v 7.69041 h -7.69039 z m -7.69041,-1e-5 h 7.69041 v 7.6904 h -7.69041 z m -7.69039,1e-5 h 7.69039 v 7.69041 h -7.69039 z m -7.6904,0 h 7.69039 v 7.69041 h -7.69039 z m -7.69041,0 h 7.69041 v 7.69041 h -7.69041 z m 184.5696,1e-5 h 7.69041 v 7.6904 h -7.69041 z m -0.0396,7.6904 h 7.69041 v 7.69039 h -7.69041 z m 0.0432,7.69041 h 7.69041 v 7.6904 h -7.69041 z m -84.59791,7.69038 h -7.6904 v -7.6904 h 7.6904 z m 0,-7.6904 h -7.6904 v -7.69039 h 7.6904 z m 0,-7.69039 h -7.6904 v -7.69041 h 7.6904 z m -7.6904,15.38079 h -7.69041 v -7.6904 h 7.69041 z m 0,-7.6904 h -7.69041 v -7.69039 h 7.69041 z m 0,-7.69039 h -7.69041 v -7.69041 h 7.69041 z m 92.28478,15.38079 h -7.69041 v -7.6904 h 7.69041 z m 0,-7.69039 h -7.69041 v -7.6904 h 7.69041 z m 0,-7.6904 h -7.69041 v -7.6904 h 7.69041 z m -7.69037,15.38081 h -7.6904 v -7.69041 h 7.6904 z m 0,-7.6904 h -7.6904 v -7.6904 h 7.6904 z m 0,-7.69041 h -7.6904 v -7.6904 h 7.6904 z m -7.69043,15.38081 h -7.6904 v -7.69041 h 7.6904 z m 0,-7.6904 h -7.6904 v -7.6904 h 7.6904 z m 0,-7.69041 h -7.6904 v -7.6904 h 7.6904 z m -7.69038,15.38081 h -7.69039 v -7.69041 h 7.69039 z m 0,-7.6904 h -7.69039 v -7.6904 h 7.69039 z m 0,-7.69041 h -7.69039 v -7.6904 h 7.69039 z m -7.69039,15.38081 h -7.69041 v -7.69041 h 7.69041 z m 0,-7.6904 h -7.69041 v -7.6904 h 7.69041 z m 0,-7.6904 h -7.69041 v -7.69041 h 7.69041 z m -7.69043,15.38078 h -7.69041 v -7.6904 h 7.69041 z m 0,-7.6904 h -7.69041 v -7.69039 h 7.69041 z m 0,-7.69039 h -7.69041 v -7.69041 h 7.69041 z m -7.69038,15.38079 h -7.69039 v -7.6904 h 7.69039 z m 0,-7.6904 h -7.69039 v -7.69039 h 7.69039 z m 0,-7.69039 h -7.69039 v -7.69041 h 7.69039 z m -7.69039,15.38079 h -7.69041 v -7.6904 h 7.69041 z m 0,-7.69039 h -7.69041 v -7.6904 h 7.69041 z m 0,-7.6904 h -7.69041 v -7.69041 h 7.69041 z m -7.69041,15.38079 h -7.6904 v -7.6904 h 7.6904 z m 0,-7.69039 h -7.6904 v -7.6904 h 7.6904 z m 0,-7.6904 h -7.6904 v -7.69041 h 7.6904 z m -7.6904,15.38079 h -7.6904 v -7.6904 h 7.6904 z m 0,-7.69039 h -7.6904 v -7.6904 h 7.6904 z m 0,-7.6904 h -7.6904 v -7.69041 h 7.6904 z m -7.6904,15.38081 h -7.6904 v -7.69041 h 7.6904 z m 0,-7.69041 h -7.6904 v -7.6904 h 7.6904 z m 0,-7.6904 h -7.6904 v -7.6904 h 7.6904 z m -23.07121,15.38079 h -7.6904 v -7.6904 h 7.6904 z m 0,-7.6904 h -7.6904 v -7.69039 h 7.6904 z m 0,-7.69039 h -7.6904 v -7.69041 h 7.6904 z m -7.6904,15.38079 h -7.6904 v -7.6904 h 7.6904 z m 0,-7.6904 h -7.6904 v -7.69039 h 7.6904 z m 0,-7.69039 h -7.6904 v -7.69041 h 7.6904 z m -7.69039,15.38081 h -7.6904 v -7.69041 h 7.6904 z m 0,-7.69041 h -7.6904 v -7.6904 h 7.6904 z m 0,-7.6904 h -7.6904 v -7.69041 h 7.6904 z m -7.6904,15.38081 h -7.69041 v -7.69041 h 7.69041 z m 0,-7.69041 h -7.69041 v -7.6904 h 7.69041 z m -7.69041,7.69041 h -7.69039 v -7.69041 h 7.69039 z m 0,-7.69041 h -7.69039 v -7.6904 h 7.69039 z m -7.69039,7.69041 h -7.69041 v -7.69041 h 7.69041 z m 0,-7.69041 h -7.69041 v -7.6904 h 7.69041 z m -7.69042,7.69039 h -7.69039 v -7.6904 h 7.69039 z m 0,-7.6904 h -7.69039 v -7.69039 h 7.69039 z m -7.69039,7.6904 h -7.69041 v -7.6904 h 7.69041 z m 0,-7.6904 h -7.69041 v -7.69039 h 7.69041 z m -7.69041,7.6904 h -7.69039 v -7.6904 h 7.69039 z m 0,-7.6904 h -7.69039 v -7.69039 h 7.69039 z m -7.69039,7.6904 h -7.69041 v -7.6904 h 7.69041 z m 0,-7.6904 h -7.69041 v -7.69039 h 7.69041 z m -7.69041,7.6904 h -7.6904 v -7.6904 h 7.6904 z m 0,-7.6904 h -7.6904 v -7.69039 h 7.6904 z m 46.1424,-23.07119 h 7.6904 v 7.69039 h -7.6904 z m -15.3808,0 h 7.6904 v 7.69039 h -7.6904 z m -7.69039,-7.69041 h 7.69039 v 7.69041 h -7.69039 z m 15.38079,7.69041 h 7.6904 v 7.69039 h -7.6904 z m -15.38079,0 h 7.69039 v 7.6904 h -7.69039 z m 23.0712,-7.69041 h 7.69039 v 7.69041 h -7.69039 z m -7.69041,0 h 7.69041 v 7.69041 h -7.69041 z m -7.6904,0 h 7.6904 v 7.69041 h -7.6904 z m -15.3808,7.69041 h 7.69041 v 7.69039 h -7.69041 z m -15.3808,0 h 7.6904 v 7.69039 h -7.6904 z m -7.6904,-7.69041 h 7.6904 v 7.69041 h -7.6904 z m 15.38081,7.69041 h 7.69039 v 7.69039 h -7.69039 z m -15.38081,0 h 7.6904 v 7.6904 h -7.6904 z m 23.0712,-7.69041 h 7.69041 v 7.69041 h -7.69041 z m -7.69039,0 h 7.69039 v 7.69041 h -7.69039 z m 169.18879,0 h 7.69041 v 7.69039 h -7.69041 z m -84.59438,15.3808 h -7.6904 v -7.69041 h 7.6904 z m 0,-7.69039 h -7.6904 v -7.69041 h 7.6904 z m -7.6904,7.69039 h -7.69041 v -7.69041 h 7.69041 z m 0,-7.69039 h -7.69041 v -7.69041 h 7.69041 z m 99.97519,7.69039 h -7.69041 v -7.69041 h 7.69041 z m -7.69041,0 h -7.69041 v -7.69041 h 7.69041 z m 0,-7.69039 h -7.69041 v -7.69041 h 7.69041 z m -7.69037,7.6904 h -7.6904 v -7.6904 h 7.6904 z m 0,-7.6904 h -7.6904 v -7.69041 h 7.6904 z m -7.69043,7.6904 h -7.6904 v -7.6904 h 7.6904 z m 0,-7.6904 h -7.6904 v -7.69041 h 7.6904 z m -7.69038,7.6904 h -7.69039 v -7.6904 h 7.69039 z m 0,-7.6904 h -7.69039 v -7.69041 h 7.69039 z m -7.69039,7.6904 h -7.69041 v -7.6904 h 7.69041 z m 0,-7.69039 h -7.69041 v -7.6904 h 7.69041 z m -7.69043,7.69037 h -7.69041 v -7.6904 h 7.69041 z m 0,-7.6904 h -7.69041 v -7.69039 h 7.69041 z m -7.69038,7.6904 h -7.69039 v -7.6904 h 7.69039 z m 0,-7.6904 h -7.69039 v -7.69039 h 7.69039 z m -7.69039,7.69041 h -7.69041 v -7.69041 h 7.69041 z m 0,-7.69039 h -7.69041 v -7.69041 h 7.69041 z m -7.69041,7.69039 h -7.6904 v -7.69041 h 7.6904 z m 0,-7.69039 h -7.6904 v -7.69041 h 7.6904 z m -7.6904,7.69039 h -7.6904 v -7.69041 h 7.6904 z m 0,-7.69039 h -7.6904 v -7.69041 h 7.6904 z m -7.6904,7.69039 h -7.6904 v -7.69041 h 7.6904 z m 0,-7.69039 h -7.6904 v -7.69041 h 7.6904 z m -23.07121,7.69039 h -7.6904 v -7.69041 h 7.6904 z m 0,-7.69039 h -7.6904 v -7.69041 h 7.6904 z m -7.6904,7.69039 h -7.6904 v -7.69041 h 7.6904 z m 0,-7.69039 h -7.6904 v -7.69041 h 7.6904 z m -7.69039,7.69039 h -7.6904 v -7.69039 h 7.6904 z m 0,-7.69039 h -7.6904 v -7.69041 h 7.6904 z m -61.52322,-7.69041 h 7.69041 v 7.69041 h -7.69041 z m -15.4215,107.66561 h 7.73112 v 7.69041 h -7.73112 z m 0,-92.28481 7.7311,1e-5 v 7.6904 h -7.7311 z m 0,7.69041 h 7.69144 v 7.6904 h -7.6904 z m 0,15.38081 h 7.73462 v 7.6904 h -7.73462 z m 0,46.1424 h 7.72534 v 7.69041 h -7.72534 z m 0,7.69041 h 7.7311 v 7.69041 h -7.7311 z m 0,-15.3808 h 7.7311 v 7.69039 h -7.7311 z m 0,-15.38082 h 7.7311 v 7.6904 h -7.7311 z m 0,-15.3808 h 7.7311 v 7.6904 h -7.7311 z m 0,-15.3808 7.73462,1e-5 v 7.6904 h -7.73462 z m 0,-30.76161 h 7.7311 v 7.69041 h -7.7311 z m 0,123.04644 h 7.73462 v 7.6904 h -7.73462 z m 0,7.6904 7.7311,-2e-5 v 7.69039 h -7.7311 -0.005 z m 0,-15.38083 h 7.7311 v 7.6904 h -7.7311 z m 7.7311,-7.6904 h -7.7311 v -7.6904 h 7.7311 z m 0,-30.76159 h -7.7311 v -7.69041 h 7.7311 z m 0,-15.38081 h -7.7311 v -7.6904 h 7.7311 z m 0,-46.14241 h -7.7311 v -7.69039 h 7.7311 z m 169.14915,-23.07119 h 7.69039 v 7.69041 h -7.69039 z m -15.34116,-10e-6 h 7.69041 v 7.6904 h -7.69041 z m -15.38654,10e-6 h 7.69039 v 7.69039 h -7.69039 z m -15.37503,0 h 7.69041 v 7.69039 h -7.69041 z m 61.52318,0 h 7.69041 v 7.69041 h -7.69041 z m -7.69041,0 h 7.69041 v 7.69041 h -7.69041 z m -15.38079,0 h 7.6904 v 7.69041 h -7.6904 z m -15.3808,0 h 7.69039 v 7.69039 h -7.69039 z m -15.38077,0 h 7.69039 v 7.69039 h -7.69039 z m -15.38081,0 h 7.6904 v 7.69039 h -7.6904 z m -23.0712,0 h 7.6904 v 7.69039 h -7.6904 z m 15.3808,0 h 7.6904 v 7.69039 h -7.6904 z m -7.6904,0 h 7.6904 v 7.69039 h -7.6904 z m -15.38081,0 h 7.69041 v 7.69039 h -7.69041 z m -7.6904,0 h 7.6904 v 7.69039 h -7.6904 z m -15.38081,-10e-6 h 7.69041 v 7.6904 h -7.69041 z m -15.3808,0 h 7.69041 v 7.6904 h -7.69041 z m -15.38079,0 h 7.69039 v 7.6904 h -7.69039 z m -30.76161,0 h 7.6904 v 7.6904 h -7.6904 z m -7.7311,0 h 7.7311 v 7.6904 h -7.7311 z m 23.11191,0 h 7.69039 v 7.6904 h -7.69039 z m -7.69041,0 h 7.69041 v 7.6904 h -7.69041 z m 46.14241,0 h 7.69039 v 7.6904 h -7.69039 z m -15.38081,0 h 7.6904 v 7.6904 h -7.6904 z m -15.3808,0 h 7.69041 v 7.6904 h -7.69041 z m 46.14241,0 h 7.6904 v 7.6904 h -7.6904 z m -30.7616,138.42722 h 7.69041 v 7.6904 h -7.69041 z m -15.38081,-3e-5 h 7.69041 v 7.69039 h -7.69041 z m -15.3808,0 h 7.6904 v 7.69039 h -7.6904 z m 107.66562,-10e-6 h 7.6904 v 7.69039 h -7.6904 z m 0,-7.69041 h 7.6904 v 7.69041 h -7.6904 z m 0,-7.6904 h 7.6904 v 7.6904 h -7.6904 z m 0,-7.6904 h 7.6904 v 7.6904 h -7.6904 z m 7.6904,0 h -7.6904 v -7.6904 h 7.6904 z m 0,-7.69039 h -7.6904 v -7.6904 h 7.6904 z m 0,-7.6904 h -7.6904 v -7.6904 h 7.6904 z m 0,-7.6904 h -7.6904 v -7.6904 h 7.6904 z m 0,-7.6904 h -7.6904 v -7.69041 h 7.6904 z m 0,-7.69039 h -7.6904 v -7.69041 h 7.6904 z m 0,-7.69041 h -7.6904 v -7.69041 h 7.6904 z m 0,-7.69041 h -7.6904 v -7.6904 h 7.6904 z m 0,-7.6904 h -7.6904 v -7.69039 h 7.6904 z m 0,76.904 h 7.69041 v 7.69041 h -7.69041 z m 0,-7.6904 h 7.69041 v 7.6904 h -7.69041 z m 0,-7.6904 h 7.69041 v 7.6904 h -7.69041 z m 7.69041,0 h -7.69041 v -7.6904 h 7.69041 z m 0,-7.69037 h -7.69041 v -7.69041 h 7.69041 z m 0,-7.69041 h -7.69041 v -7.69041 h 7.69041 z m 0,-7.69041 h -7.69041 v -7.69039 h 7.69041 z m 0,-7.69039 h -7.69041 v -7.6904 h 7.69041 z m 0,-7.6904 h -7.69041 v -7.69041 h 7.69041 z m 0,-7.69041 h -7.69041 v -7.69041 h 7.69041 z m 0,-7.69041 h -7.69041 v -7.6904 h 7.69041 z m 0,-7.6904 h -7.69041 v -7.69039 h 7.69041 z m 15.38079,84.59445 h 7.69041 v 7.69039 h -7.69041 z m 0,-7.69041 h 7.69041 v 7.69041 h -7.69041 z m 0,-7.6904 h 7.69041 v 7.6904 h -7.69041 z m 0,-7.69041 h 7.69041 v 7.69039 h -7.69041 z m 7.69041,-3e-5 h -7.69041 v -7.69039 h 7.69041 z m 0,-7.69037 h -7.69041 v -7.6904 h 7.69041 z m 0,-7.6904 h -7.69041 v -7.6904 h 7.69041 z m 0,-7.6904 h -7.69041 v -7.69041 h 7.69041 z m 0,-7.69041 h -7.69041 v -7.69039 h 7.69041 z m 0,-7.69039 h -7.69041 v -7.69041 h 7.69041 z m 0,-7.69041 h -7.69041 v -7.69039 h 7.69041 z m 0,-7.6904 h -7.69041 v -7.69041 h 7.69041 z m 0,-7.69041 h -7.69041 v -7.6904 h 7.69041 z m -15.38081,76.90399 h 7.6904 v 7.69041 h -7.6904 z m 0,-7.6904 h 7.6904 v 7.6904 h -7.6904 z m 0,-7.6904 h 7.6904 v 7.6904 h -7.6904 z m 7.69038,0 h -7.69041 v -7.6904 h 7.69041 z m 0,-7.6904 h -7.69041 v -7.69041 h 7.69041 z m 0,-7.69041 h -7.69041 v -7.69039 h 7.69041 z m 0,-7.69039 h -7.69041 v -7.6904 h 7.69041 z m 0,-7.6904 h -7.69041 v -7.6904 h 7.69041 z m 0,-7.69038 h -7.69041 v -7.69041 h 7.69041 z m 0,-7.69041 h -7.69041 v -7.69041 h 7.69041 z m 0,-7.69041 h -7.69041 v -7.6904 h 7.69041 z m 0,-7.6904 h -7.69041 v -7.69039 h 7.69041 z m -15.38077,84.59441 h 7.69039 v 7.69039 h -7.69039 z m 0,-7.69041 h 7.69039 v 7.69041 h -7.69039 z m 0,-7.6904 h 7.69039 v 7.6904 h -7.69039 z m 0,-7.6904 h 7.69039 v 7.6904 h -7.69039 z m 7.69039,0 h -7.69039 v -7.6904 h 7.69039 z m 0,-7.69037 h -7.69039 v -7.69041 h 7.69039 z m 0,-7.69041 h -7.69039 v -7.69041 h 7.69039 z m 0,-7.69041 h -7.69039 v -7.69039 h 7.69039 z m 0,-7.69039 h -7.69039 v -7.6904 h 7.69039 z m 0,-7.6904 h -7.69039 v -7.69041 h 7.69039 z m 0,-7.69041 h -7.69039 v -7.69041 h 7.69039 z m 0,-7.69041 h -7.69039 v -7.6904 h 7.69039 z m 0,-7.6904 h -7.69039 v -7.69039 h 7.69039 z m 46.13662,38.45203 h 7.69041 v 7.6904 h -7.69041 z m 0.005,7.6904 h 7.6904 v 7.6904 h -7.6904 z m 0,-15.38081 h 7.6904 v 7.69041 h -7.6904 z m 0,-15.38081 h 7.6904 v 7.69039 h -7.6904 z m 0,69.21361 h 7.6904 v 7.69041 h -7.6904 z m 0.004,-7.69038 h 7.69039 v 7.69041 h -7.69039 z m -0.004,-7.69042 h 7.6904 v 7.6904 h -7.6904 z m 7.6904,-7.69042 h -7.6904 v -7.69039 h 7.6904 z m 0,-30.76159 h -7.6904 v -7.69041 h 7.6904 z m -15.38078,53.83281 h 7.69041 v 7.69041 h -7.69041 z m 0,-7.6904 h 7.69041 v 7.6904 h -7.69041 z m 0,-7.6904 h 7.69041 v 7.6904 h -7.69041 z m 0,-7.69042 h 7.69041 v 7.69041 h -7.69041 z m 7.69038,0 h -7.6904 v -7.69039 h 7.6904 z m 0,-7.69037 h -7.6904 v -7.6904 h 7.6904 z m 0,-7.6904 h -7.6904 v -7.6904 h 7.6904 z m 0,-7.6904 h -7.6904 v -7.69041 h 7.6904 z m 0,-7.69041 h -7.6904 v -7.69039 h 7.6904 z m 0,-7.69039 h -7.6904 v -7.69041 h 7.6904 z M 413.45,275.48549 h 7.6904 v 7.6904 H 413.45 Z m 0,-7.6904 h 7.6904 v 7.6904 H 413.45 Z m 0,-7.69042 h 7.6904 v 7.69041 H 413.45 Z m 7.69042,0 h -7.69039 v -7.69039 h 7.69039 z m 0,-7.69037 h -7.69039 v -7.6904 h 7.69039 z m 0,-7.6904 h -7.69039 v -7.6904 h 7.69039 z m 0,-7.6904 h -7.69039 v -7.69041 h 7.69039 z m 0,-7.69041 h -7.69039 v -7.69039 h 7.69039 z m 0,-7.69039 h -7.69039 v -7.69041 h 7.69039 z m -15.38079,61.52319 h 7.6904 v 7.69041 h -7.6904 z m 0,-7.6904 h 7.6904 v 7.6904 h -7.6904 z m 0,-7.6904 h 7.6904 v 7.6904 h -7.6904 z m 0,-7.69042 h 7.6904 v 7.69041 h -7.6904 z m 7.69037,0 h -7.6904 v -7.69039 h 7.6904 z m 0,-7.69039 h -7.6904 v -7.6904 h 7.6904 z m 0,-7.6904 h -7.6904 v -7.6904 h 7.6904 z m 0,-7.6904 h -7.6904 v -7.6904 h 7.6904 z m 0,-7.6904 h -7.6904 v -7.69041 h 7.6904 z m 0,-7.69038 h -7.6904 v -7.69041 h 7.6904 z m -15.38077,53.83281 h 7.6904 v 7.69041 l -7.6904,-0.0408 z m 0,-7.6904 h 7.6904 v 7.6904 h -7.6904 z m 0,-7.69041 h 7.6904 v 7.69039 h -7.6904 z m 7.6904,-3e-5 h -7.6904 v -7.69039 h 7.6904 z m 0,-7.69037 h -7.6904 v -7.6904 h 7.6904 z m 0,-7.6904 h -7.6904 v -7.6904 h 7.6904 z m 0,-7.6904 h -7.6904 v -7.69041 h 7.6904 z m 0,-7.69041 h -7.6904 v -7.69039 h 7.6904 z m 0,-7.69039 h -7.6904 v -7.69041 h 7.6904 z m 23.07471,-30.76161 h 7.6904 v 7.69041 h -7.6904 z m -0.004,7.69039 h 7.6904 v 7.69039 h -7.6904 z m 7.6904,15.3808 h -7.6904 v -7.69041 h 7.6904 z m -7.6904,0 h -7.6904 v -7.69041 h 7.6904 z m 0,-7.69041 h -7.6904 v -7.6904 h 7.6904 z m 0,-7.6904 h -7.6904 v -7.69039 h 7.6904 z m -7.6904,15.38081 h -7.6904 v -7.69041 h 7.6904 z m 0,-7.69039 h -7.6904 v -7.69041 h 7.6904 z m 0,-7.69041 h -7.6904 v -7.6904 h 7.6904 z m -7.6904,15.3808 h -7.69041 v -7.69041 h 7.69041 z m 0,-7.69039 h -7.69041 v -7.69041 h 7.69041 z m 0,-7.69041 h -7.69041 v -7.6904 h 7.69041 z m -7.69041,15.3808 h -7.69039 v -7.69041 h 7.69039 z m 0,-7.69039 h -7.69039 v -7.69041 h 7.69039 z m 0,-7.69041 h -7.69039 v -7.6904 h 7.69039 z" />
    <g
       id="g3419"
       style="fill:none;stroke:#000000;stroke-width:3.25080588;stroke-miterlimit:4;stroke-dasharray:none"
       transform="matrix(0.30761603,0,0,0.30761603,233.00496,136.23513)">
      <path
         style="fill:none;stroke:#000000;stroke-width:3.25080588;stroke-miterlimit:4;stroke-dasharray:none"
         id="rect10542-1-8-1-2-0-5"
         width="149.99994"
         height="125"
         x="261.5661"
         y="202.67596"
         sodipodi:type="rect" />
      <path
         id="rect10542-1-8-1-2-0-1"
         style="fill:none;stroke:#000000;stroke-width:3.25080588;stroke-miterlimit:4;stroke-dasharray:none"
         d="m 436.56607,152.67595 h 100.01134 v 99.35953 H 436.56607 Z m 100.00003,3e-5 h 100.01134 v 99.35953 H 536.5661 Z m -6e-5,-100.000019 h 99.99998 v 99.370979 h -99.99998 z m -99.99997,-1.6e-5 H 536.538 v 99.971925 h -99.97193 z m -75,4e-6 h 74.99998 V 177.67598 h -74.99998 z" />
      <path
         id="path1387"
         style="fill:none;stroke:#000000;stroke-width:3.25080588;stroke-linecap:butt;stroke-linejoin:miter;stroke-miterlimit:4;stroke-dasharray:none;stroke-opacity:1"
         d="m 536.5661,278.31641 -100.00001,-0.64044 v 75.00001 m -74.99999,-2e-5 h 100.01134 v 124.86769 l -100.01134,0.13232 z m 99.99997,24.99994 h 75.01134 v 99.86775 h -75.01134 z m 75.00003,0.6406 h 100.01134 v 99.35953 L 536.5661,477.54365 Z m 0,-100.00009 h 100.01134 v 99.35953 H 536.5661 Z"
         sodipodi:nodetypes="ccccccccccccccccccccccc" />
      <path
         id="rect10542"
         style="fill:none;stroke:#000000;stroke-width:3.25080588;stroke-miterlimit:4;stroke-dasharray:none"
         d="M 36.566043,52.675938 H 136.56606 V 127.67595 H 36.566043 Z m 200.000057,3.8e-5 h 74.99998 V 177.67601 H 236.5661 Z M 136.56607,127.676 H 236.56608 V 252.67602 H 136.56607 Z m -100.000007,-2e-5 H 136.56607 V 252.676 H 36.566063 Z M 136.56606,52.675941 H 236.56607 V 127.67595 H 136.56606 Z" />
      <path
         id="rect10542-1-8-1-2-7"
         style="fill:none;stroke:#000000;stroke-width:3.25080588;stroke-miterlimit:4;stroke-dasharray:none"
         d="m 36.594128,377.64789 h 99.971932 v 99.97192 H 36.594128 Z m 0,-99.97193 h 99.971932 v 99.97193 H 36.594128 Z m 150.000032,3e-5 h 49.99998 v 75 h -49.99998 z m -49.99999,0 h 49.99999 v 75 h -49.99999 z m 99.99999,74.99991 h 74.99997 v 125.00003 h -74.99997 z m -100.00003,0 H 236.59416 V 477.67593 H 136.59413 Z" />
    </g>
  </g>
</svg>
